<svg width="61" height="59" viewBox="0 0 61 59" fill="none" xmlns="http://www.w3.org/2000/svg">
<path d="M43.7947 24.2762C44.1388 24.4913 44.4828 24.7064 44.8269 24.9214C46.8915 26.1257 48.1818 27.9322 48.87 30.2118C49.6442 32.6204 49.3431 35.072 49.2141 37.5236C49.042 40.7495 47.8807 43.6742 46.1603 46.3409C45.171 47.8893 44.0958 49.3517 42.9775 50.814C40.4828 53.9969 37.171 56.1904 33.6011 57.9539C31.8376 58.8141 29.8591 58.9861 27.9236 58.9861C25.9021 59.0291 24.1386 58.298 22.5042 57.1367C21.0849 56.1474 19.7515 55.0721 18.2891 54.1689C16.5257 53.1366 14.6332 52.4915 12.5687 52.4485C11.9235 52.4485 11.2353 52.3624 10.5902 52.2764C9.04178 52.0614 7.75144 51.4162 6.54713 50.4269C2.97722 47.5882 1.17076 43.8463 0.52559 39.4161C0.181502 37.0935 0.0524766 34.7709 0.00946552 32.4053C-0.119568 28.9644 1.08474 25.9107 2.76217 23.0289C5.85896 17.6956 10.7622 15.1149 16.6117 14.1256C18.6332 13.7816 20.6117 13.7816 22.6333 13.9966C24.6118 14.2117 26.4182 14.8138 28.0957 15.8461C28.7408 16.2332 29.386 16.5773 30.0311 16.9214C29.8161 18.2547 29.2569 19.416 28.6978 20.6203C28.4827 21.0504 28.2677 21.4805 28.2247 21.9536C28.1387 22.8999 28.5688 23.244 29.472 23.0289C29.9451 22.8999 30.4182 22.6848 30.8914 22.4698C32.3968 21.8676 33.8591 21.7816 35.4075 22.3838C38.0742 23.502 40.9129 24.0182 43.7947 24.2762ZM1.55786 34.5129C1.55786 34.7279 1.55786 34.857 1.55786 35.029C1.51485 35.6742 1.7299 36.2333 2.33206 36.4914C2.93421 36.7924 3.57938 36.5774 4.0525 36.1473C4.48261 35.8032 4.86971 35.4161 5.17079 34.943C6.50413 32.7494 7.88048 30.5559 9.17081 28.3623C9.55791 27.7171 9.902 27.0289 10.074 26.2548C10.2461 25.5236 10.074 24.8354 9.47189 24.3623C8.86973 23.8891 8.13855 23.8891 7.49338 24.2762C6.50413 24.9214 5.55788 25.5666 4.82669 26.5128C3.62238 28.0182 2.80518 29.7386 2.16002 31.5451C1.81593 32.5344 1.51485 33.5236 1.55786 34.5129ZM12.6547 23.373C12.6977 23.373 12.8267 23.373 12.9128 23.373C14.1601 23.158 15.7085 21.4805 15.8375 20.2332C15.9235 19.502 15.4074 18.9429 14.6332 19.0289C13.5579 19.1149 12.5687 19.545 11.7515 20.2332C11.4074 20.5343 11.2353 20.9644 11.1063 21.3945C10.8912 22.3407 11.6224 23.373 12.6547 23.373Z" fill="#FD3946"/>
<path d="M43.7937 24.2765C40.912 24.0184 38.0732 23.5023 35.3635 22.47C33.8581 21.8678 32.3528 21.9539 30.8474 22.556C30.3743 22.7281 29.9011 22.9431 29.428 23.1152C28.5248 23.3732 28.0947 22.9861 28.1807 22.0399C28.2237 21.5668 28.4388 21.1367 28.6538 20.7066C29.213 19.5022 29.7721 18.3409 29.9872 17.0076C30.5893 15.4162 30.6753 13.6958 30.8474 12.0613C31.1915 9.09358 31.0194 6.21184 29.9442 3.37311C29.7291 2.72795 29.6431 2.08278 29.8151 1.43762C29.9441 0.792453 30.2882 0.276321 30.9764 0.0612657C31.6216 -0.153789 32.0947 0.23331 32.5248 0.66342C33.213 1.39461 33.5571 2.25483 33.7291 3.20107C34.1592 5.95377 34.0732 8.70648 33.8581 11.4162C33.6861 13.3947 33.299 15.3302 32.8259 17.3517C33.428 17.2657 33.6431 16.8786 33.9012 16.5775C35.4065 15.0721 36.998 13.6527 38.8904 12.6205C42.2883 10.728 45.9442 9.82476 49.8582 10.0828C51.8368 10.2119 53.6862 10.599 55.5357 11.2441C56.654 11.6312 57.7723 11.9323 58.8906 12.3194C59.1486 12.4054 59.3637 12.4484 59.6218 12.5775C60.7831 13.0936 61.0841 13.9968 60.4389 15.0721C59.7508 16.2764 58.8475 17.3517 57.8153 18.2979C54.8905 20.9646 51.6647 23.0291 47.7077 23.8894C46.4604 24.1474 45.127 24.2335 43.7937 24.2765Z" fill="#6C9C29"/>
<path d="M34.418 19.5452C34.418 19.5452 45.2997 10.728 57.5149 14.728C57.5149 14.728 46.6761 13.9538 34.418 19.5452Z" fill="#98D13F"/>
<path d="M38.4614 17.4375C38.4614 17.4375 39.9668 13.0504 41.6873 12.4482C41.6873 12.4482 39.6227 16.6203 39.9238 17.0504C40.2249 17.5235 45.0421 19.201 44.9131 19.9752C44.7841 20.7064 38.0743 18.2117 38.4614 17.4375Z" fill="#98D13F"/>
<path d="M44.1817 15.5022C44.1817 15.5022 47.3215 11.7172 48.0957 11.6742C48.8699 11.6312 45.343 15.0721 45.7731 15.3732C46.2032 15.6743 49.9452 16.5775 49.9452 17.3087C49.9882 18.0399 43.7086 16.2764 44.1817 15.5022Z" fill="#98D13F"/>
<path d="M51.0635 13.9966C51.0635 13.9966 54.4184 11.7171 55.0206 11.8461C55.6227 11.9751 52.0958 13.9106 52.3539 14.2547C52.6119 14.5988 55.3647 16.1472 55.1926 16.7063C55.0636 17.3085 50.5474 14.5128 51.0635 13.9966Z" fill="#98D13F"/>
<path d="M1.55829 34.513C1.47227 33.5238 1.81635 32.5345 2.16044 31.5883C2.80561 29.7818 3.62281 28.0614 4.82712 26.556C5.5583 25.6097 6.50455 24.9646 7.49381 24.3194C8.13897 23.8893 8.82715 23.9323 9.47231 24.4054C10.1175 24.8785 10.2465 25.5237 10.0745 26.2979C9.90242 27.0721 9.55833 27.7603 9.17123 28.4054C7.83789 30.599 6.50455 32.7926 5.17121 34.9861C4.87014 35.4592 4.48303 35.8463 4.05292 36.1904C3.53679 36.6205 2.93464 36.8356 2.33248 36.5345C1.73033 36.2765 1.51528 35.7173 1.55829 35.0722C1.55829 34.8571 1.55829 34.7281 1.55829 34.513Z" fill="#FFBC4A"/>
<path d="M12.6551 23.3733C11.6659 23.3733 10.8917 22.3411 11.1497 21.3518C11.2357 20.9217 11.4508 20.4916 11.7949 20.1905C12.6121 19.5023 13.6014 19.0292 14.6766 18.9862C15.4508 18.9432 15.967 19.5023 15.8809 20.1905C15.7519 21.4378 14.2035 23.1153 12.9562 23.3303C12.7841 23.3733 12.6981 23.3303 12.6551 23.3733Z" fill="#FFBC4A"/>
</svg>
