<svg width="104" height="131" viewBox="0 0 104 131" fill="none" xmlns="http://www.w3.org/2000/svg">
<path d="M52.0017 70.1097C52.1582 70.6172 52.2902 71.0907 52.4662 71.4809C53.4637 74.1743 54.8769 76.3633 56.6421 77.8869C57.1458 78.3006 57.625 78.6802 58.1726 79.0107C58.7203 79.3412 59.2777 79.6131 59.9281 79.8701L59.9867 79.8796L60.1041 79.8988C60.2703 80.3477 60.4953 80.8062 60.7935 81.3671C61.0674 81.8938 61.3754 82.396 61.7226 83.0251C62.461 84.2001 63.2922 85.3602 64.0257 86.3838C64.3435 86.8273 64.6614 87.2709 65.0037 87.7486L64.9548 87.6803C65.9229 89.1038 67.0036 90.7565 67.6833 92.6448C68.006 93.6013 68.2114 94.5385 68.2651 95.4811C68.3434 96.4579 68.2602 97.4986 68.0842 98.5542L68.0744 98.6129C67.9424 99.2239 67.8299 99.7176 67.693 100.177C67.6099 100.495 67.4339 100.828 67.2823 101.194L67.2725 101.253C66.9009 102.036 66.4217 102.741 65.8838 103.436C65.3997 103.989 64.8569 104.533 64.2653 105.009C64.3386 104.027 64.2848 103.084 64.1724 102.132C63.9865 100.716 63.5367 99.4374 62.9059 98.3402C62.5489 97.7698 62.1578 97.2239 61.6639 96.7515C61.17 96.2792 60.6175 95.7973 59.9867 95.423C58.9501 94.7716 57.8058 94.4038 56.6812 94.2802C55.6739 94.1757 54.7106 94.3496 53.8011 94.7431C53.4784 94.8711 53.1801 95.0332 52.872 95.2539C52.3928 95.5973 51.9625 96.0089 51.6398 96.4984C51.0921 97.2523 50.7743 98.2546 50.6569 99.3199C50.5738 100.361 50.7254 101.44 51.1508 102.684C51.3073 103.192 51.498 103.675 51.7327 104.074C51.9332 104.499 52.2021 104.874 52.471 105.249C52.9356 105.898 53.5615 106.482 54.2998 106.934C54.9551 107.342 55.6641 107.609 56.4758 107.802C57.9916 108.11 59.6444 107.958 61.2825 107.353C62.0551 107.057 62.8374 106.703 63.5464 106.247C63.4878 106.599 63.4291 106.951 63.3606 107.361L63.4046 107.278C63.0037 109.321 62.3876 111.208 61.6247 112.891C60.9793 114.231 60.2018 115.46 59.3607 116.527L59.3265 116.552C58.9109 117.056 58.4708 117.526 58.0161 117.904C57.5515 118.34 57.0723 118.683 56.6616 118.978L56.285 119.247L56.3535 119.198C55.4391 119.802 54.5247 120.406 53.6446 120.985L53.5419 121.058C52.5248 121.735 51.4735 122.437 50.4466 123.173C49.1459 124.105 48.0995 124.958 47.1704 125.83C47.058 125.963 47.0286 126.138 47.1509 126.309C47.2829 126.421 47.4589 126.45 47.5958 126.352L47.6301 126.327C48.5591 125.455 49.6056 124.602 50.9062 123.67C51.0432 123.572 51.1459 123.498 51.2828 123.4L51.2143 123.449C52.1287 122.845 53.0773 122.217 54.026 121.589C54.4954 121.304 54.9746 120.961 55.444 120.676C56.0846 120.269 56.6322 119.877 57.1799 119.484L57.4879 119.263C58.0356 118.871 58.5686 118.386 59.0771 117.866C60.8962 115.995 62.3338 113.519 63.2873 110.512C63.7323 109.109 64.0501 107.745 64.2261 106.328C64.2555 106.152 64.2506 106 64.2799 105.824L64.3142 105.8C64.7934 105.457 65.2823 105.055 65.7126 104.643C67.0133 103.349 67.9571 101.847 68.4412 100.209C68.6319 99.6077 68.7737 98.938 68.8666 98.2002C68.9742 97.555 69.0231 96.9003 69.0133 96.236C68.9986 95.0589 68.7981 93.9115 68.4461 92.7695C68.0304 91.4666 67.3459 90.1497 66.363 88.6335C65.786 87.756 65.1748 86.903 64.588 86.0841L64.5391 86.0159C64.2213 85.5723 63.9035 85.1288 63.5856 84.6852L63.6345 84.7534C62.9353 83.7053 62.4316 82.9302 62.0111 82.1987C61.7519 81.7647 61.527 81.3062 61.2679 80.8723C61.1554 80.643 61.0429 80.4138 60.9305 80.1845C61.5075 80.3391 62.1529 80.4446 62.7593 80.4233C64.4413 80.4573 66.1772 79.988 67.7811 79.0453C68.0794 78.8832 68.3532 78.687 68.627 78.4908C69.7908 77.6569 70.7492 76.6086 71.3311 75.4687C71.7272 74.7202 71.9472 73.9428 72.0499 73.1463C72.1526 72.3498 72.0548 71.4903 71.7712 70.6608C71.6294 70.246 71.4631 69.7971 71.204 69.3631C70.9204 68.895 70.6025 68.4515 70.2505 68.0325C69.5121 67.2189 68.5488 66.6698 67.4926 66.4972C67.0232 66.4204 66.4853 66.3927 65.9279 66.4823C65.4389 66.5229 64.9304 66.6807 64.3436 66.9463C63.9524 67.1233 63.5514 67.359 63.1065 67.6778C63.0038 67.7514 62.9011 67.825 62.7984 67.8986C62.3192 68.242 61.9133 68.6877 61.4635 69.2166C60.7104 70.1177 60.1383 71.1989 59.7471 72.4604C59.3755 73.6045 59.2288 74.8457 59.2826 76.1498C59.3168 77.2097 59.4782 78.2301 59.7667 79.2111L59.5418 79.1141L59.3755 79.0266C58.5931 78.6578 57.9135 78.2153 57.2191 77.6801L57.1947 77.6459C56.3781 76.9401 55.6397 76.1266 55.004 75.2394C54.207 74.0548 53.498 72.7039 52.9454 71.1375C52.8183 70.8155 52.7254 70.469 52.608 70.0883C52.3978 70.0841 52.1777 70.1385 52.0017 70.1097ZM61.4488 79.6066C61.1554 79.5586 60.8376 79.4765 60.5539 79.3699C60.2557 78.4476 60.0503 77.5103 59.9721 76.5336C59.8938 75.5569 59.9672 74.5748 60.1237 73.6365C60.285 72.8495 60.5393 72.0477 60.8425 71.314C61.1359 70.6391 61.5368 70.0419 61.9965 69.4544C62.4463 68.9254 62.9451 68.4648 63.4928 68.0723C64.0062 67.7044 64.5001 67.4538 65.0086 67.296C65.4242 67.1531 65.8301 67.0688 66.2604 67.0187C66.6222 67.0176 66.9841 67.0165 67.3361 67.074C67.654 67.1561 67.9718 67.2382 68.2554 67.3448C68.5879 67.5197 68.8862 67.7191 69.1845 67.9184C69.5561 68.2202 69.8837 68.6051 70.1771 69.0145C70.5439 69.5263 70.8177 70.0531 70.9986 70.5947C71.1649 71.0436 71.2627 71.5416 71.3115 71.9713C71.3507 72.4596 71.3311 72.9384 71.2529 73.4076C71.1746 73.8768 71.0035 74.3609 70.8079 74.8109C70.5683 75.344 70.2113 75.858 69.8299 76.3379C69.3458 76.8913 68.7688 77.4597 68.1185 77.9257L68.0843 77.9502L68.05 77.9747C67.341 78.4311 66.6075 78.8535 65.8105 79.1147C65.0135 79.376 64.2262 79.5787 63.434 79.6299C62.7495 79.759 62.06 79.7366 61.4488 79.6066ZM51.7816 102.697C51.498 101.867 51.2975 101.081 51.273 100.324C51.2437 99.7773 51.2388 99.2644 51.3513 98.7707C51.454 98.3356 51.5567 97.9006 51.7425 97.5092C51.9185 97.1765 52.1288 96.8193 52.3537 96.5548C52.6129 96.2659 52.9307 95.9865 53.2388 95.7657C53.5468 95.545 53.938 95.368 54.295 95.2155C54.7106 95.0725 55.1507 94.9638 55.6054 94.9477C56.0944 94.9072 56.6323 94.9349 57.1604 95.0212C57.7129 95.1417 58.2899 95.2962 58.8229 95.534C59.5222 95.8592 60.1187 96.2579 60.7055 96.7153C61.2336 97.1631 61.6932 97.66 62.0844 98.2059C62.5245 98.8201 62.8374 99.4737 63.0819 100.176C63.39 101.04 63.5611 102.002 63.6638 103.013C63.7127 103.804 63.6931 104.644 63.6394 105.509C62.8619 106.014 62.0013 106.476 61.1358 106.786L61.1015 106.811C60.2703 107.097 59.4586 107.265 58.7251 107.326C58.0503 107.397 57.3951 107.35 56.7496 107.244C56.2215 107.158 55.7374 106.988 55.2631 106.76C54.7888 106.532 54.3829 106.255 53.9526 105.943L54.0015 106.012C53.581 105.642 53.229 105.223 52.8524 104.77C52.3879 104.121 52.0505 103.434 51.7816 102.697Z" fill="#808184"/>
<path d="M40.1089 10.1951C38.0115 11.6568 36.1619 13.4801 34.615 15.5594C33.8415 16.599 33.1336 17.7058 32.5315 18.8671C31.9568 19.9755 31.4477 21.1511 30.9895 22.4867C30.1299 24.9196 29.6403 27.5429 29.4808 30.3694C29.3302 33.5014 29.7248 36.6798 30.6117 39.8776C30.9796 41.1701 31.4533 42.517 32.0728 43.9056C32.3934 44.7726 32.7542 45.6268 33.1678 46.5083C33.6725 47.5369 34.1645 48.5255 34.724 49.4485L34.8024 49.5557L34.8807 49.6629C35.2452 50.2516 35.4785 50.7059 35.7263 51.0675C36.0781 51.6162 36.4171 52.1249 36.7305 52.5536C37.044 52.9824 37.3575 53.4111 37.815 54.0142C38.5604 54.9661 39.3588 55.9452 40.1845 56.8714C40.8662 57.6234 41.588 58.3625 42.3627 59.1288C43.3999 60.1639 44.5173 61.1734 45.6621 62.1301C46.4514 62.8036 47.3209 63.4516 48.1905 64.0996C48.4147 64.2484 48.6389 64.3972 48.8632 64.5459C49.2715 64.8563 49.72 65.1539 50.1028 65.3843L50.2742 65.5059L50.3799 65.5603L50.0717 65.7026C49.8437 65.8194 49.6158 65.9361 49.3878 66.0528C48.5161 66.507 47.8176 66.95 47.1993 67.3674C46.6886 67.7065 45.9882 68.2822 45.4592 68.9796C45.2421 69.2691 45.0779 69.5858 44.9666 69.9297C44.8826 70.2208 44.8515 70.5391 44.8459 70.9374C44.8676 71.2829 44.9385 71.9212 45.4545 72.1532C45.759 72.2764 46.1182 72.294 46.5194 72.1661C46.6397 72.1277 46.72 72.1022 46.8002 72.0766C47.309 71.8703 47.7796 71.544 48.345 71.0994C48.883 70.7076 49.3153 70.2614 49.7476 69.8152L49.733 69.9079L49.7037 70.0935C49.5594 70.8885 49.4698 71.5779 49.5006 72.2289C49.5295 73.0127 49.6807 73.6254 49.9668 74.1069C50.1363 74.3613 50.386 74.5901 50.6376 74.6861C50.6905 74.7133 50.6905 74.7133 50.7434 74.7405C50.9421 74.8093 51.1281 74.8381 51.3542 74.8541C51.4471 74.8685 51.5274 74.8429 51.6204 74.8574C51.7535 74.859 51.914 74.8078 52.1273 74.7838C52.1674 74.7711 52.2075 74.7583 52.2075 74.7583C52.3279 74.7199 52.4483 74.6815 52.5559 74.6031C52.824 74.4736 53.0264 74.2769 53.2709 73.9346C53.4478 73.6579 53.5719 73.354 53.6687 73.1029C53.7526 72.8118 53.8366 72.5207 53.855 72.1623C53.9172 71.5257 53.9265 70.8619 53.8575 70.0909C53.8338 69.8781 53.8102 69.6654 53.7866 69.4526C53.9306 69.627 54.0873 69.8414 54.337 70.0701C54.862 70.6077 55.3615 71.0652 55.9157 71.4172C56.1928 71.5932 56.4571 71.7292 56.7087 71.8252C56.9603 71.9212 57.2393 71.9645 57.3998 71.9133C57.4399 71.9005 57.5201 71.8749 57.5602 71.8621C57.7608 71.7982 57.9086 71.707 58.0308 71.5359C58.2205 71.2992 58.3045 71.008 58.3629 70.637C58.3922 70.4514 58.3813 70.2786 58.4105 70.0931C58.4124 69.9603 58.4143 69.8276 58.3633 69.6676C58.3269 69.4149 58.1975 69.1477 58.0153 68.8533C57.833 68.559 57.6107 68.2774 57.3609 68.0487C57.1513 67.8071 56.8888 67.5383 56.5862 67.2823C56.0995 66.8648 55.5198 66.4328 54.7414 65.932C54.5172 65.7832 54.2401 65.6072 53.9757 65.4712C56.1132 63.9967 58.2253 62.4422 60.2863 60.7277C62.9802 58.503 65.3003 56.3535 67.3561 54.0679C69.6143 51.5857 71.5279 48.993 73.0969 46.2899C74.5291 43.8507 75.562 41.4066 76.221 39.0377C76.7961 36.9599 77.1196 34.7861 77.2188 32.4635C77.3016 30.3664 77.12 28.1334 76.6722 25.8971C76.2626 23.7807 75.6123 21.7412 74.7742 19.8055C73.8705 17.8027 72.7916 15.9438 71.5632 14.3089C70.2691 12.6067 68.7726 11.1013 67.152 9.89974C66.2824 9.25178 65.3983 8.69659 64.4867 8.19419C63.5752 7.69179 62.6089 7.29495 61.5497 6.88371C59.5496 6.15561 57.3452 5.757 55.0295 5.70229C53.9118 5.66215 52.6992 5.74036 51.5121 5.89855C50.1518 6.06792 48.7768 6.33006 47.4529 6.75217C47.2523 6.81613 47.0517 6.88009 46.811 6.95683C44.351 7.6971 42.1388 8.79892 40.1089 10.1951Z" fill="#FAB633"/>
<path d="M41.8597 13.6016C40.0851 14.8283 38.5456 16.3765 37.203 18.1263C36.5517 18.9947 35.9661 19.9304 35.4333 20.8933C34.928 21.8034 34.5411 22.8079 34.1122 23.958C33.3912 25.9942 32.9602 28.2463 32.8737 30.6089C32.7433 33.2499 33.0652 35.9228 33.8265 38.5879C34.1306 39.6804 34.5405 40.8274 35.0434 41.9888C35.3258 42.7358 35.6483 43.4701 35.958 44.1644C36.3716 45.0458 36.8126 45.8745 37.281 46.6503L37.3065 46.7303L37.3721 46.7975C37.671 47.319 37.8787 47.6934 38.1011 47.9749C38.3872 48.4564 38.6879 48.8452 38.9485 49.2467C39.1837 49.5683 39.4315 49.9298 39.8635 50.453C40.4777 51.2704 41.132 52.0751 41.8666 52.8542C42.4298 53.5117 43.0605 54.1037 43.704 54.7356C44.5972 55.5963 45.5305 56.4442 46.4912 57.2394C47.1492 57.7785 47.8602 58.3449 48.6112 58.8985C48.7826 59.0201 48.9667 59.1816 49.1782 59.2904C49.468 59.5064 49.7451 59.6824 50.0222 59.8584C50.1025 59.8328 50.1426 59.82 50.2228 59.7945C50.026 59.5929 49.882 59.4185 49.6851 59.2169C48.2561 57.6459 47.0149 55.971 45.9087 54.1649C44.7897 52.3188 43.8058 50.3415 42.995 48.3531C42.1587 46.2847 41.483 44.1651 40.9677 41.9944C40.4524 39.8237 40.0975 37.6018 39.8758 35.3815C39.6942 33.1484 39.6457 30.917 39.7705 28.6744C39.9207 26.5117 40.2041 24.3507 40.6734 22.2185C41.0423 20.603 41.5169 19.0418 42.1246 17.4823C42.4987 16.4378 42.9258 15.4205 43.4184 14.4704C43.7742 13.7843 44.1427 13.1381 44.6043 12.5063C44.7812 12.2296 44.9582 11.9529 45.1352 11.6762C43.9151 12.2854 42.8683 12.8836 41.8597 13.6016Z" fill="#F9A30A"/>
<path d="M61.0714 19.1086C64.3306 22.1227 68.1485 23.2845 69.5949 21.7219C71.0414 20.1593 69.5894 16.4368 66.3429 13.4627C63.0837 10.4486 59.2658 9.28677 57.8193 10.8494C56.3327 12.4248 57.8249 16.1345 61.0714 19.1086Z" fill="#FEFEFE"/>
<path d="M69.6556 26.9005C70.5158 28.2123 72.0929 28.7227 73.1945 28.0191C74.296 27.3154 74.5191 25.6583 73.6588 24.3465C72.7986 23.0347 71.2215 22.5242 70.12 23.2278C69.0184 23.9315 68.7954 25.5887 69.6556 26.9005Z" fill="#FEFEFE"/>
</svg>
