<svg width="118" height="138" viewBox="0 0 118 138" fill="none" xmlns="http://www.w3.org/2000/svg">
<path d="M46.3462 12.5104C44.2031 14.1871 42.3447 16.2335 40.8229 18.5341C40.062 19.6845 39.3748 20.9023 38.8031 22.1718C38.2575 23.3836 37.7855 24.6629 37.3771 26.1092C36.6066 28.7452 36.2405 31.5619 36.237 34.575C36.2611 37.9124 36.8673 41.2671 37.9978 44.6133C38.4647 45.9653 39.0472 47.3689 39.7872 48.8081C40.1789 49.7107 40.6125 50.5973 41.1039 51.5098C41.7007 52.5732 42.2817 53.595 42.9305 54.543L43.0201 54.6523L43.1097 54.7617C43.5317 55.3659 43.8062 55.835 44.0909 56.2046C44.497 56.7671 44.8871 57.2878 45.2455 57.725C45.6038 58.1622 45.9622 58.5995 46.4838 59.2135C47.332 60.1813 48.2379 61.1749 49.1699 62.1107C49.9385 62.8697 50.7491 63.6128 51.6174 64.3817C52.7805 65.4207 54.0274 66.4279 55.3002 67.3774C56.1786 68.0468 57.1408 68.6843 58.103 69.3218C58.35 69.4667 58.5971 69.6117 58.8441 69.7566C59.2963 70.0625 59.7904 70.3524 60.2108 70.5747L60.4001 70.6939L60.5156 70.7455L60.1965 70.9148C59.9611 71.0523 59.7256 71.1898 59.4902 71.3272C58.5905 71.8611 57.8742 72.373 57.2417 72.8529C56.7189 73.2432 56.0084 73.8963 55.4872 74.6685C55.2735 74.9889 55.1176 75.3351 55.0195 75.7071C54.9473 76.0214 54.933 76.3616 54.9504 76.7852C54.9939 77.1511 55.1067 77.8252 55.6687 78.0415C55.9995 78.1545 56.3823 78.1522 56.8011 77.9926C56.9268 77.9448 57.0106 77.9129 57.0943 77.881C57.6229 77.6318 58.1038 77.2575 58.6786 76.7517C59.2273 76.3037 59.6605 75.8041 60.0937 75.3044L60.0836 75.4039L60.0635 75.6028C59.9568 76.4561 59.9021 77.1941 59.9731 77.8842C60.0499 78.7154 60.2465 79.3577 60.5789 79.8526C60.774 80.1129 61.0528 80.3414 61.3259 80.4286C61.3836 80.4544 61.3836 80.4544 61.4414 80.4802C61.6567 80.5417 61.856 80.5614 62.0972 80.5651C62.1969 80.575 62.2807 80.5431 62.3803 80.5529C62.5219 80.5468 62.6894 80.483 62.9148 80.445C62.9566 80.429 62.9985 80.4131 62.9985 80.4131C63.1242 80.3652 63.2498 80.3174 63.3596 80.2278C63.6369 80.0744 63.8405 79.8534 64.0802 79.4753C64.252 79.1708 64.366 78.8405 64.454 78.568C64.5261 78.2537 64.5983 77.9393 64.5967 77.5575C64.6254 76.8772 64.5963 76.1712 64.4776 75.3559C64.44 75.1312 64.4024 74.9065 64.3648 74.6818C64.5281 74.8586 64.7072 75.0772 64.9861 75.3057C65.5756 75.8461 66.1333 76.303 66.7429 76.6445C67.0477 76.8152 67.3367 76.9442 67.6097 77.0315C67.8827 77.1187 68.1817 77.1483 68.3493 77.0845C68.3912 77.0685 68.4749 77.0366 68.5168 77.0207C68.7262 76.9409 68.8779 76.8354 68.9977 76.6463C69.1854 76.3836 69.2575 76.0693 69.2979 75.6714C69.318 75.4725 69.2963 75.2896 69.3165 75.0907C69.3107 74.9495 69.3049 74.8083 69.2412 74.6412C69.1877 74.3748 69.0345 74.0985 68.8236 73.7964C68.6126 73.4943 68.3597 73.2081 68.0809 72.9796C67.8439 72.7352 67.5492 72.465 67.2125 72.2108C66.6708 71.7956 66.0293 71.3706 65.1726 70.8842C64.9255 70.7392 64.6207 70.5685 64.3318 70.4395C66.5168 68.7468 68.6699 66.9706 70.7595 65.0274C73.4917 62.5049 75.831 60.0841 77.8814 57.5344C80.1354 54.7636 82.0167 51.8958 83.5253 48.9309C84.904 46.2545 85.858 43.5964 86.4192 41.0401C86.9082 38.7982 87.1242 36.469 87.0932 33.9948C87.0578 31.7613 86.7336 29.3988 86.1263 27.0485C85.5666 24.8235 84.7557 22.6942 83.7512 20.6864C82.6731 18.611 81.4173 16.6989 80.0157 15.0336C78.5404 13.3007 76.8615 11.7888 75.0686 10.6071C74.1064 9.9696 73.1341 9.43154 72.1359 8.9512C71.1376 8.47085 70.0874 8.10591 68.9375 7.73112C66.7692 7.07489 64.4031 6.78083 61.9389 6.8588C60.7487 6.88182 59.4646 7.03621 58.2123 7.2741C56.7766 7.53405 55.3308 7.89345 53.9486 8.41985C53.7392 8.49961 53.5298 8.57937 53.2785 8.67508C50.7076 9.60638 48.4214 10.9073 46.3462 12.5104Z" fill="#F3A96B"/>
<path d="M48.4051 16.0287C46.5913 17.4366 45.0462 19.1724 43.7222 21.1108C43.0812 22.0721 42.5138 23.1009 42.0042 24.1555C41.5206 25.1524 41.1685 26.2427 40.7803 27.4901C40.1338 29.6964 39.808 32.1152 39.855 34.6311C39.8717 37.4454 40.3708 40.2671 41.3365 43.0546C41.7239 44.1979 42.2269 45.3927 42.8296 46.5974C43.1736 47.3747 43.5595 48.1361 43.9295 48.8557C44.4209 49.7682 44.9382 50.6229 45.4816 51.4199L45.5134 51.5034L45.5871 51.571C45.9353 52.1076 46.1781 52.4932 46.431 52.7794C46.7633 53.2743 47.1058 53.6698 47.4064 54.0812C47.6751 54.4091 47.9598 54.7787 48.4496 55.3093C49.1504 56.142 49.8931 56.9587 50.7195 57.7435C51.3567 58.4092 52.0618 59.0012 52.7828 59.6349C53.7826 60.4971 54.8243 61.3434 55.8919 62.132C56.623 62.6663 57.4118 63.2264 58.2425 63.7705C58.4318 63.8897 58.637 64.0506 58.8681 64.1538C59.1888 64.3663 59.4937 64.537 59.7985 64.7078C59.8823 64.6759 59.9241 64.6599 60.0079 64.628C59.7868 64.4254 59.6236 64.2485 59.4025 64.0459C57.7915 62.4603 56.374 60.7532 55.0922 58.8988C53.7946 57.0026 52.6326 54.9592 51.6542 52.8937C50.6439 50.7446 49.8011 48.5318 49.1259 46.2552C48.4507 43.9786 47.943 41.6381 47.5769 39.2916C47.2527 36.9291 47.07 34.5605 47.0707 32.1698C47.1033 29.8627 47.2774 27.5494 47.6509 25.2559C47.9479 23.5173 48.3606 21.8303 48.9147 20.1372C49.251 19.0052 49.645 17.899 50.1127 16.8604C50.4505 16.1102 50.8042 15.4018 51.2575 14.7033C51.4293 14.3988 51.6011 14.0944 51.7729 13.7899C50.5121 14.5091 49.4348 15.2063 48.4051 16.0287Z" fill="#F39343"/>
<path d="M69.1471 20.7501C72.788 23.7618 76.9136 24.7721 78.359 23.0264C79.8044 21.2808 78.0425 17.4101 74.4176 14.4402C70.7767 11.4286 66.651 10.4182 65.2056 12.1639C63.7183 13.9255 65.5221 17.7802 69.1471 20.7501Z" fill="#FEFEFE"/>
<path d="M78.7283 28.5276C79.7195 29.8712 81.4256 30.321 82.5549 29.5084C83.6842 28.6959 83.8238 26.9216 82.8326 25.5781C81.8413 24.2346 80.1352 23.7847 79.0059 24.5973C77.8766 25.4099 77.737 27.1841 78.7283 28.5276Z" fill="#FEFEFE"/>
<path d="M61.3838 80.4547C61.4071 81.0196 61.4145 81.5426 61.4897 81.992C61.7852 85.0348 62.6454 87.6712 64.0486 89.7184C64.4546 90.2809 64.8448 90.8016 65.3187 91.2904C65.7926 91.7792 66.2925 92.2103 66.8921 92.6513L66.9499 92.6771L67.0655 92.7287C67.1147 93.2358 67.2218 93.7687 67.3765 94.4269C67.5154 95.0433 67.6961 95.6438 67.8826 96.3855C68.3236 97.7952 68.8642 99.2147 69.3413 100.467C69.548 101.01 69.7547 101.553 69.9773 102.137L69.9455 102.054C70.5556 103.782 71.2191 105.776 71.4061 107.904C71.4786 108.976 71.4356 109.996 71.2351 110.981C71.0505 112.007 70.6824 113.056 70.2147 114.094L70.1887 114.152C69.887 114.745 69.6373 115.223 69.3716 115.658C69.1998 115.963 68.9283 116.257 68.6728 116.594L68.6468 116.652C68.0519 117.356 67.3674 117.952 66.6251 118.521C65.9767 118.959 65.2704 119.372 64.5324 119.701C64.8745 118.71 65.075 117.725 65.2177 116.715C65.4108 115.207 65.2948 113.769 64.9435 112.469C64.7309 111.785 64.4765 111.117 64.0964 110.496C63.7164 109.876 63.2785 109.23 62.7309 108.674C61.8409 107.722 60.7631 107.033 59.6392 106.6C58.6308 106.22 57.5923 106.137 56.5494 106.295C56.1825 106.339 55.8316 106.425 55.4546 106.569C54.8682 106.792 54.3136 107.099 53.8486 107.515C53.0804 108.142 52.4812 109.088 52.0713 110.152C51.7032 111.2 51.5663 112.352 51.6664 113.748C51.6897 114.313 51.7548 114.862 51.8879 115.337C51.979 115.828 52.1539 116.288 52.3288 116.747C52.6309 117.54 53.1165 118.311 53.7537 118.977C54.3172 119.575 54.9746 120.042 55.7576 120.461C57.234 121.189 58.9761 121.482 60.8264 121.303C61.7017 121.209 62.603 121.057 63.4566 120.78C63.3007 121.126 63.1448 121.472 62.9629 121.876L63.0308 121.802C62.0636 123.796 60.9172 125.571 59.6754 127.096C58.6473 128.3 57.5137 129.353 56.3584 130.224L56.3165 130.24C55.7518 130.646 55.1713 131.01 54.6008 131.276C54.0043 131.598 53.4179 131.822 52.9153 132.013L52.4546 132.189L52.5384 132.157C51.4335 132.53 50.3286 132.903 49.2655 133.26L49.1399 133.308C47.9093 133.728 46.6369 134.165 45.3804 134.644C43.7887 135.25 42.4802 135.844 41.2873 136.489C41.1357 136.595 41.0577 136.768 41.1372 136.977C41.2427 137.128 41.4161 137.205 41.5836 137.141L41.6255 137.126C42.8184 136.48 44.1269 135.886 45.7185 135.28C45.8861 135.216 46.0117 135.168 46.1793 135.104L46.0955 135.136C47.2004 134.763 48.3472 134.374 49.494 133.985C50.0544 133.82 50.6408 133.596 51.2012 133.431C51.971 133.185 52.6411 132.93 53.3113 132.675L53.6882 132.531C54.3584 132.276 55.0386 131.922 55.703 131.525C58.083 130.093 60.2346 127.935 62.0322 125.099C62.871 123.775 63.5683 122.458 64.1341 121.047C64.2121 120.874 64.2481 120.717 64.3261 120.544L64.368 120.528C64.9544 120.305 65.5667 120.024 66.1213 119.717C67.8111 118.739 69.1901 117.449 70.1329 115.894C70.4924 115.327 70.8201 114.676 71.116 113.942C71.4018 113.308 71.6299 112.647 71.8001 111.961C72.1046 110.745 72.2097 109.51 72.1573 108.239C72.0832 106.785 71.7361 105.244 71.1361 103.417C70.7805 102.357 70.383 101.314 70.0013 100.311L69.9695 100.228C69.7628 99.6852 69.5561 99.1424 69.3494 98.5997L69.3812 98.6832C68.9461 97.4147 68.6381 96.4802 68.4039 95.6133C68.2549 95.0963 68.1479 94.5634 67.999 94.0464C67.9454 93.7799 67.8919 93.5135 67.8384 93.247C68.3903 93.5627 69.0259 93.8465 69.6557 93.9891C71.3777 94.4807 73.2916 94.4689 75.1981 93.934C75.5491 93.8482 75.8841 93.7206 76.2192 93.5929C77.6433 93.0506 78.9142 92.2319 79.8225 91.2167C80.4333 90.5538 80.8707 89.8135 81.1926 89.0216C81.5145 88.2297 81.6471 87.3187 81.5804 86.388C81.5471 85.9226 81.4978 85.4155 81.3489 84.8985C81.184 84.3398 80.9773 83.797 80.7287 83.2702C80.1897 82.2325 79.3473 81.4059 78.3072 80.9415C77.8449 80.7352 77.2988 80.5607 76.7008 80.5016C76.1866 80.4106 75.6203 80.435 74.9444 80.549C74.4937 80.625 74.0171 80.7587 73.4726 80.9661C73.3469 81.014 73.2213 81.0618 73.0956 81.1097C72.5092 81.333 71.9706 81.6816 71.364 82.1038C70.3444 82.8268 69.4622 83.7843 68.7172 84.9763C68.0241 86.053 67.5363 87.2906 67.2376 88.6473C66.9852 89.7474 66.8743 90.8414 66.9049 91.9293L66.6998 91.7684L66.5524 91.6333C65.8473 91.0413 65.2679 90.4014 64.6986 89.6621L64.6827 89.6203C64.0339 88.6723 63.4948 87.6346 63.0814 86.5491C62.5826 85.1136 62.2196 83.5307 62.0761 81.7687C62.0326 81.4028 62.0311 81.0209 62.0136 80.5973C61.7984 80.5359 61.5572 80.5321 61.3838 80.4547ZM68.5287 92.7929C68.2398 92.6639 67.935 92.4931 67.672 92.3064C67.6154 91.2762 67.6584 90.2559 67.843 89.2295C68.0276 88.203 68.3697 87.2122 68.7854 86.289C69.1651 85.5229 69.6444 84.7666 70.1556 84.0939C70.6407 83.4788 71.2155 82.9731 71.848 82.4932C72.4546 82.0709 73.0929 81.7322 73.7631 81.477C74.3913 81.2377 74.9676 81.1138 75.5339 81.0894C76.0004 81.0552 76.441 81.0786 76.8974 81.1438C77.2701 81.2409 77.6428 81.338 77.9895 81.4928C78.2944 81.6635 78.5992 81.8343 78.8621 82.021C79.1569 82.2912 79.4098 82.5773 79.6626 82.8635C79.9632 83.2749 80.1959 83.76 80.3867 84.261C80.6252 84.8873 80.764 85.5037 80.8032 86.1103C80.8525 86.6174 80.818 87.1564 80.7517 87.6119C80.6594 88.1252 80.5093 88.6126 80.3014 89.0742C80.0935 89.5358 79.786 89.9876 79.4626 90.3976C79.0712 90.8813 78.5644 91.3134 78.0416 91.7037C77.3932 92.1419 76.645 92.5702 75.8492 92.8733L75.8074 92.8893L75.7655 92.9052C74.9119 93.1825 74.0424 93.418 73.1512 93.4706C72.26 93.5232 71.3947 93.5181 70.5656 93.3558C69.826 93.3028 69.1225 93.0926 68.5287 92.7929ZM52.3121 113.933C52.2454 113.002 52.2524 112.139 52.4327 111.353C52.551 110.782 52.6852 110.253 52.9349 109.775C53.1587 109.355 53.3825 108.935 53.6799 108.583C53.9514 108.289 54.2648 107.978 54.568 107.767C54.9132 107.54 55.3161 107.339 55.6931 107.195C56.0701 107.051 56.5207 106.975 56.9295 106.915C57.396 106.881 57.8785 106.889 58.3508 106.995C58.8651 107.086 59.4112 107.261 59.9312 107.493C60.4672 107.767 61.0191 108.083 61.5031 108.472C62.1344 108.997 62.6402 109.569 63.1199 110.199C63.5419 110.803 63.88 111.439 64.1345 112.107C64.4207 112.859 64.5653 113.616 64.6262 114.406C64.7088 115.378 64.6239 116.415 64.4552 117.483C64.2908 118.311 64.0426 119.17 63.7525 120.045C62.8151 120.355 61.8041 120.596 60.8291 120.681L60.7872 120.697C59.8541 120.765 58.973 120.718 58.2016 120.582C57.488 120.471 56.8264 120.245 56.1908 119.961C55.6707 119.729 55.2185 119.423 54.7923 119.06C54.3661 118.696 54.0236 118.301 53.6653 117.863L53.6971 117.947C53.3647 117.452 53.1161 116.925 52.8516 116.357C52.5495 115.563 52.3889 114.764 52.3121 113.933Z" fill="#808184"/>
</svg>
