<svg width="99" height="105" viewBox="0 0 99 105" fill="none" xmlns="http://www.w3.org/2000/svg">
<path d="M9.85254 56.7173C12.2438 53.5937 14.76 50.5657 17.4011 47.6334C18.5782 46.3547 19.6935 44.9494 20.7927 43.5913C22.4334 41.5775 24.199 39.6594 25.9338 37.678C28.5279 34.7295 30.95 31.6692 33.4499 28.6883C36.9373 24.5212 40.5333 20.4968 44.1456 16.4253C45.6891 14.6939 47.3413 13.1051 48.9318 11.3898C49.6631 10.6417 50.4413 9.90979 51.2505 9.24113C51.9169 8.68121 52.5949 8.54629 53.4256 8.88494C55.056 9.499 56.5261 10.4262 58.0609 11.1652C65.8909 15.0191 73.2897 19.514 80.1925 24.8379C83.8937 27.6912 87.3875 30.8414 90.7856 34.1166C90.8087 34.9665 90.5657 35.6723 89.9934 36.2646C89.421 36.8569 88.8649 37.4022 88.4337 38.0431C85.8643 41.6842 82.4835 44.625 79.5554 47.9321C77.5661 50.1942 75.4047 52.3444 73.4625 54.6227C72.7621 55.4341 71.8588 56.0703 71.1423 56.9288C70.2976 58.0062 69.3589 59.0513 68.3422 60.0169C65.9279 62.2905 63.7473 64.8025 61.38 67.0923C59.2511 69.1484 57.4338 71.5224 55.3828 73.658C53.2361 75.9185 51.3864 78.3865 49.3338 80.6795C48.395 81.7245 47.2843 82.6577 46.1119 83.4644C45.5573 83.8524 44.9896 83.9726 44.3487 83.5414C43.255 82.7439 42.129 82.0404 41.0986 81.2119C39.4288 79.7949 37.6472 78.5499 35.8656 77.3049C31.6776 74.3367 27.5059 71.3214 23.3341 68.3061C19.8033 65.7221 16.4151 63.0293 13.2507 59.9924C12.0012 59.0359 11.0225 57.7517 9.85254 56.7173ZM55.8777 18.7284C54.9837 18.4206 54.0266 18.1436 53.1489 17.7888C52.3652 17.4663 51.8593 17.7131 51.3972 18.2908C50.3142 19.6019 49.1225 20.7704 47.8529 21.8594C46.0271 23.4936 44.3733 25.2397 42.7504 27.0491C41.8911 28.0163 40.9847 28.9672 40.1255 29.9344C39.6002 30.5429 39.6295 30.7635 40.3336 31.1638C41.0378 31.5642 41.6787 31.9954 42.3829 32.3957C45.5274 34.2679 48.6086 36.1709 51.4499 38.4649C53.2916 39.9937 54.9745 41.6784 56.7368 43.2851C59.1856 45.4966 61.7608 47.6463 63.8755 50.2164C64.5912 51.0418 65.2275 51.945 65.9432 52.7703C66.8455 53.8178 67.6161 53.8726 68.6165 52.9541C69.0138 52.5646 69.3639 52.1589 69.7612 51.7695C72.2419 49.1503 74.4418 46.2766 77.0004 43.7368C78.4142 42.3818 79.6723 40.8678 80.8217 39.2111C81.5722 38.1013 81.5753 37.7866 80.7671 36.7715C79.8339 35.6608 78.9477 34.5662 77.9983 33.5025C76.924 32.3432 75.8188 31.1206 74.6326 30.1333C71.6825 27.6966 68.6692 25.2907 65.3219 23.2434C62.2862 21.514 59.2667 19.7375 55.8777 18.7284Z" fill="#FF5A01"/>
<path d="M90.3413 39.227C90.4037 40.8799 90.3411 42.4371 89.5551 43.9558C89.3946 44.2689 89.265 44.6453 89.1354 45.0217C87.6552 46.7223 86.3308 48.5818 85.0225 50.3943C82.8534 53.3312 80.7622 56.3476 78.4682 59.189C74.2466 64.4189 69.8999 69.5531 65.5225 74.6241C63.3889 77.1523 61.3803 79.7761 59.0277 82.1763C57.4857 83.7504 55.9747 85.3878 54.5885 87.1208C53.4893 88.479 52.296 89.8047 51.1498 91.1467C50.6878 91.7244 50.1039 91.8917 49.3642 91.9002C48.0584 91.8716 46.9292 91.4827 45.8032 90.7792C43.7231 89.4841 41.5797 88.2198 39.4526 86.9085C35.7142 84.6213 32.0229 82.3504 28.5083 79.7192C25.0878 77.1205 21.985 74.2102 18.4688 71.7364C18.5498 71.5012 18.6308 71.2659 18.7589 71.0469C19.1415 70.5471 19.1446 70.2324 18.5507 69.8174C17.2527 69.0021 16.193 67.953 15.07 66.9349C14.0088 66.0432 14.025 65.9961 12.9466 66.8352C12.3235 66.1996 11.7003 65.564 11.0609 64.9755C9.70431 63.719 9.82858 62.2882 10.3956 60.6415C11.4568 61.5332 12.3607 62.4233 13.3911 63.2518C16.4661 65.7842 19.7325 68.0667 22.9664 70.4432C25.6534 72.421 28.2125 74.6178 30.979 76.5177C35.3243 79.4875 39.6226 82.4411 43.7442 85.7549C44.4468 86.3126 45.1656 86.8232 45.933 87.1927C47.3899 87.8523 47.69 87.7451 48.7714 86.5913C50.6003 84.6423 52.1176 82.3756 53.9465 80.4266C58.7505 75.1867 63.3046 69.7556 67.8895 64.3876C72.0124 59.5973 76.4323 55.0146 80.4773 50.1448C83.2642 46.7891 86.0982 43.4496 89.0879 40.2689C89.5484 39.8486 89.8045 39.4105 90.3413 39.227Z" fill="#FDFDFD"/>
<path d="M18.5952 71.6746C22.1114 74.1484 25.1979 77.1057 28.6347 79.6574C32.1493 82.2885 35.8244 84.6065 39.5789 86.8466C41.7061 88.158 43.8024 89.4061 45.9296 90.7174C47.0086 91.4047 48.1848 91.8097 49.4906 91.8383C50.2141 91.877 50.7671 91.6464 51.2762 91.0849C52.4224 89.7429 53.5995 88.4642 54.7149 87.0589C56.101 85.3259 57.6121 83.6886 59.154 82.1144C61.4434 79.7452 63.4682 77.0743 65.6489 74.5623C69.9955 69.428 74.3259 64.3408 78.5946 59.1271C80.8886 56.2858 82.9798 53.2694 85.1489 50.3325C86.4571 48.52 87.7816 46.6605 89.2618 44.9598C90.9933 46.5033 91.203 47.5754 89.9549 49.6717C88.3712 52.284 86.6156 54.7845 84.688 57.1731C81.4536 61.2168 78.2355 65.2134 75.0012 69.2571C74.8099 69.507 74.6024 69.804 74.4582 70.0701C72.438 72.2689 70.5898 74.5796 68.6946 76.8741C64.7761 81.6821 60.6077 86.2988 56.6421 91.0906C55.9417 91.902 55.0223 92.5853 54.4939 93.5085C53.4966 94.1124 52.6697 94.9854 51.5798 95.3996C49.9384 95.8869 48.4784 95.542 46.9744 94.8663C43.8561 93.5294 41.0896 91.6295 38.4187 89.6047C32.5626 85.0621 26.4356 80.8474 20.3411 76.5385C19.5444 75.9484 18.7801 75.2642 17.8877 74.7991C17.4203 74.3224 16.9838 73.9089 16.5164 73.4322C17.0109 72.7605 17.8185 72.2491 18.5952 71.6746Z" fill="#C83708"/>
<path d="M90.3409 39.2268C89.8511 39.4265 89.595 39.8646 89.214 40.207C86.2242 43.3877 83.4373 46.7434 80.6033 50.083C76.5112 54.9365 72.1385 59.5355 68.0155 64.3257C63.3835 69.6775 58.8132 75.1557 54.0725 80.3647C52.2745 82.377 50.7263 84.5805 48.8975 86.5294C47.816 87.6832 47.516 87.7904 46.059 87.1308C45.2446 86.7451 44.5258 86.2345 43.8702 85.693C39.7956 82.3954 35.4503 79.4256 31.105 76.4559C28.3385 74.556 25.7795 72.3591 23.0924 70.3813C19.9055 68.021 16.5922 65.7223 13.5172 63.1899C12.5338 62.3777 11.5829 61.4713 10.5216 60.5796C9.90757 62.2101 9.83035 63.6571 11.187 64.9136C11.8264 65.5021 12.4495 66.1377 13.0727 66.7733C12.5767 67.6024 11.7545 68.0035 10.9322 68.4045C10.3723 67.7381 9.82858 67.0246 9.25246 66.4052C8.80129 65.8814 8.47661 65.296 8.49902 64.6196C8.51765 62.7314 8.47304 60.8741 8.71227 58.9567C8.81568 58.045 9.18518 57.2776 9.86782 56.6706C11.0216 57.7521 12.0165 58.9893 13.1703 60.0707C16.3347 63.1076 19.7229 65.8004 23.2537 68.3845C27.4255 71.3997 31.5972 74.415 35.7852 77.3833C37.5668 78.6282 39.3322 79.9203 41.0182 81.2902C42.0324 82.1657 43.1585 82.8692 44.2683 83.6198C44.8622 84.0348 45.4769 83.9307 46.0315 83.5427C47.1731 82.6728 48.3147 81.8028 49.2534 80.7578C51.306 78.4649 53.1719 75.9498 55.3024 73.7363C57.3534 71.6007 59.1707 69.2267 61.2997 67.1706C63.6669 64.8808 65.8476 62.3688 68.2619 60.0952C69.2623 59.1766 70.201 58.1316 71.0619 57.0071C71.7314 56.1325 72.6655 55.5595 73.3821 54.701C75.3244 52.4228 77.4857 50.2725 79.475 48.0104C82.4193 44.6562 85.7839 41.7625 88.3533 38.1214C88.7845 37.4805 89.4039 36.9044 89.913 36.3429C90.4853 35.7506 90.7446 34.9978 90.7053 34.1949C90.8302 34.2905 91.0184 34.3553 91.1434 34.451C93.1425 35.9814 92.5817 36.9987 91.184 38.3067C90.9132 38.6345 90.5337 38.8196 90.3409 39.2268Z" fill="#C83708"/>
<path d="M10.9152 68.4517C11.6904 68.0345 12.5597 67.6497 13.0557 66.8206C14.1649 66.0447 14.1649 66.0447 15.1791 66.9202C16.3182 67.8913 17.4088 69.0036 18.6598 69.8028C19.2698 70.1707 19.2505 70.5324 18.8679 71.0322C18.6928 71.2351 18.6589 71.4865 18.5779 71.7217C17.8011 72.2963 16.9936 72.8076 16.3256 73.5249C12.6865 75.5347 9.45145 78.052 7.71268 82.0318C7.55223 82.3449 7.43883 82.6742 7.03005 82.6387C6.55801 82.6341 6.41998 82.2708 6.34519 81.8766C6.07843 80.206 5.85872 78.5515 5.96989 76.8531C6.04091 76.0356 5.99386 76.0194 5.15853 76.1528C4.25996 76.317 3.37603 76.5915 2.50675 76.9763C2.14346 77.1144 1.76397 77.2995 1.46859 76.9346C1.12616 76.5536 1.4131 76.1787 1.653 75.7877C2.5154 74.5059 3.42485 73.2402 4.49008 72.1335C5.23752 71.3383 6.0937 70.6859 7.16737 70.3188C8.51024 69.7813 9.78986 69.2746 10.9152 68.4517Z" fill="#FDD201"/>
<path d="M55.876 18.7288C59.265 19.7379 62.2845 21.5144 65.3187 23.4012C68.619 25.4323 71.6323 27.8381 74.6294 30.2911C75.8626 31.2946 76.9208 32.501 77.9951 33.6603C78.9445 34.724 79.8307 35.8185 80.7639 36.9293C81.5883 37.8973 81.616 38.2752 80.8184 39.3689C79.6853 40.9785 78.3802 42.4763 76.9971 43.8946C74.3915 46.4181 72.2387 49.308 69.758 51.9272C69.3607 52.3167 69.0105 52.7224 68.6133 53.1119C67.6129 54.0304 66.8423 53.9756 65.94 52.9281C65.2243 52.1028 64.588 51.1996 63.8723 50.3742C61.7576 47.8041 59.2294 45.6705 56.7336 43.4429C54.9713 41.8361 53.2884 40.1515 51.4467 38.6227C48.6216 36.2816 45.5403 34.3786 42.3797 32.5535C41.6755 32.1531 41.0346 31.7219 40.3304 31.3216C39.6262 30.9212 39.5969 30.7007 40.1222 30.0921C40.9815 29.125 41.8879 28.174 42.7472 27.2069C44.3701 25.3975 46.0401 23.6043 47.8496 22.0171C49.1193 20.9281 50.311 19.7597 51.394 18.4486C51.856 17.8709 52.362 17.6241 53.1456 17.9466C54.0249 18.1441 54.935 18.4048 55.876 18.7288Z" fill="#FDD201"/>
</svg>
