<svg width="22" height="22" viewBox="0 0 22 22" fill="none" xmlns="http://www.w3.org/2000/svg">
<path d="M0.90164 0.90164C2.10383 -0.300547 4.02733 -0.300547 5.22952 0.90164L21.0984 16.7705C22.3006 17.9727 22.3006 19.8962 21.0984 21.0984C19.8962 22.3005 17.9727 22.3005 16.7705 21.0984L0.90164 5.22948C-0.300547 3.78686 -0.300547 2.10383 0.90164 0.90164Z" fill="#438CC4"/>
<path d="M21.0984 0.90164C22.3006 2.10383 22.3006 4.0273 21.0984 5.22948L5.22952 21.0984C4.02733 22.3005 2.10383 22.3005 0.90164 21.0984C-0.300547 19.8962 -0.300547 17.9727 0.90164 16.7705L16.7705 0.90164C17.9727 -0.300547 19.8962 -0.300547 21.0984 0.90164Z" fill="#438CC4"/>
</svg>
