<svg width="50" height="45" viewBox="0 0 50 45" fill="none" xmlns="http://www.w3.org/2000/svg">
<path d="M5.67871 0.370321C5.83351 0.0607242 6.14311 -0.0940693 6.4527 0.0607289C7.45889 0.370325 8.54248 0.679917 9.54866 1.14431C15.431 4.00808 21.3134 6.87185 27.1957 9.81302C27.6601 10.0452 28.047 10.3548 28.5114 10.587C28.2792 14.9214 28.1245 19.1783 27.8923 23.5126C27.8149 25.7572 27.4279 28.0018 26.8861 30.169C26.0347 30.169 25.2607 29.8594 24.4867 29.4724C21.8552 28.3114 19.1462 27.2278 16.4372 26.1442C13.3412 24.9058 10.4001 23.3578 7.3815 21.8873C6.83971 21.6551 6.3753 21.3455 6.4527 20.5715C6.6075 19.0235 6.14311 17.4755 6.06571 16.0049C5.91091 10.7418 6.3753 5.55606 5.67871 0.370321Z" fill="#FDD201"/>
<path d="M26.8867 30.0917C27.4285 27.9245 27.8155 25.68 27.8929 23.4354C28.0477 19.101 28.2799 14.8441 28.5121 10.5098C30.6793 11.2064 32.6143 12.3673 34.6266 13.3735C37.2582 14.7667 39.8123 16.2373 42.4439 17.5531C43.3727 18.0175 43.9145 18.7141 44.3015 19.6428C46.5461 25.1382 47.7845 30.9431 49.1003 36.6706C49.3325 37.5994 49.1002 38.296 48.4037 38.9152C48.2489 38.7604 48.1715 38.6056 47.9393 38.5282C44.0693 36.9028 40.2768 35.2775 36.4068 33.7295C33.3108 32.4911 30.2923 31.1753 27.0415 30.3239C27.0415 30.3239 26.9641 30.1691 26.8867 30.0917Z" fill="#01A0F7"/>
<path d="M26.8864 30.0918C26.9638 30.1692 27.0412 30.324 27.0412 30.4014C25.261 32.4912 23.3261 34.4262 21.7781 36.6708C19.3787 35.8968 17.2115 34.6584 14.8896 33.6522C11.097 31.9494 7.30445 30.1692 3.4345 28.4665C1.88652 27.7699 1.1125 26.6863 0.648106 24.9835C0.0289129 22.3519 0.261148 19.7204 0.10635 17.0888C-0.125847 13.9154 0.106321 10.8195 0.0289224 7.64611C0.0289224 6.25293 0.415908 5.16935 1.4221 4.24056C2.89268 3.00217 3.97627 1.37679 5.67905 0.370605C6.37564 5.55634 5.91124 10.7421 6.06604 16.0052C6.14344 17.5532 6.53044 19.0238 6.45304 20.5718C6.37564 21.2684 6.84004 21.5779 7.38184 21.8875C10.4004 23.3581 13.3416 24.9061 16.4375 26.1445C19.1465 27.2281 21.7781 28.3117 24.4871 29.4727C25.2611 29.7049 26.035 30.0918 26.8864 30.0918Z" fill="#FD9B01"/>
<path d="M21.7002 36.6702C23.2482 34.4256 25.1831 32.4907 26.9633 30.4009C30.2141 31.2523 33.2327 32.5681 36.3286 33.8065C40.1986 35.3544 43.9911 36.9798 47.8611 38.6052C48.0159 38.6826 48.1707 38.8374 48.3255 38.9922C46.8549 40.6176 45.4617 42.243 43.9911 43.8683C43.0623 44.8745 42.0562 45.2615 40.7404 44.7197C34.7807 42.4751 28.8209 40.1532 23.016 37.4442C22.5516 37.3668 22.0098 37.1346 21.7002 36.6702Z" fill="#235F9C"/>
</svg>
