<svg width="143" height="231" viewBox="0 0 143 231" fill="none" xmlns="http://www.w3.org/2000/svg">
<path d="M38.8465 183.158C39.4638 180.945 39.4425 179.309 38.7824 178.25C38.143 177.117 36.7153 176.242 34.4994 175.624L19.5421 171.453L23.0299 158.947L42.8622 164.478C55.1235 167.898 59.7315 175.067 56.6861 185.987L55.2972 190.967C53.6716 196.796 52.8894 202.74 52.9505 208.801C53.1061 214.808 54.2172 221.956 56.2837 230.246L38.1133 225.179C36.7021 218.821 35.8303 212.813 35.4979 207.154L18.5026 219.709L-0.000154091 214.549L37.365 188.471L37.4884 188.028L38.8465 183.158Z" fill="white" fill-opacity="0.1"/>
<path d="M142.381 93.8399L111.928 103.653L71.4489 72.4741C70.5424 75.4222 70.5139 80.4778 71.3634 87.6408L74.6276 115.672L47.2379 124.498L44.2874 94.971C42.7239 79.0077 44.9217 66.2812 50.8809 56.7914L17 30.6578L47.453 20.845L88.1124 51.9655C89.0189 49.0175 89.0474 43.9619 88.1979 36.7989L84.7535 8.82572L112.143 -2.87675e-05L115.274 29.4686C116.799 45.3116 114.541 58.0575 108.5 67.7063L142.381 93.8399Z" fill="white" fill-opacity="0.1"/>
</svg>
