<svg width="70" height="70" viewBox="0 0 70 70" fill="none" xmlns="http://www.w3.org/2000/svg">
<circle cx="35" cy="35" r="35" fill="white"/>
<path d="M12.9999 55.6903L14.3096 57L17.8429 53.4667L16.5332 52.157L12.9999 55.6903Z" fill="#345487"/>
<path d="M13.0137 55.6774L16.547 52.1696L17.8307 53.4794L14.3103 56.9739L13.0137 55.6774Z" fill="#345487"/>
<path d="M16.3369 49.3797L33.1706 29.1576L40.8429 36.8579L20.6104 53.6531L16.3369 49.3797Z" fill="#FEDD3A"/>
<path d="M40.8552 36.8448L20.6085 53.6776L16.3232 49.3923L33.1559 29.1456L40.8552 36.8448ZM40.8552 36.8448L20.6085 53.6777" stroke="#345487" stroke-width="3.5" stroke-linecap="round" stroke-linejoin="round"/>
<path d="M36.3848 16C38.4403 14.7847 40.3105 14 42.7343 14C46.245 14 50.4038 14.5149 52.8848 17C57.1805 21.3038 57.3848 28.5 53.8848 34L36.3848 16Z" fill="#F3A96B"/>
<path d="M45.3911 36.9992L33.0005 24.5943C32.9713 21.4209 34.1567 18.3626 36.346 16L54 33.6958C51.6781 35.8137 48.6712 37 45.5338 37L45.3911 36.9992Z" fill="#345487"/>
<path d="M38.8848 14.692C40.7347 13.5983 42.8679 13 45.0494 13C48.209 13 51.1788 14.2319 53.4116 16.4685C57.2778 20.3419 57.9963 26.3131 55.1636 31L38.8848 14.692Z" fill="#345487"/>
</svg>
