<svg width="271" height="359" viewBox="0 0 271 359" fill="none" xmlns="http://www.w3.org/2000/svg">
<path d="M224.063 358.603L179.799 343.621L159.435 271.826C155.806 274.496 151.374 280.403 146.139 289.545L125.582 325.271L85.7699 311.796L107.997 274.589C120.05 254.501 133.701 241.482 148.948 235.533L131.936 175.397L176.2 190.379L196.826 262.263C200.455 259.593 204.886 253.687 210.122 244.544L230.417 208.729L270.229 222.204L248.264 259.5C236.27 279.414 222.532 292.403 207.051 298.467L224.063 358.603Z" fill="white" fill-opacity="0.1"/>
<path d="M88.33 199.842C82.7921 199.842 80.0231 196.519 77.808 193.75C75.5928 190.981 74.2083 189.596 71.1624 189.596C68.1166 189.596 66.7321 191.258 64.5169 193.75C62.3017 196.519 59.5328 199.842 53.9948 199.842C48.4569 199.842 45.6879 196.519 43.4728 193.75C41.2576 190.981 39.8731 189.596 36.8273 189.596C33.7814 189.596 32.3969 191.258 30.1818 193.75C27.9666 196.519 25.1976 199.842 19.6597 199.842C14.1217 199.842 11.3528 196.519 9.1376 193.75C6.92242 190.981 5.53796 189.596 2.49209 189.596C1.10761 189.596 0 188.489 0 187.104C0 185.72 1.10761 184.612 2.49209 184.612C8.03003 184.612 10.799 187.935 13.0141 190.704C15.2293 193.473 16.6138 194.857 19.6597 194.857C22.7055 194.857 24.09 193.196 26.3052 190.704C28.5203 187.935 31.2893 184.612 36.8273 184.612C42.3652 184.612 45.1342 187.935 47.3493 190.704C49.5645 193.473 50.949 194.857 53.9948 194.857C57.0407 194.857 58.4252 193.196 60.6404 190.704C62.8556 187.935 65.6245 184.612 71.1624 184.612C76.7003 184.612 79.4693 187.935 81.6845 190.704C83.8997 193.473 85.2842 194.857 88.33 194.857C89.7145 194.857 90.8221 195.965 90.8221 197.35C90.8221 198.734 89.7145 199.842 88.33 199.842Z" fill="white"/>
<path d="M88.33 182.674C82.7921 182.674 80.0231 179.351 77.808 176.582C75.5928 173.813 74.2083 172.429 71.1624 172.429C68.1166 172.429 66.7321 174.09 64.5169 176.582C62.3017 179.351 59.5328 182.674 53.9948 182.674C48.4569 182.674 45.6879 179.351 43.4728 176.582C41.2576 173.813 39.8731 172.429 36.8273 172.429C33.7814 172.429 32.3969 174.09 30.1818 176.582C27.9666 179.351 25.1976 182.674 19.6597 182.674C14.1217 182.674 11.3528 179.351 9.1376 176.582C6.92242 173.813 5.53796 172.429 2.49209 172.429C1.10761 172.429 0 171.321 0 169.937C0 168.552 1.10761 167.445 2.49209 167.445C8.03003 167.445 10.799 170.767 13.0141 173.536C15.2293 176.305 16.6138 177.69 19.6597 177.69C22.7055 177.69 24.09 176.029 26.3052 173.536C28.5203 170.767 31.2893 167.445 36.8273 167.445C42.3652 167.445 45.1342 170.767 47.3493 173.536C49.5645 176.305 50.949 177.69 53.9948 177.69C57.0407 177.69 58.4252 176.029 60.6404 173.536C62.8556 170.767 65.6245 167.445 71.1624 167.445C76.7003 167.445 79.4693 170.767 81.6845 173.536C83.8997 176.305 85.2842 177.69 88.33 177.69C89.7145 177.69 90.8221 178.797 90.8221 180.182C90.8221 181.29 89.7145 182.674 88.33 182.674Z" fill="white"/>
<path d="M88.33 165.23C82.7921 165.23 80.0231 161.907 77.808 159.138C75.5928 156.369 74.2083 154.984 71.1624 154.984C68.1166 154.984 66.7321 156.646 64.5169 159.138C62.3017 161.907 59.5328 165.23 53.9948 165.23C48.4569 165.23 45.6879 161.907 43.4728 159.138C41.2576 156.369 39.8731 154.984 36.8273 154.984C33.7814 154.984 32.3969 156.646 30.1818 159.138C27.9666 161.907 25.1976 165.23 19.6597 165.23C14.1217 165.23 11.3528 161.907 9.1376 159.138C6.92242 156.369 5.53796 154.984 2.49209 154.984C1.10761 154.984 0 153.877 0 152.492C0 151.108 1.10761 150 2.49209 150C8.03003 150 10.799 153.323 13.0141 156.092C15.2293 158.861 16.6138 160.245 19.6597 160.245C22.7055 160.245 24.09 158.584 26.3052 156.092C28.5203 153.323 31.2893 150 36.8273 150C42.3652 150 45.1342 153.323 47.3493 156.092C49.5645 158.861 50.949 160.245 53.9948 160.245C57.0407 160.245 58.4252 158.584 60.6404 156.092C62.8556 153.323 65.6245 150 71.1624 150C76.7003 150 79.4693 153.323 81.6845 156.092C83.8997 158.861 85.2842 160.245 88.33 160.245C89.7145 160.245 90.8221 161.353 90.8221 162.738C90.8221 164.122 89.7145 165.23 88.33 165.23Z" fill="white"/>
<path d="M111.995 32.8471C111.304 29.9541 110.228 28.1021 108.766 27.2912C107.405 26.4564 105.274 26.385 102.376 27.0772L76.1355 33.3425L72.0981 16.4332L107.035 8.0914C114.532 6.3013 120.694 6.88614 125.522 9.84593C130.449 12.7818 133.818 18.0407 135.628 25.6224L144.668 63.4813L155.464 60.9035L159.501 77.8128L85.5793 95.4632L81.5419 78.5539L120.677 69.2096L111.995 32.8471Z" fill="white" fill-opacity="0.1"/>
</svg>
