<svg width="70" height="70" viewBox="0 0 70 70" fill="none" xmlns="http://www.w3.org/2000/svg">
<circle cx="35" cy="35" r="35" fill="white"/>
<path d="M58.9277 46.951C43.3416 44.7877 27.588 44.7877 12.002 46.951V16.9984C27.588 19.1617 43.3416 19.1617 58.9277 16.9984V46.951Z" fill="white"/>
<path fill-rule="evenodd" clip-rule="evenodd" d="M11.3428 16.2455C11.5605 16.0559 11.8497 15.9698 12.1357 16.0095C27.6306 18.1601 43.2919 18.1601 58.7869 16.0095C59.0729 15.9698 59.362 16.0559 59.5798 16.2455C59.7975 16.4351 59.9225 16.7097 59.9225 16.9984V46.951C59.9225 47.2397 59.7975 47.5143 59.5798 47.704C59.362 47.8936 59.0729 47.9796 58.7869 47.9399C43.2919 45.7893 27.6306 45.7893 12.1357 47.9399C11.8497 47.9796 11.5605 47.8936 11.3428 47.704C11.125 47.5143 11 47.2397 11 46.951V16.9984C11 16.7097 11.125 16.4351 11.3428 16.2455ZM12.9968 18.1411V45.8083C27.9246 43.8374 42.9979 43.8374 57.9257 45.8083V18.1411C42.9979 20.112 27.9246 20.112 12.9968 18.1411Z" fill="#345487"/>
<path fill-rule="evenodd" clip-rule="evenodd" d="M20.0379 53.6328C21.7242 48.4165 28.0891 44.9541 35.465 44.9541C39.1132 44.9541 42.5272 45.8286 45.2467 47.3357C47.9589 48.8386 50.0444 51.0105 50.8921 53.6328C51.0617 54.1574 50.7739 54.7203 50.2492 54.8899C49.7245 55.0595 49.1617 54.7717 48.9921 54.247C48.3422 52.2365 46.6836 50.4148 44.2789 49.0822C41.8815 47.7538 38.8057 46.9509 35.465 46.9509C28.5302 46.9509 23.2469 50.1979 21.938 54.247C21.7683 54.7717 21.2055 55.0595 20.6808 54.8899C20.1562 54.7203 19.8683 54.1574 20.0379 53.6328Z" fill="#345487"/>
<path d="M29.9727 26.7458V37.3052C29.9727 38.5372 31.5242 39.4171 32.5585 38.7132L41.1779 33.4335C42.2123 32.7295 42.2123 31.3216 41.1779 30.6176L32.5585 25.3379C31.5242 24.458 29.9727 25.3379 29.9727 26.7458Z" fill="#6FCF4D"/>
<path fill-rule="evenodd" clip-rule="evenodd" d="M33.136 24.5226L41.6969 29.7664C41.7105 29.7747 41.7239 29.7834 41.7371 29.7924C43.3537 30.8926 43.3537 33.1588 41.7371 34.259C41.7239 34.268 41.7105 34.2767 41.6969 34.285L33.0953 39.5538C32.203 40.1474 31.1528 40.0298 30.392 39.6091C29.6285 39.1869 28.9717 38.3598 28.9717 37.3054V26.746C28.9717 25.6605 29.5732 24.7632 30.392 24.3104C31.2026 23.8621 32.2728 23.835 33.136 24.5226ZM31.3583 26.0578C31.1428 26.177 30.9685 26.4236 30.9685 26.746V37.3054C30.9685 37.483 31.0874 37.7118 31.3583 37.8616C31.6255 38.0093 31.857 37.9813 31.9942 37.8879C32.0074 37.8789 32.0208 37.8703 32.0344 37.8619L40.6299 32.5969C41.0603 32.291 41.0603 31.7604 40.6299 31.4545L32.0344 26.1895C31.9903 26.1625 31.9484 26.1321 31.909 26.0985C31.7489 25.9624 31.561 25.9458 31.3583 26.0578Z" fill="#345487"/>
</svg>
