<svg width="70" height="70" viewBox="0 0 70 70" fill="none" xmlns="http://www.w3.org/2000/svg">
<circle cx="35" cy="35.0002" r="35" fill="white"/>
<path d="M27.2426 16.1718C27.9928 15.4217 29.0102 15.0002 30.0711 15.0002H44C46.2091 15.0002 48 16.7911 48 19.0002V50.0002C48 52.2094 46.2091 54.0002 44 54.0002H22C19.7909 54.0002 18 52.2094 18 50.0002V27.0713C18 26.0104 18.4214 24.993 19.1716 24.2429L27.2426 16.1718Z" fill="#FFF7B2" stroke="#345487" stroke-width="2"/>
<path d="M27.2929 16.1216C27.9229 15.4916 29 15.9378 29 16.8287V25.0002C29 25.5525 28.5523 26.0002 28 26.0002H19.8284C18.9375 26.0002 18.4914 24.9231 19.1213 24.2931L27.2929 16.1216Z" fill="white" stroke="#345487" stroke-width="2"/>
<path d="M34.2972 50.465L38.3047 54.4724L53.1895 39.5876L49.182 35.5802L34.2972 50.465Z" fill="#FEDD3A"/>
<path d="M55.1939 37.584C55.5735 37.2044 55.7264 36.6293 55.6191 35.9851C55.5117 35.3409 55.1529 34.6805 54.6214 34.1491C54.09 33.6177 53.4296 33.2588 52.7854 33.1514C52.1412 33.0441 51.5661 33.197 51.1865 33.5766L49.7553 35.0078L53.7627 39.0153L55.1939 37.584Z" fill="#F76E5B"/>
<path d="M37.1596 54.4725L34.2971 51.6101L32.2934 56.4762L37.1596 54.4725Z" fill="#FFCEBF"/>
<path d="M33.4052 50.2718L30.3791 57.4127C30.328 57.5315 30.3197 57.671 30.3551 57.8113C30.3906 57.9516 30.4681 58.0856 30.5766 58.1941C30.6852 58.3026 30.8191 58.3801 30.9594 58.4156C31.0997 58.4511 31.2392 58.4427 31.358 58.3917L38.4979 55.3645C38.5637 55.3381 38.6223 55.2997 38.6712 55.2509L55.6474 38.2747C56.2102 37.7119 56.4786 36.9007 56.3934 36.0196C56.3082 35.1385 55.8765 34.2597 55.1933 33.5764C54.51 32.8932 53.6312 32.4615 52.7501 32.3763C51.869 32.2911 51.0578 32.5595 50.495 33.1223L33.5188 50.0985C33.4701 50.1475 33.4317 50.2061 33.4052 50.2718ZM51.5255 34.1527C51.8632 33.8151 52.3499 33.6541 52.8785 33.7052C53.4072 33.7563 53.9345 34.0153 54.3444 34.4252C54.7544 34.8352 55.0134 35.3625 55.0645 35.8912C55.1156 36.4198 54.9546 36.9065 54.617 37.2442L53.3437 38.5174L50.2523 35.426L51.5255 34.1527ZM49.4035 36.2748L52.4949 39.3662L38.0651 53.796L34.9737 50.7046L49.4035 36.2748ZM37.0169 54.4454L32.3441 56.4256L34.3243 51.7528L37.0169 54.4454Z" fill="#345487"/>
<path d="M22.7333 34.0002H43.2667C43.4612 34.0002 43.6477 33.8949 43.7852 33.7074C43.9227 33.5198 44 33.2655 44 33.0002C44 32.735 43.9227 32.4807 43.7852 32.2931C43.6477 32.1056 43.4612 32.0002 43.2667 32.0002H22.7333C22.5388 32.0002 22.3523 32.1056 22.2148 32.2931C22.0773 32.4807 22 32.735 22 33.0002C22 33.2655 22.0773 33.5198 22.2148 33.7074C22.3523 33.8949 22.5388 34.0002 22.7333 34.0002Z" fill="#345487"/>
<path d="M22.4667 39.0002H35.5333C35.6571 39.0002 35.7758 38.8949 35.8633 38.7074C35.9508 38.5198 36 38.2655 36 38.0002C36 37.735 35.9508 37.4807 35.8633 37.2931C35.7758 37.1056 35.6571 37.0002 35.5333 37.0002H22.4667C22.3429 37.0002 22.2242 37.1056 22.1367 37.2931C22.0492 37.4807 22 37.735 22 38.0002C22 38.2655 22.0492 38.5198 22.1367 38.7074C22.2242 38.8949 22.3429 39.0002 22.4667 39.0002Z" fill="#345487"/>
</svg>
