<svg width="70" height="70" viewBox="0 0 70 70" fill="none" xmlns="http://www.w3.org/2000/svg">
<circle cx="35" cy="35" r="35" fill="white"/>
<path d="M18.7217 22.1085H50.4056V57.9498H18.7217V22.1085Z" fill="white"/>
<path d="M51.2628 44.4603H53.9032V55.1465H51.2628V44.4603ZM14.7783 44.4603H17.4186V55.1465H14.7783V44.4603Z" fill="#FEDD3A"/>
<path d="M23.217 40.5719H45.943V57.9308H23.217V40.5719ZM21.46 17.1354H47.3064V29.6169H21.46V17.1354Z" fill="#F76E5B"/>
<path d="M32.1182 25.978H37.2164V34.8015H32.1182V25.978Z" fill="#FEDD3A"/>
<path d="M53.2017 43.0872H51.8479V23.8848C51.8479 23.1209 51.5444 22.3883 51.0043 21.8481C50.4641 21.3079 49.7315 21.0044 48.9675 21.0044V19.4587C48.9675 18.4401 48.5629 17.4633 47.8427 16.743C47.1225 16.0228 46.1456 15.6182 45.1271 15.6182H41.2866C41.2394 14.3769 40.7128 13.2022 39.8176 12.341C38.9224 11.4798 37.7282 10.9991 36.486 11H32.6455C31.4033 10.9991 30.2091 11.4798 29.3139 12.341C28.4187 13.2022 27.8921 14.3769 27.8449 15.6182H24.0044C22.9859 15.6182 22.009 16.0228 21.2888 16.743C20.5686 17.4633 20.164 18.4401 20.164 19.4587V21.0044C19.4 21.0044 18.6674 21.3079 18.1272 21.8481C17.5871 22.3883 17.2836 23.1209 17.2836 23.8848V43.0872H15.9202C15.6681 43.0872 15.4184 43.1368 15.1854 43.2333C14.9524 43.3298 14.7407 43.4713 14.5624 43.6496C14.3841 43.8279 14.2427 44.0396 14.1462 44.2726C14.0497 44.5056 14 44.7553 14 45.0074V54.6086C14 55.1179 14.2023 55.6063 14.5624 55.9664C14.9225 56.3265 15.411 56.5288 15.9202 56.5288H17.2836C17.2836 57.2928 17.5871 58.0254 18.1272 58.5656C18.6674 59.1057 19.4 59.4092 20.164 59.4092H48.9675C49.7315 59.4092 50.4641 59.1057 51.0043 58.5656C51.5444 58.0254 51.8479 57.2928 51.8479 56.5288H53.2017C53.7109 56.5288 54.1994 56.3265 54.5595 55.9664C54.9196 55.6063 55.1219 55.1179 55.1219 54.6086V45.0074C55.1219 44.7553 55.0722 44.5056 54.9757 44.2726C54.8792 44.0396 54.7378 43.8279 54.5595 43.6496C54.3812 43.4713 54.1695 43.3298 53.9365 43.2333C53.7035 43.1368 53.4538 43.0872 53.2017 43.0872ZM17.2836 54.6086H15.9202V45.0074H17.2836V54.6086ZM32.6455 12.9298H36.486C37.2193 12.9284 37.9256 13.2067 38.4608 13.708C38.9961 14.2093 39.3199 14.8959 39.3664 15.6278H29.7652C29.8092 14.8942 30.1321 14.2052 30.6675 13.7019C31.203 13.1985 31.9106 12.9189 32.6455 12.9202V12.9298ZM22.0842 19.4683C22.0842 18.959 22.2865 18.4706 22.6466 18.1104C23.0067 17.7503 23.4952 17.548 24.0044 17.548H45.1271C45.6363 17.548 46.1248 17.7503 46.4849 18.1104C46.845 18.4706 47.0473 18.959 47.0473 19.4683V27.1492C47.0473 27.6585 46.845 28.1469 46.4849 28.507C46.1248 28.8671 45.6363 29.0694 45.1271 29.0694H38.4062V26.4291C38.4062 25.9555 38.2181 25.5013 37.8832 25.1663C37.5483 24.8314 37.094 24.6433 36.6204 24.6433H32.5111C32.0375 24.6433 31.5832 24.8314 31.2483 25.1663C30.9134 25.5013 30.7253 25.9555 30.7253 26.4291V29.0598H24.0044C23.7523 29.0598 23.5026 29.0102 23.2696 28.9137C23.0366 28.8172 22.8249 28.6757 22.6466 28.4974C22.4683 28.3191 22.3269 28.1074 22.2304 27.8744C22.1339 27.6415 22.0842 27.3918 22.0842 27.1396V19.4587V19.4683ZM36.486 26.5731V34.2541H32.6455V26.5731H36.486ZM45.1271 57.4986H24.0044V42.1367C24.0044 41.882 24.1056 41.6378 24.2857 41.4578C24.4657 41.2777 24.7099 41.1765 24.9646 41.1765H44.1669C44.4216 41.1765 44.6658 41.2777 44.8459 41.4578C45.0259 41.6378 45.1271 41.882 45.1271 42.1367V57.4986ZM49.9277 43.0968V56.5385C49.9277 56.7931 49.8265 57.0373 49.6464 57.2174C49.4664 57.3974 49.2222 57.4986 48.9675 57.4986H47.0473V42.1367C47.0473 41.3727 46.7438 40.6401 46.2037 40.0999C45.6635 39.5598 44.9309 39.2563 44.1669 39.2563H24.9646C24.2006 39.2563 23.468 39.5598 22.9278 40.0999C22.3877 40.6401 22.0842 41.3727 22.0842 42.1367V57.4986H20.164C19.9093 57.4986 19.6651 57.3974 19.4851 57.2174C19.305 57.0373 19.2038 56.7931 19.2038 56.5385V23.8944C19.2038 23.7683 19.2287 23.6435 19.2769 23.527C19.3252 23.4105 19.3959 23.3047 19.4851 23.2155C19.5742 23.1263 19.6801 23.0556 19.7965 23.0074C19.913 22.9591 20.0379 22.9343 20.164 22.9343V27.1492C20.164 28.1678 20.5686 29.1446 21.2888 29.8648C22.009 30.5851 22.9859 30.9897 24.0044 30.9897H30.7253V34.3885C30.7253 34.8621 30.9134 35.3164 31.2483 35.6513C31.5832 35.9862 32.0375 36.1743 32.5111 36.1743H36.6204C37.094 36.1743 37.5483 35.9862 37.8832 35.6513C38.2181 35.3164 38.4062 34.8621 38.4062 34.3885V30.9897H45.1271C46.1456 30.9897 47.1225 30.5851 47.8427 29.8648C48.5629 29.1446 48.9675 28.1678 48.9675 27.1492V22.9343C49.2222 22.9343 49.4664 23.0354 49.6464 23.2155C49.8265 23.3956 49.9277 23.6398 49.9277 23.8944V43.0968ZM53.2017 54.6182H51.8479V45.017H53.2017V54.6182Z" fill="#345487"/>
</svg>
