<svg width="1918" height="164" viewBox="0 0 1918 164" fill="none" xmlns="http://www.w3.org/2000/svg">
<mask id="mask0_3298_368" style="mask-type:alpha" maskUnits="userSpaceOnUse" x="0" y="0" width="1918" height="164">
<rect width="1918" height="164" fill="#D9D9D9"/>
</mask>
<g mask="url(#mask0_3298_368)">
<path d="M2327.24 43.0716C2269.03 -38.8077 2159.48 -54.2213 2086.42 3.49057C2039.37 40.7704 1960.56 75.3561 1836.13 58.8815C1597.63 26.7668 1311.46 340.24 1694.81 551.452C2015.48 727.811 2497.01 281.589 2327.24 43.0716Z" fill="#FFF7B2"/>
<path d="M1674.88 259.805C1647.47 145.129 1532.2 80.4914 1424.1 111.503C1354.43 131.596 1250.53 134.887 1119.12 62.5939C867.497 -76.5574 403.938 140.214 735.093 537.853C1012.25 870.131 1754.97 593.954 1674.88 259.805Z" fill="#FFF7B2"/>
<path d="M1305.3 565.136C1312.6 424.108 1202.03 310.843 1067.34 309.898C980.497 309.411 860.01 278.038 733.493 150.518C491.479 -94.4904 -114.458 -2.27731 131.477 566.624C337.488 1042.16 1284.25 976.144 1305.3 565.136Z" fill="#FFF7B2"/>
<path d="M2726.83 1032.73C2819.71 940.372 2814.29 793.659 2722.32 709.103C2662.95 654.665 2599.7 558.048 2592.2 391.606C2578.53 72.4782 2104.7 -241.632 1919.29 302.507C1764.62 757.618 2456.33 1302.05 2726.83 1032.73Z" fill="#FFF7B2"/>
<path d="M649.832 1046.73C742.709 954.372 737.289 807.659 645.323 723.103C585.948 668.666 522.697 572.049 515.199 405.606C501.526 86.4784 27.7004 -227.631 -157.706 316.507C-312.382 771.618 379.329 1316.05 649.832 1046.73Z" fill="#FFF7B2"/>
</g>
</svg>
