<svg width="63" height="63" viewBox="0 0 63 63" fill="none" xmlns="http://www.w3.org/2000/svg">
<circle cx="31.5" cy="31.5" r="31.5" fill="#DB6FC3"/>
<circle cx="30" cy="30" r="30" fill="#FC8EE4"/>
<path fill-rule="evenodd" clip-rule="evenodd" d="M23.6849 14.2025C20.9989 14.3237 18.6708 14.9804 16.791 16.8523C14.9045 18.7341 14.256 21.0714 14.1345 23.7294C14.059 25.3885 13.6173 37.9221 14.898 41.2091C15.7615 43.4266 17.4624 45.1316 19.7002 45.9979C20.7444 46.4041 21.9364 46.679 23.6849 46.7593C38.3052 47.4209 43.7248 47.0607 46.0102 41.2091C46.4157 40.1675 46.6948 38.9765 46.772 37.2323C47.4402 22.5745 46.6636 19.3974 44.1156 16.8523C42.0945 14.8363 39.7171 13.4639 23.6849 14.2025ZM23.8195 43.8114C22.2187 43.7393 21.3502 43.4726 20.7707 43.2482C19.3127 42.6815 18.2177 41.591 17.6545 40.1416C16.6793 37.644 17.0027 25.7818 17.0898 23.8624C17.1751 21.9822 17.556 20.2639 18.8826 18.9374C20.5244 17.2996 22.6456 16.497 37.0886 17.1488C38.9734 17.234 40.6957 17.6141 42.0255 18.9374C43.6673 20.5751 44.4817 22.7126 43.8184 37.1002C43.7461 38.697 43.4785 39.5634 43.2536 40.1416C41.7678 43.9493 38.3495 44.4779 23.8195 43.8114ZM37.2479 21.7379C37.2479 22.822 38.1295 23.7037 39.218 23.7037C40.3066 23.7037 41.1899 22.822 41.1899 21.7379C41.1899 20.6537 40.3066 19.7728 39.218 19.7728C38.1295 19.7728 37.2479 20.6537 37.2479 21.7379ZM22.0234 30.4801C22.0234 35.1247 25.7979 38.8904 30.4541 38.8904C35.1102 38.8904 38.8848 35.1247 38.8848 30.4801C38.8848 25.8354 35.1102 22.0722 30.4541 22.0722C25.7979 22.0722 22.0234 25.8354 22.0234 30.4801ZM24.9819 30.4801C24.9819 27.4666 27.4315 25.0217 30.4541 25.0217C33.4766 25.0217 35.9262 27.4666 35.9262 30.4801C35.9262 33.4952 33.4766 35.9409 30.4541 35.9409C27.4315 35.9409 24.9819 33.4952 24.9819 30.4801Z" fill="white"/>
</svg>
