<svg width="212" height="70" viewBox="0 0 212 70" fill="none" xmlns="http://www.w3.org/2000/svg">
<circle cx="179.157" cy="35.6891" r="31.9103" fill="#FABC14"/>
<path d="M186.152 12.2836L186.38 11.3017C186.38 11.1926 186.38 11.1926 186.38 11.1926L185.696 10.538C185.582 10.4289 185.696 10.2108 185.81 10.2108L186.836 10.1017C186.95 10.1017 186.95 10.1017 186.95 9.99256L187.52 9.11979C187.634 9.01069 187.748 9.01069 187.862 9.11979L188.204 9.99256L188.318 10.1017L189.344 10.2108C189.459 10.2108 189.573 10.4289 189.458 10.538L188.66 11.1926L188.546 11.3017L188.66 12.2836C188.66 12.3927 188.546 12.5018 188.318 12.5018L187.52 12.0654C187.52 12.0654 187.406 12.0654 187.292 12.0654L186.38 12.5018C186.266 12.6109 186.152 12.5018 186.152 12.2836Z" fill="#0761A6"/>
<path d="M171.644 13.3557L171.554 11.9246C171.509 11.7761 171.509 11.7761 171.509 11.7761L170.3 11.1692C170.098 11.0681 170.165 10.7238 170.322 10.6764L171.688 10.1019C171.845 10.0545 171.845 10.0545 171.8 9.90602L172.225 8.4814C172.337 8.28556 172.494 8.23822 172.695 8.33937L173.524 9.38527L173.726 9.48642L175.182 9.20885C175.338 9.16151 175.585 9.41115 175.473 9.60698L174.645 10.8293L174.533 11.0252L175.093 12.3142C175.138 12.4627 175.026 12.6586 174.712 12.7532L173.436 12.4907C173.436 12.4907 173.279 12.538 173.122 12.5853L172.047 13.558C171.936 13.7539 171.734 13.6527 171.644 13.3557Z" fill="#0761A6"/>
<path d="M188.302 16.9942L188.639 16.2605C188.656 16.1749 188.656 16.1749 188.656 16.1749L188.21 15.5516C188.135 15.4478 188.261 15.2949 188.353 15.3132L189.193 15.3923C189.285 15.4106 189.285 15.4106 189.302 15.325L189.896 14.7318C190.005 14.6645 190.096 14.6828 190.17 14.7867L190.308 15.5263L190.382 15.6301L191.189 15.8804C191.28 15.8987 191.337 16.0881 191.229 16.1554L190.486 16.5408L190.377 16.6081L190.314 17.3967C190.297 17.4823 190.189 17.5495 190.006 17.513L189.434 17.0426C189.434 17.0426 189.342 17.0243 189.251 17.006L188.451 17.2019C188.342 17.2692 188.268 17.1653 188.302 16.9942Z" fill="#0761A6"/>
<path d="M162.521 18.2359L162.858 17.5022C162.875 17.4166 162.875 17.4166 162.875 17.4166L162.429 16.7933C162.354 16.6895 162.48 16.5366 162.571 16.5549L163.412 16.634C163.503 16.6523 163.503 16.6523 163.52 16.5667L164.115 15.9735C164.223 15.9062 164.315 15.9245 164.389 16.0284L164.527 16.768L164.601 16.8718L165.407 17.1221C165.499 17.1404 165.556 17.3298 165.447 17.3971L164.704 17.7825L164.596 17.8498L164.533 18.6384C164.516 18.724 164.407 18.7912 164.224 18.7547L163.653 18.2843C163.653 18.2843 163.561 18.266 163.47 18.2477L162.669 18.4436C162.561 18.5109 162.486 18.407 162.521 18.2359Z" fill="#0761A6"/>
<path d="M201.809 25.7802L202.146 25.0465C202.163 24.9609 202.163 24.9609 202.163 24.9609L201.717 24.3377C201.642 24.2338 201.768 24.0809 201.859 24.0992L202.7 24.1783C202.791 24.1966 202.791 24.1966 202.808 24.111L203.403 23.5178C203.511 23.4505 203.603 23.4688 203.677 23.5727L203.815 24.3123L203.889 24.4161L204.695 24.6664C204.787 24.6847 204.844 24.8742 204.735 24.9414L203.992 25.3269L203.884 25.3942L203.821 26.1827C203.804 26.2683 203.696 26.3356 203.513 26.299L202.941 25.8286C202.941 25.8286 202.849 25.8103 202.758 25.792L201.957 25.9879C201.849 26.0552 201.774 25.9513 201.809 25.7802Z" fill="#0761A6"/>
<path d="M152.424 26.3938L152.761 25.6602C152.778 25.5746 152.778 25.5746 152.778 25.5746L152.332 24.9513C152.257 24.8474 152.383 24.6946 152.475 24.7129L153.315 24.7919C153.407 24.8102 153.407 24.8102 153.424 24.7247L154.018 24.1315C154.127 24.0642 154.218 24.0825 154.293 24.1864L154.43 24.9259L154.504 25.0298L155.311 25.28C155.402 25.2983 155.459 25.4878 155.351 25.5551L154.608 25.9405L154.499 26.0078L154.436 26.7963C154.419 26.8819 154.311 26.9492 154.128 26.9126L153.556 26.4422C153.556 26.4422 153.464 26.4239 153.373 26.4056L152.573 26.6016C152.464 26.6689 152.39 26.565 152.424 26.3938Z" fill="#0761A6"/>
<path opacity="0.55" d="M179.308 69.9999C193.433 69.9999 204.883 68.9144 204.883 67.5754C204.883 66.2364 193.433 65.1509 179.308 65.1509C165.184 65.1509 153.733 66.2364 153.733 67.5754C153.733 68.9144 165.184 69.9999 179.308 69.9999Z" fill="#50483E"/>
<path fill-rule="evenodd" clip-rule="evenodd" d="M178.525 40.8291H165.072L158.894 44.0357C158.737 44.1139 158.581 44.2703 158.581 44.505V68.1244C158.581 68.4372 158.816 68.6718 159.129 68.6718H178.525H197.921C198.233 68.6718 198.468 68.4372 198.468 68.1244V44.505C198.468 44.2703 198.39 44.1139 198.155 44.0357L191.977 40.8291H178.525Z" fill="#EFEFEF"/>
<path d="M182.751 43.9576H174.383V44.6615H182.751V43.9576Z" fill="#AA1F23"/>
<path fill-rule="evenodd" clip-rule="evenodd" d="M178.525 40.9858V43.9578H159.989L165.542 40.9858H178.525Z" fill="#9A9B9B"/>
<path fill-rule="evenodd" clip-rule="evenodd" d="M178.529 40.9858V43.9578H197.065L191.59 40.9858H178.529Z" fill="#9A9B9B"/>
<path fill-rule="evenodd" clip-rule="evenodd" d="M165.548 40.9858H178.531H191.592V43.9578H178.531H165.548V40.9858Z" fill="#CCCCCC"/>
<path d="M182.751 44.2697H174.383V68.5929H182.751V44.2697Z" fill="#D81F26"/>
<path opacity="0.56" d="M158.662 51.4652V68.1239C158.662 68.4368 158.897 68.6714 159.21 68.6714H178.606H197.923C198.236 68.6714 198.471 68.4368 198.471 68.1239V58.7387C186.036 69.2971 164.919 62.0235 158.662 51.4652Z" fill="#CBCBCB"/>
<path d="M171.722 21.1251C169.688 22.2982 172.973 25.9741 174.928 26.7562C173.99 26.7562 172.895 26.7562 172.895 26.7562C172.895 26.7562 166.716 23.7842 168.906 20.734C169.688 20.4994 171.722 21.1251 171.722 21.1251Z" fill="#8D191C"/>
<path d="M177.826 27.1462C178.217 24.3307 175.636 19.247 171.491 18.856C169.222 18.9342 168.519 21.6715 168.519 21.6715C168.519 21.6715 173.915 20.2637 176.809 26.9898C177.356 27.3026 177.826 27.1462 177.826 27.1462Z" fill="#D81F26"/>
<path d="M184.473 21.1251C186.507 22.2982 183.222 25.9741 181.267 26.7562C182.205 26.7562 183.3 26.7562 183.3 26.7562C183.3 26.7562 189.479 23.7842 187.289 20.734C186.507 20.4994 184.473 21.1251 184.473 21.1251Z" fill="#8D191C"/>
<path d="M178.373 27.1462C177.982 24.3307 180.563 19.247 184.708 18.856C186.976 18.9342 187.68 21.6715 187.68 21.6715C187.68 21.6715 182.283 20.2637 179.39 26.9898C178.842 27.3026 178.373 27.1462 178.373 27.1462Z" fill="#D81F26"/>
<path fill-rule="evenodd" clip-rule="evenodd" d="M178.524 37.0795H163.742L157.564 33.8729C157.407 33.7947 157.251 33.6383 157.251 33.4036V26.6776C157.251 26.3648 157.486 26.1301 157.798 26.1301H178.524H199.25C199.562 26.1301 199.797 26.3648 199.797 26.6776V33.4036C199.797 33.6383 199.719 33.7947 199.484 33.8729L193.306 37.0795H178.524Z" fill="#EDEDED"/>
<path fill-rule="evenodd" clip-rule="evenodd" d="M199.797 33.4832C199.797 33.7178 199.719 33.8742 199.484 33.9524L193.306 37.159H178.524H163.742L157.564 33.9524C157.407 33.8742 157.251 33.7178 157.251 33.4832H199.797Z" fill="#DFDEDE"/>
<path fill-rule="evenodd" clip-rule="evenodd" d="M178.525 37.0022V34.0303H158.66L164.213 37.0022H178.525Z" fill="#9A9B9B"/>
<path fill-rule="evenodd" clip-rule="evenodd" d="M178.529 37.0022V34.0303H198.395L192.92 37.0022H178.529Z" fill="#9A9B9B"/>
<path d="M178.525 36.533H164.291V36.6894H178.525V36.533Z" fill="#2B2A29"/>
<path fill-rule="evenodd" clip-rule="evenodd" d="M192.92 37.0022H178.529H164.217V34.0303H178.529H192.92V37.0022Z" fill="#CCCCCC"/>
<path fill-rule="evenodd" clip-rule="evenodd" d="M174.381 26.209H178.526H182.749V34.03H174.381V26.209Z" fill="#D81F26"/>
<path fill-rule="evenodd" clip-rule="evenodd" d="M174.381 33.4832H178.526H182.749V34.0306H174.381V33.4832Z" fill="#AC1F23"/>
<path d="M193.241 19.1956L200.343 6.76168L203.494 8.28232L193.241 19.1956Z" fill="#27AAE1"/>
<path d="M196.66 22.6469L208.537 20.3329L205.925 17.9231L196.66 22.6469Z" fill="#7A499D"/>
<path d="M199.609 37.4625L208.297 38.1512L207.393 36.7492L199.609 37.4625Z" fill="#EC008C"/>
<path d="M200.348 39.8416L206.638 46.3339L207.904 43.7723L200.348 39.8416Z" fill="#39B54A"/>
<path d="M169.394 16.2287L161.624 5.7327L158.913 7.45594L169.394 16.2287Z" fill="#7A499D"/>
<path d="M162.331 21.0598L150.484 18.3529L153.227 16.0639L162.331 21.0598Z" fill="#39B54A"/>
<path d="M179.554 19.0635L177.372 -8.53766e-05L181.602 2.75971L179.554 19.0635Z" fill="#EC008C"/>
<path d="M157.699 37.4L149.66 38.5326L150.481 37.0139L157.699 37.4Z" fill="#27AAE1"/>
<path d="M159.547 40.3984L153.638 47.1625L152.522 44.47L159.547 40.3984Z" fill="#39B54A"/>
<path d="M95.084 18.5135L94.3629 37.3835H91.1177L90.2764 18.5135H95.084Z" fill="#0761A6"/>
<path d="M103.019 18.5135L102.418 33.4172H99.0523L98.2109 18.5135H103.019Z" fill="#0761A6"/>
<path d="M110.343 18.5135L109.622 27.0471H106.256L105.295 18.5135H110.343Z" fill="#0761A6"/>
<path d="M127.779 26.2061C127.779 28.6099 127.298 30.4127 126.336 31.7348C125.375 33.0569 123.933 33.7781 122.13 33.7781C121.168 33.7781 120.447 33.6579 119.846 33.2973V28.6099C120.327 28.9704 120.808 29.0906 121.409 29.0906C122.13 29.0906 122.851 28.8503 123.332 28.3695C123.933 27.8887 124.173 27.1676 124.173 26.3262C124.173 25.3647 123.933 24.6436 123.452 24.1628C122.971 23.682 122.25 23.3215 121.409 23.3215C120.567 23.3215 119.966 23.5619 119.365 24.0426C118.885 24.5234 118.644 25.2445 118.524 25.9657L117.923 33.5377H114.558L114.197 25.4849C114.197 24.283 113.716 23.682 112.875 23.4417V18.634C113.115 18.634 113.476 18.634 113.716 18.634C115.88 18.634 117.202 19.5956 117.803 21.3984C117.803 21.3984 117.803 21.5186 117.923 21.5186C117.923 21.5186 118.043 21.5186 118.043 21.3984C118.885 19.5956 120.327 18.634 122.37 18.634C124.173 18.634 125.495 19.1148 126.336 20.1965C127.298 21.2782 127.779 23.3215 127.779 26.2061Z" fill="#0761A6"/>
<path d="M141.237 23.3212H139.795L139.194 33.5374H135.829L135.108 23.3212H129.819V18.5135H141.117V23.3212H141.237Z" fill="#0761A6"/>
<path d="M12.4998 34.0186H11.4181C10.5768 32.8167 9.61527 31.4946 8.41336 30.0523C6.97107 28.3696 5.64897 27.1677 4.56725 26.5668L3.8461 33.658H0.480756L0 18.7543L1.08171 18.6342C1.68267 18.7543 2.64419 19.3553 4.08648 20.437C5.40858 21.3985 6.49031 22.1197 7.21145 22.8408C7.09126 21.5187 7.33164 20.6774 7.81241 20.0764C8.41336 19.2351 9.37489 18.7543 10.8172 18.7543C11.4181 18.7543 11.8989 18.8745 12.2595 19.1149V24.0427C11.8989 23.9226 11.5383 23.8024 11.1777 23.8024C10.096 23.8024 9.61527 24.0427 9.61527 24.6437C9.61527 25.0043 9.73546 25.2447 10.096 25.6052C11.1777 26.6869 12.0191 27.7687 12.7402 28.9706V34.0186H12.4998Z" fill="#0761A6"/>
<path d="M29.5659 23.562C29.5659 25.3648 29.2053 27.1677 28.4842 29.0908C27.1621 32.3359 25.1189 33.8984 22.3545 33.8984C20.6718 33.8984 19.3497 33.5378 18.3882 32.9369C17.3065 32.0955 16.5853 30.7734 16.2247 28.8504L14.4219 18.9947C15.8642 18.7543 18.5084 18.6342 22.3545 18.6342C24.7583 18.6342 26.441 18.8745 27.4025 19.4755C28.8448 20.0764 29.5659 21.5187 29.5659 23.562ZM25.7198 25.8456C25.7198 24.1629 24.5179 23.3216 22.1141 23.3216C20.9122 23.3216 19.8305 23.4418 19.1093 23.562L19.5901 26.3264C19.8305 28.1292 20.792 29.0908 22.5948 29.0908C23.5564 29.0908 24.2775 28.7302 24.8785 28.1292C25.3592 27.5283 25.7198 26.8071 25.7198 25.8456Z" fill="#0761A6"/>
<path d="M44.8329 26.0856C44.8329 28.6096 44.3522 30.4124 43.2705 31.7345C42.1887 33.0566 40.7464 33.6576 38.8234 33.6576H32.6937V28.85H38.1022C38.9436 28.85 39.6647 28.6096 40.2657 28.1288C40.8666 27.6481 41.107 26.9269 41.107 26.0856C41.107 25.2442 40.8666 24.5231 40.3859 24.0423C39.7849 23.4414 39.0638 23.201 38.1022 23.201C37.7417 23.201 37.3811 23.201 37.0205 23.3212L36.5398 26.5663H32.934L32.2129 18.9943C33.4148 18.6337 34.8571 18.5135 36.9003 18.5135C39.7849 18.5135 41.8282 18.9943 42.9099 20.076C44.232 21.2779 44.8329 23.3212 44.8329 26.0856Z" fill="#0761A6"/>
<path d="M52.4043 18.6342L51.8034 33.5378H48.438L47.5967 18.6342H52.4043Z" fill="#0761A6"/>
<path d="M69.3494 18.7544L67.9072 28.9706C67.6668 30.7735 66.9456 32.0956 65.8639 32.9369C64.9024 33.5379 63.5803 33.8984 61.7774 33.8984V29.0908C62.3784 29.0908 62.9793 28.9706 63.3399 28.61C63.7005 28.2495 63.9408 27.7687 63.9408 27.2879L64.1812 23.6822H55.2871V18.8746H69.3494V18.7544ZM60.4553 25.7255L59.614 41.4112H56.3688L55.6477 25.7255H60.4553Z" fill="#0761A6"/>
<path d="M82.6923 33.6576H71.8751V28.85H78.0048L77.524 25.4846C77.2837 24.1625 76.3221 23.4414 74.3991 23.4414C73.3174 23.4414 72.476 23.4414 71.7549 23.5616V18.6337C73.1972 18.5136 74.5193 18.5135 75.7212 18.5135C77.7644 18.5135 79.2067 18.8741 80.1682 19.7155C81.1298 20.5568 81.6105 21.8789 81.6105 23.6818C81.6105 23.9221 81.6105 24.2827 81.6105 24.5231L81.3702 28.7298H82.6923V33.6576Z" fill="#0761A6"/>
<path d="M2.85742 46.6625L3.69968 43.6216H5.18664L3.98043 46.6625H2.85742Z" fill="#0761A6"/>
<path d="M7.51807 49.6348L7.20327 51.4265H5.78163L6.20812 49.3775C6.32998 48.8099 6.44168 48.4058 6.54322 48.1649C6.64477 47.9207 6.77001 47.7277 6.91894 47.5858C7.07126 47.4406 7.28113 47.312 7.54853 47.1998L6.08119 45.2844H7.74655L9.80286 48.061C10.0161 47.8729 10.1786 47.6518 10.2903 47.3978C10.402 47.1437 10.4815 46.8005 10.5289 46.3683L10.6355 45.2844H12.0369L11.915 46.4574C11.8778 46.7906 11.8101 47.0859 11.7119 47.3433C11.6442 47.5182 11.5613 47.6832 11.4631 47.8382C11.365 47.99 11.2364 48.1517 11.0773 48.3233C10.9216 48.4915 10.7151 48.6879 10.4578 48.9122L12.3517 51.4265H10.6965L8.16289 48.0016C7.98349 48.1039 7.85486 48.2523 7.77701 48.447C7.73978 48.546 7.69916 48.6945 7.65516 48.8924C7.61115 49.0904 7.56546 49.3379 7.51807 49.6348Z" fill="#0761A6"/>
<path d="M21.6279 47.8679V51.4265H20.252V47.858C20.252 47.3532 20.142 46.9985 19.922 46.7939C19.7019 46.5861 19.3194 46.4821 18.7745 46.4821H16.2003V45.2844H18.8608C19.5276 45.2844 20.0624 45.3718 20.4652 45.5467C20.8714 45.7216 21.1659 45.9988 21.3487 46.3782C21.5349 46.7543 21.6279 47.2509 21.6279 47.8679ZM17.6727 47.6947V51.4265H16.3018V47.6947H17.6727Z" fill="#0761A6"/>
<path d="M24.9587 50.4465C24.8233 50.7864 24.6151 51.0355 24.3341 51.1939C24.0532 51.3489 23.6453 51.4265 23.1105 51.4265H22.7653V50.2287H22.8516C23.0851 50.2287 23.2713 50.1859 23.4101 50.1001C23.5455 50.0143 23.6419 49.8839 23.6995 49.7091C23.757 49.5309 23.7858 49.262 23.7858 48.9023V46.4821H22.8211V45.2844H26.3549C27.3298 45.2844 28.0287 45.4857 28.4519 45.8882C28.8783 46.2875 29.0916 46.9507 29.0916 47.8778V51.4265H27.7156V47.8976C27.7156 47.3697 27.6056 47.0018 27.3856 46.7939C27.1656 46.5861 26.795 46.4821 26.2737 46.4821H25.1567V49.0756C25.1567 49.6464 25.0907 50.1034 24.9587 50.4465Z" fill="#0761A6"/>
<path d="M31.9603 45.2844V48.546H30.5894V45.2844H31.9603Z" fill="#0761A6"/>
<path d="M38.2358 48.4767C38.2358 50.4432 37.2068 51.4265 35.1488 51.4265H33.4632V50.2287H35.0727C35.6786 50.2287 36.1271 50.0803 36.4182 49.7833C36.7093 49.4864 36.8548 49.0343 36.8548 48.4272V48.2936C36.8548 47.6766 36.7093 47.2212 36.4182 46.9276C36.1271 46.6306 35.6853 46.4821 35.093 46.4821H33.4632V45.2844H35.2199C37.2305 45.2844 38.2358 46.2644 38.2358 48.2243V48.4767Z" fill="#0761A6"/>
<path d="M39.5813 50.2832C40.4072 50.0192 41.0741 49.686 41.5818 49.2834C41.9338 49.0096 42.2029 48.711 42.3891 48.3876C42.5753 48.061 42.6683 47.7195 42.6683 47.3631C42.6683 46.7758 42.2909 46.4821 41.5361 46.4821H38.9568V43.1859H40.3582V45.2844H41.7646C43.2878 45.2844 44.0494 45.9328 44.0494 47.2295C44.0494 47.8498 43.8987 48.4305 43.5975 48.9716C43.2996 49.5094 42.8731 49.9895 42.318 50.4119C41.5869 50.9662 40.6747 51.4017 39.5813 51.7185V50.2832Z" fill="#0761A6"/>
<path d="M53.8486 47.8679V51.4265H52.4726V47.858C52.4726 47.3532 52.3626 46.9985 52.1426 46.7939C51.9226 46.5861 51.5401 46.4821 50.9951 46.4821H48.4209V45.2844H51.0815C51.7483 45.2844 52.2831 45.3718 52.6859 45.5467C53.0921 45.7216 53.3866 45.9988 53.5693 46.3782C53.7555 46.7543 53.8486 47.2509 53.8486 47.8679ZM49.8934 47.6947V51.4265H48.5225V47.6947H49.8934Z" fill="#0761A6"/>
<path d="M58.3268 47.7046V51.4265H55.0418V50.2287H56.9559V47.962C56.9559 47.5165 56.9255 47.1981 56.8645 47.0068C56.8036 46.8187 56.7021 46.6851 56.5599 46.6059C56.4177 46.5234 56.2096 46.4821 55.9354 46.4821H55.3312V45.2844H56.1943C56.7765 45.2844 57.2115 45.3603 57.4992 45.5121C57.7869 45.6639 57.9968 45.913 58.1288 46.2594C58.2608 46.6059 58.3268 47.0876 58.3268 47.7046Z" fill="#0761A6"/>
<path d="M64.3434 48.4767C64.3434 50.4432 63.3144 51.4265 61.2564 51.4265H59.5707V50.2287H61.1802C61.7861 50.2287 62.2346 50.0803 62.5257 49.7833C62.8168 49.4864 62.9624 49.0343 62.9624 48.4272V48.2936C62.9624 47.6766 62.8168 47.2212 62.5257 46.9276C62.2346 46.6306 61.7929 46.4821 61.2006 46.4821H59.5707V45.2844H61.3275C63.3381 45.2844 64.3434 46.2644 64.3434 48.2243V48.4767Z" fill="#0761A6"/>
<path d="M71.1216 47.8679V51.4265H69.7457V47.858C69.7457 47.3532 69.6357 46.9985 69.4157 46.7939C69.1956 46.5861 68.8131 46.4821 68.2682 46.4821H65.694V45.2844H68.3545C69.0213 45.2844 69.5561 45.3718 69.9589 45.5467C70.3651 45.7216 70.6596 45.9988 70.8424 46.3782C71.0286 46.7543 71.1216 47.2509 71.1216 47.8679ZM67.1664 47.6947V51.4265H65.7955V47.6947H67.1664Z" fill="#0761A6"/>
<path d="M75.4259 49.0546V47.9194H78.7222V49.0546H75.4259Z" fill="#0761A6"/>
<path d="M84.4496 45.2844V48.546H83.0787V45.2844H84.4496Z" fill="#0761A6"/>
<path d="M86.313 50.2832C87.1389 50.0192 87.8057 49.686 88.3134 49.2834C88.6655 49.0096 88.9346 48.711 89.1207 48.3876C89.3069 48.061 89.4 47.7195 89.4 47.3631C89.4 46.7758 89.0226 46.4821 88.2677 46.4821H85.6885V43.1859H87.0898V45.2844H88.4962C90.0194 45.2844 90.781 45.9328 90.781 47.2295C90.781 47.8498 90.6304 48.4305 90.3291 48.9716C90.0313 49.5094 89.6048 49.9895 89.0497 50.4119C88.3185 50.9662 87.4063 51.4017 86.313 51.7185V50.2832Z" fill="#0761A6"/>
<path d="M94.8378 51.5255C93.9036 51.5255 93.2164 51.3143 92.7764 50.8919C92.3364 50.4663 92.1163 49.813 92.1163 48.932V45.2844H93.4872V48.9023C93.4872 49.394 93.5955 49.7536 93.8122 49.9813C94.0288 50.2089 94.3741 50.3228 94.8479 50.3228C95.1932 50.3228 95.486 50.2584 95.7263 50.1298C95.9667 49.9978 96.1494 49.7701 96.2747 49.4468C96.3999 49.1201 96.4625 48.6681 96.4625 48.0907C96.4625 47.5198 96.3965 47.0942 96.2645 46.8137C96.1325 46.53 95.9142 46.3881 95.6095 46.3881C95.3151 46.3881 95.007 46.4821 94.6855 46.6702V45.4576C95.0037 45.2729 95.3878 45.1805 95.838 45.1805C96.5624 45.1805 97.082 45.4114 97.3968 45.8734C97.7149 46.332 97.874 47.0678 97.874 48.0808C97.874 49.2752 97.6303 50.1479 97.1429 50.6989C96.6589 51.2499 95.8905 51.5255 94.8378 51.5255Z" fill="#0761A6"/>
<path d="M100.697 45.2844V48.546H99.3261V45.2844H100.697Z" fill="#0761A6"/>
<path d="M103.266 45.2844C103.567 45.2844 103.818 45.3075 104.018 45.3537C104.221 45.3999 104.39 45.4807 104.525 45.5962C104.664 45.7084 104.784 45.8635 104.886 46.0614C104.964 46.2099 105.045 46.4178 105.13 46.6851C105.214 46.949 105.304 47.2724 105.399 47.6551L106.292 51.4265H104.926L104.419 49.2191C104.172 49.2818 103.997 49.3659 103.896 49.4715C103.794 49.5771 103.708 49.7437 103.637 49.9714C103.623 50.0176 103.601 50.0984 103.571 50.2139C103.544 50.3261 103.51 50.4713 103.469 50.6494L103.297 51.4265H101.9L102.109 50.5356C102.169 50.2617 102.23 50.0258 102.291 49.8279C102.352 49.6266 102.415 49.4616 102.479 49.3329C102.604 49.0756 102.765 48.871 102.962 48.7192C103.161 48.5641 103.435 48.4355 103.784 48.3332L104.19 48.2144C104.143 47.9933 104.095 47.7953 104.048 47.6205C104.001 47.4456 103.957 47.2955 103.916 47.1701C103.831 46.916 103.733 46.7378 103.622 46.6356C103.51 46.5333 103.329 46.4821 103.078 46.4821H102.393V45.2844H103.266Z" fill="#0761A6"/>
<path d="M108.607 45.2844V48.546H107.237V45.2844H108.607Z" fill="#0761A6"/>
<path d="M114.695 46.4821V51.4265H113.324V46.4821H109.912V45.2844H115.477V46.4821H114.695Z" fill="#0761A6"/>
<path d="M119.316 48.3233C119.316 48.1055 119.338 47.8795 119.382 47.6452C119.429 47.4077 119.493 47.1866 119.574 46.982C119.656 46.7741 119.751 46.6075 119.859 46.4821H118.899V45.2844H122.423C123.442 45.2844 124.18 45.4939 124.637 45.913C125.097 46.332 125.327 47.0068 125.327 47.9372V48.3332C125.327 49.3857 125.066 50.1809 124.545 50.7187C124.024 51.2565 123.256 51.5255 122.24 51.5255C121.245 51.5255 120.509 51.273 120.031 50.7682C119.554 50.2601 119.316 49.4963 119.316 48.4767V48.3233ZM121.052 46.4821C120.846 46.8319 120.742 47.4192 120.742 48.2441V48.4668C120.742 49.0871 120.869 49.554 121.123 49.8674C121.377 50.1776 121.759 50.3327 122.271 50.3327C122.839 50.3327 123.25 50.1727 123.504 49.8526C123.762 49.5325 123.89 49.0129 123.89 48.2936V47.9273C123.89 47.4126 123.767 47.0431 123.52 46.8187C123.276 46.5943 122.876 46.4821 122.321 46.4821H121.052Z" fill="#0761A6"/>
<path d="M130.745 47.8679V51.4265H129.369V47.858C129.369 47.3466 129.255 46.9903 129.028 46.789C128.805 46.5844 128.428 46.4821 127.896 46.4821H125.784V45.2844H127.977C128.644 45.2844 129.179 45.3718 129.582 45.5467C129.988 45.7183 130.283 45.9938 130.465 46.3733C130.652 46.7494 130.745 47.2476 130.745 47.8679Z" fill="#0761A6"/>
<path d="M134.146 45.2844V51.4265H132.776V45.2844H134.146Z" fill="#0761A6"/>
<path d="M141.26 47.3235C141.26 47.9504 141.129 48.5361 140.869 49.0805C140.608 49.6249 140.226 50.1133 139.721 50.5455C139.22 50.9777 138.606 51.339 137.878 51.6294V50.2089C138.515 49.9186 139.005 49.5325 139.351 49.0508C139.699 48.5658 139.874 48.0428 139.874 47.4819C139.874 47.1123 139.779 46.8533 139.589 46.7049C139.4 46.5564 139.068 46.4821 138.594 46.4821H135.654V45.2844H138.792C139.652 45.2844 140.278 45.4444 140.671 45.7645C141.063 46.0812 141.26 46.6009 141.26 47.3235ZM137.284 47.6551V53.3319H135.913V47.6551H137.284Z" fill="#0761A6"/>
</svg>
