<svg width="63" height="63" viewBox="0 0 63 63" fill="none" xmlns="http://www.w3.org/2000/svg">
<circle cx="31.5" cy="31.5" r="31.5" fill="#D1803B"/>
<circle cx="30" cy="30" r="30" fill="#F3A96B"/>
<path d="M45.6684 40.1827V19.8172C45.6684 19.3486 45.4785 18.9243 45.1713 18.6172L44.8199 18.9687L32.7943 30.9942C31.4689 32.3196 29.3196 32.3196 27.9942 30.9942L15.9687 18.9687L15.6172 18.6172C15.3101 18.9243 15.1201 19.3486 15.1201 19.8172V40.1827C15.1201 41.1201 15.88 41.8799 16.8172 41.8799H43.9713C44.9086 41.8799 45.6684 41.1201 45.6684 40.1827Z" fill="#F68D35"/>
<path d="M30 32L15.5 18.5H45.5L30 32Z" fill="#F78D35"/>
<path fill-rule="evenodd" clip-rule="evenodd" d="M17.8243 19.2402L28.7862 30.2021C29.6742 31.0902 31.1143 31.0902 32.0023 30.2021L42.9642 19.2402H17.8243ZM44.5483 20.8243V40.1828C44.5483 40.5015 44.29 40.7598 43.9713 40.7598H16.8172C16.4985 40.7598 16.2402 40.5015 16.2402 40.1828V20.8243L27.2021 31.7862C28.965 33.5491 31.8235 33.5491 33.5864 31.7862L44.5483 20.8243ZM14.8252 17.8251C15.3338 17.3166 16.0396 17 16.8172 17H43.9713C44.7489 17 45.4547 17.3166 45.9633 17.8251C46.472 18.3337 46.7885 19.0397 46.7885 19.8172V40.1828C46.7885 41.7387 45.5272 43 43.9713 43H16.8172C15.2613 43 14 41.7387 14 40.1828V19.8172C14 19.0396 14.3166 18.3337 14.8252 17.8251Z" fill="white"/>
</svg>
