<svg width="74" height="74" viewBox="0 0 74 74" fill="none" xmlns="http://www.w3.org/2000/svg">
<circle cx="36.91" cy="36.91" r="36.91" fill="#FEDD3A"/>
<circle cx="35.9105" cy="34.9105" r="34.9105" fill="#FFF7B2"/>
<path d="M23 49V21H46.5V35.5L44 36.5L39 42L40.5 48L39 50H24L23 49Z" fill="white"/>
<path d="M36 55C37.1667 53 39.6 48.9 40 48.5H41L53.5 47L57.5 55H54.5L53 58.5L48.5 51L45 51.5L41 58.5L39 55.5L36 55Z" fill="#EF8158"/>
<circle cx="46.5" cy="43.5" r="7.5" fill="#FEDD3A"/>
<path d="M58.8222 55.1953L54.5406 47.7892C55.6257 45.8898 55.9535 43.6506 55.4583 41.5198C54.9632 39.389 53.6816 37.5238 51.8702 36.2974V17.4975C51.8702 16.9451 51.6507 16.4153 51.2601 16.0246C50.8695 15.634 50.3397 15.4146 49.7872 15.4146H20.0741C19.8009 15.4145 19.5305 15.4685 19.2783 15.5733C19.0261 15.6781 18.797 15.8316 18.6043 16.0252C18.4116 16.2187 18.259 16.4484 18.1553 16.7011C18.0516 16.9537 17.9988 17.2244 18 17.4975V52.9699C18 53.52 18.2185 54.0475 18.6075 54.4365C18.9965 54.8254 19.524 55.044 20.0741 55.044H35.2511L35.1621 55.1953C35.0737 55.3368 35.0268 55.5002 35.0268 55.6671C35.0268 55.8339 35.0737 55.9974 35.1621 56.1388C35.2565 56.2834 35.3909 56.3974 35.5489 56.467C35.707 56.5365 35.8819 56.5586 36.0522 56.5305L38.8206 56.1744L39.8977 58.747C39.962 58.8998 40.0678 59.0316 40.2031 59.1276C40.3383 59.2235 40.4977 59.2797 40.6632 59.29H40.7166C40.8735 59.2906 41.0277 59.2498 41.1637 59.1716C41.2997 59.0934 41.4126 58.9807 41.491 58.8449L45.4255 52.0442C45.9453 52.1403 46.4725 52.191 47.0011 52.1955C47.5326 52.1905 48.0627 52.1399 48.5855 52.0442L52.5467 58.8449C52.6251 58.9807 52.738 59.0934 52.874 59.1716C53.01 59.2498 53.1643 59.2906 53.3211 59.29H53.3745C53.54 59.2797 53.6994 59.2235 53.8347 59.1276C53.9699 59.0316 54.0757 58.8998 54.14 58.747L55.2171 56.1744L57.9855 56.5305C58.1515 56.5539 58.3208 56.53 58.4739 56.4614C58.6269 56.3928 58.7575 56.2824 58.8505 56.1429C58.9435 56.0033 58.9952 55.8403 58.9997 55.6727C59.0041 55.505 58.9611 55.3396 58.8756 55.1953H58.8222ZM20.0741 53.2637C19.9962 53.2637 19.9214 53.2327 19.8664 53.1776C19.8113 53.1225 19.7803 53.0478 19.7803 52.9699V17.4975C19.7803 17.4187 19.8109 17.3431 19.8658 17.2866C19.9206 17.2301 19.9954 17.1972 20.0741 17.1948H49.7694C49.8497 17.1948 49.9267 17.2267 49.9834 17.2835C50.0402 17.3403 50.0721 17.4172 50.0721 17.4975V35.3895C49.2932 35.0898 48.4743 34.9068 47.642 34.8465V20.5151C47.642 20.279 47.5482 20.0526 47.3812 19.8857C47.2143 19.7187 46.9879 19.625 46.7518 19.625H23.0917C22.8556 19.625 22.6292 19.7187 22.4622 19.8857C22.2953 20.0526 22.2015 20.279 22.2015 20.5151V49.9434C22.2015 50.1795 22.2953 50.4059 22.4622 50.5728C22.6292 50.7398 22.8556 50.8336 23.0917 50.8336H37.6812L36.2748 53.2637H20.0741ZM38.3043 43.4987C38.3053 45.0036 38.698 46.4822 39.4437 47.7892L38.7049 49.0533H23.9818V21.4052H45.8617V34.891C43.7738 35.1688 41.8575 36.1941 40.4679 37.7769C39.0783 39.3596 38.3096 41.3925 38.3043 43.4987ZM40.8323 56.4059L40.1914 54.8659C40.1176 54.695 39.9919 54.5515 39.8323 54.4557C39.6726 54.3599 39.4869 54.3166 39.3013 54.3318L37.6456 54.5366L40.6365 49.3559C41.472 50.2851 42.4983 51.023 43.6452 51.519L40.8323 56.4059ZM40.0846 43.4987C40.0864 42.1329 40.493 40.7983 41.2531 39.6635C42.0131 38.5288 43.0926 37.6448 44.3549 37.1233C45.6173 36.6019 47.0058 36.4664 48.3452 36.7339C49.6845 37.0014 50.9145 37.66 51.8797 38.6264C52.8448 39.5928 53.5018 40.8236 53.7676 42.1633C54.0334 43.503 53.8961 44.8914 53.373 46.1531C52.85 47.4148 51.9646 48.493 50.8289 49.2517C49.6931 50.0103 48.358 50.4152 46.9922 50.4152C45.1593 50.4128 43.4024 49.6831 42.1072 48.3863C40.8121 47.0894 40.0846 45.3316 40.0846 43.4987ZM54.7275 54.3318C54.5348 54.3066 54.3391 54.3451 54.1703 54.4416C54.0016 54.538 53.869 54.6871 53.7929 54.8659L53.152 56.4059L50.3302 51.519C51.5123 51.0353 52.5731 50.2967 53.4368 49.3559L56.4277 54.5366L54.7275 54.3318Z" fill="#345487"/>
<path d="M51.2742 41.5044L49.1111 40.73L47.6958 38.9497C47.6123 38.8473 47.5071 38.7648 47.3878 38.7081C47.2685 38.6515 47.138 38.6221 47.0059 38.6221C46.8738 38.6221 46.7434 38.6515 46.6241 38.7081C46.5047 38.7648 46.3995 38.8473 46.3161 38.9497L44.9007 40.73L42.7555 41.5044C42.6283 41.5505 42.5133 41.6249 42.4192 41.7221C42.3251 41.8193 42.2544 41.9366 42.2125 42.0652C42.1702 42.1939 42.1578 42.3306 42.1763 42.4648C42.1948 42.599 42.2437 42.7272 42.3193 42.8396L43.6189 44.7445L43.6456 47.05C43.6494 47.1859 43.6842 47.3192 43.7475 47.4396C43.8108 47.5599 43.9008 47.6642 44.0106 47.7443C44.1208 47.8244 44.248 47.878 44.3823 47.9012C44.5165 47.9243 44.6543 47.9164 44.785 47.8779L46.9926 47.2281L49.209 47.8779C49.2916 47.8915 49.3758 47.8915 49.4583 47.8779C49.6438 47.8767 49.8243 47.8175 49.9746 47.7087C50.086 47.6295 50.1777 47.5257 50.2426 47.4052C50.3074 47.2848 50.3436 47.1511 50.3484 47.0144L50.4107 44.7089L51.7104 42.804C51.7874 42.6923 51.8379 42.5644 51.8579 42.4302C51.878 42.296 51.8671 42.159 51.8261 42.0296C51.7787 41.9067 51.7046 41.7958 51.6092 41.705C51.5137 41.6142 51.3993 41.5456 51.2742 41.5044ZM48.7996 43.9612C48.7023 44.1 48.6468 44.2637 48.6393 44.433V45.8483L47.2062 45.4478C47.0434 45.4003 46.8705 45.4003 46.7077 45.4478L45.4259 45.8483L45.3814 44.433C45.374 44.2637 45.3184 44.1 45.2212 43.9612L44.4289 42.7862L45.7553 42.3144C45.9152 42.2543 46.0565 42.153 46.1647 42.0207L47.0549 40.8991L47.945 42.0207C48.0533 42.153 48.1945 42.2543 48.3545 42.3144L49.6808 42.7862L48.7996 43.9612Z" fill="#345487"/>
<path d="M38.9366 24.085H30.9253C30.6892 24.085 30.4628 24.1787 30.2959 24.3457C30.1289 24.5126 30.0352 24.739 30.0352 24.9751C30.0352 25.2112 30.1289 25.4376 30.2959 25.6045C30.4628 25.7715 30.6892 25.8653 30.9253 25.8653H38.9366C39.1727 25.8653 39.3991 25.7715 39.5661 25.6045C39.733 25.4376 39.8268 25.2112 39.8268 24.9751C39.8268 24.739 39.733 24.5126 39.5661 24.3457C39.3991 24.1787 39.1727 24.085 38.9366 24.085Z" fill="#345487"/>
<path d="M27.4351 42.2168H31.9837C32.2198 42.2168 32.4462 42.123 32.6132 41.9561C32.7801 41.7892 32.8739 41.5628 32.8739 41.3267C32.8739 41.0906 32.7801 40.8642 32.6132 40.6972C32.4462 40.5303 32.2198 40.4365 31.9837 40.4365H27.4351C27.199 40.4365 26.9726 40.5303 26.8056 40.6972C26.6387 40.8642 26.5449 41.0906 26.5449 41.3267C26.5449 41.5628 26.6387 41.7892 26.8056 41.9561C26.9726 42.123 27.199 42.2168 27.4351 42.2168Z" fill="#345487"/>
<path d="M35.6333 44.3711H27.4351C27.199 44.3711 26.9726 44.4649 26.8056 44.6318C26.6387 44.7987 26.5449 45.0252 26.5449 45.2612C26.5449 45.4973 26.6387 45.7237 26.8056 45.8907C26.9726 46.0576 27.199 46.1514 27.4351 46.1514H35.6333C35.8694 46.1514 36.0958 46.0576 36.2628 45.8907C36.4297 45.7237 36.5235 45.4973 36.5235 45.2612C36.5235 45.0252 36.4297 44.7987 36.2628 44.6318C36.0958 44.4649 35.8694 44.3711 35.6333 44.3711Z" fill="#345487"/>
</svg>
