<svg width="74" height="74" viewBox="0 0 74 74" fill="none" xmlns="http://www.w3.org/2000/svg">
<circle cx="36.91" cy="36.91" r="36.91" fill="#FEDD3A"/>
<circle cx="34.9105" cy="34.9105" r="34.9105" fill="#FFF7B2"/>
<rect x="12" y="44" width="41" height="4" fill="#FED157"/>
<rect x="12" y="44" width="41" height="4" fill="#FED157"/>
<rect x="17" y="17" width="36" height="26" fill="#FED157"/>
<rect x="17" y="17" width="36" height="26" fill="#FED157"/>
<rect x="42" y="26" width="16" height="30" fill="white"/>
<rect x="22" y="22" width="26" height="17" fill="white"/>
<path d="M39.9102 49.9102H16.1602C12.7084 49.9102 9.91016 47.112 9.91016 43.6602C9.91016 42.9699 10.4698 42.4102 11.1602 42.4102H14.9102V21.1318C14.9102 17.6801 17.7084 14.8818 21.1602 14.8818H48.6819C52.1337 14.8818 54.9319 17.6801 54.9319 21.1318V24.9102H56.1602C58.2312 24.9102 59.9102 26.5892 59.9102 28.6602V53.6863C59.9102 55.7573 58.2312 57.4363 56.1602 57.4363H43.6602C41.5891 57.4363 39.9102 55.7573 39.9102 53.6863V49.9102ZM39.9102 47.4102V44.9102H12.6235C13.1383 46.3667 14.5274 47.4102 16.1602 47.4102H39.9102ZM39.9102 42.4102V39.9102H21.1602C20.4698 39.9102 19.9102 39.3506 19.9102 38.6602V21.1602C19.9102 20.4699 20.4698 19.9102 21.1602 19.9102H48.6602C49.3505 19.9102 49.9102 20.4699 49.9102 21.1602V24.9102H52.4319V21.1318C52.4319 19.0608 50.753 17.3818 48.6819 17.3818H21.1602C19.0891 17.3818 17.4102 19.0608 17.4102 21.1318V42.4102H39.9102ZM39.9102 37.4102V28.6602C39.9102 26.5892 41.5891 24.9102 43.6602 24.9102H47.4102V22.4102H22.4102V37.4102H39.9102ZM43.6602 27.4102C42.9698 27.4102 42.4102 27.9699 42.4102 28.6602V53.6863C42.4102 54.3766 42.9698 54.9363 43.6602 54.9363H56.1602C56.8505 54.9363 57.4102 54.3766 57.4102 53.6863V28.6602C57.4102 27.9699 56.8505 27.4102 56.1602 27.4102H43.6602ZM48.6602 52.4102C47.9698 52.4102 47.4102 51.8506 47.4102 51.1602C47.4102 50.4699 47.9698 49.9102 48.6602 49.9102H51.1602C51.8505 49.9102 52.4102 50.4699 52.4102 51.1602C52.4102 51.8506 51.8505 52.4102 51.1602 52.4102H48.6602Z" fill="#345487"/>
<path d="M47 37.0074V43.0509C47 43.756 47.9065 44.2596 48.5108 43.8567L53.5468 40.835C54.1511 40.4321 54.1511 39.6263 53.5468 39.2234L48.5108 36.2016C47.9065 35.698 47 36.2016 47 37.0074Z" fill="#6FCF4D"/>
<path fill-rule="evenodd" clip-rule="evenodd" d="M48.6813 35.3348L54.1934 38.6175C54.2022 38.6227 54.2109 38.6281 54.2194 38.6338C55.2602 39.3225 55.2602 40.7411 54.2194 41.4299C54.2109 41.4355 54.2022 41.4409 54.1934 41.4461L48.6551 44.7444C48.0806 45.116 47.4044 45.0423 46.9145 44.779C46.4229 44.5147 46 43.9969 46 43.3369V36.7267C46 36.0472 46.3873 35.4855 46.9145 35.202C47.4364 34.9214 48.1255 34.9044 48.6813 35.3348ZM47.5367 36.2959C47.3979 36.3705 47.2857 36.5249 47.2857 36.7267V43.3369C47.2857 43.4481 47.3623 43.5913 47.5367 43.6851C47.7087 43.7776 47.8578 43.76 47.9461 43.7016C47.9546 43.6959 47.9633 43.6905 47.972 43.6853L53.5064 40.3894C53.7836 40.1979 53.7836 39.8657 53.5064 39.6742L47.972 36.3783C47.9436 36.3614 47.9166 36.3424 47.8913 36.3214C47.7882 36.2362 47.6672 36.2258 47.5367 36.2959Z" fill="#345487"/>
</svg>
