<svg width="74" height="74" viewBox="0 0 74 74" fill="none" xmlns="http://www.w3.org/2000/svg">
<circle cx="36.91" cy="36.91" r="36.91" fill="#FEDD3A"/>
<circle cx="34.9105" cy="34.9105" r="34.9105" fill="#FFF7B2"/>
<path d="M54.066 16.8262H16.8281V54.064H54.066V16.8262Z" fill="white" fill-opacity="0.01"/>
<path d="M50.9634 38.5483H38.5508V50.961H50.9634V38.5483Z" fill="#6FCF4D"/>
<path fill-rule="evenodd" clip-rule="evenodd" d="M37.3086 38.5484C37.3086 37.8629 37.8643 37.3071 38.5499 37.3071H50.9625C51.648 37.3071 52.2037 37.8629 52.2037 38.5484V50.961C52.2037 51.6465 51.648 52.2023 50.9625 52.2023H38.5499C37.8643 52.2023 37.3086 51.6465 37.3086 50.961V38.5484ZM39.7911 39.7897V49.7197H49.7212V39.7897H39.7911Z" fill="#345487"/>
<path d="M26.9157 19.9292L33.8978 32.3418H19.9336L26.9157 19.9292Z" fill="#F76E5B"/>
<path fill-rule="evenodd" clip-rule="evenodd" d="M26.9128 18.688C27.3612 18.688 27.7748 18.9299 27.9947 19.3207L34.9768 31.7333C35.193 32.1177 35.189 32.5879 34.9664 32.9685C34.7438 33.3492 34.3359 33.5831 33.8949 33.5831H19.9307C19.4897 33.5831 19.0819 33.3492 18.8592 32.9685C18.6366 32.5879 18.6327 32.1177 18.8489 31.7333L25.831 19.3207C26.0508 18.9299 26.4644 18.688 26.9128 18.688ZM22.0531 31.1006H31.7725L26.9128 22.4611L22.0531 31.1006Z" fill="#345487"/>
<path d="M44.7571 32.3418C48.1848 32.3418 50.9634 29.5632 50.9634 26.1355C50.9634 22.7079 48.1848 19.9292 44.7571 19.9292C41.3294 19.9292 38.5508 22.7079 38.5508 26.1355C38.5508 29.5632 41.3294 32.3418 44.7571 32.3418Z" fill="#FEDD3A"/>
<path fill-rule="evenodd" clip-rule="evenodd" d="M37.3086 26.1356C37.3086 22.0224 40.643 18.688 44.7562 18.688C48.8694 18.688 52.2037 22.0224 52.2037 26.1356C52.2037 30.2488 48.8694 33.5831 44.7562 33.5831C40.643 33.5831 37.3086 30.2488 37.3086 26.1356ZM44.7562 21.1705C42.014 21.1705 39.7911 23.3934 39.7911 26.1356C39.7911 28.8777 42.014 31.1006 44.7562 31.1006C47.4983 31.1006 49.7212 28.8777 49.7212 26.1356C49.7212 23.3934 47.4983 21.1705 44.7562 21.1705Z" fill="#345487"/>
<path fill-rule="evenodd" clip-rule="evenodd" d="M19.053 37.6707C19.5378 37.1859 20.3237 37.1859 20.8084 37.6707L33.221 50.0833C33.7058 50.568 33.7058 51.354 33.221 51.8387C32.7363 52.3235 31.9504 52.3235 31.4656 51.8387L19.053 39.4261C18.5683 38.9414 18.5683 38.1554 19.053 37.6707Z" fill="#345487"/>
<path fill-rule="evenodd" clip-rule="evenodd" d="M33.221 37.6707C33.7058 38.1554 33.7058 38.9414 33.221 39.4261L20.8084 51.8387C20.3237 52.3235 19.5378 52.3235 19.053 51.8387C18.5683 51.354 18.5683 50.568 19.053 50.0833L31.4656 37.6707C31.9504 37.1859 32.7363 37.1859 33.221 37.6707Z" fill="#345487"/>
</svg>
