<svg width="74" height="74" viewBox="0 0 74 74" fill="none" xmlns="http://www.w3.org/2000/svg">
<circle cx="36.91" cy="36.91" r="36.91" fill="#FEDD3A"/>
<circle cx="34.9105" cy="34.9105" r="34.9105" fill="#FFF7B2"/>
<path d="M15.0001 57.3888L16.0244 58.4131L18.7879 55.6496L17.7635 54.6253L15.0001 57.3888Z" fill="#345487"/>
<path d="M15.0107 57.3788L17.7742 54.6353L18.7782 55.6597L16.0249 58.3928L15.0107 57.3788Z" fill="#345487"/>
<path d="M17.6094 52.4532L30.7753 36.6372L36.7759 42.6598L20.9517 55.7955L17.6094 52.4532Z" fill="#FEDD3A"/>
<path d="M36.7864 42.6491L20.9512 55.8142L17.5996 52.4626L30.7647 36.6274L36.7864 42.6491ZM36.7864 42.6491L20.9512 55.8143" stroke="#345487" stroke-width="3.5" stroke-linecap="round" stroke-linejoin="round"/>
<path d="M33.29 26.3465C34.8977 25.396 36.3604 24.7822 38.2561 24.7822C41.0019 24.7822 44.2545 25.1849 46.1949 27.1286C49.5547 30.4946 49.7144 36.1229 46.977 40.4245L33.29 26.3465Z" fill="#F3A96B"/>
<path d="M40.3329 42.7699L30.642 33.0679C30.6191 30.586 31.5463 28.194 33.2585 26.3462L47.066 40.1863C45.25 41.8427 42.8983 42.7706 40.4445 42.7706L40.3329 42.7699Z" fill="#345487"/>
<path d="M35.2451 25.3234C36.692 24.4679 38.3604 24 40.0665 24C42.5377 24 44.8604 24.9635 46.6068 26.7128C49.6306 29.7422 50.1925 34.4124 47.977 38.078L35.2451 25.3234Z" fill="#345487"/>
<path fill-rule="evenodd" clip-rule="evenodd" d="M60.1363 27.6893C60.2212 28.2302 59.8516 28.7374 59.3107 28.8223L53.4372 29.7443C52.8963 29.8292 52.389 29.4595 52.3041 28.9187C52.2192 28.3778 52.5889 27.8705 53.1297 27.7856L59.0033 26.8637C59.5441 26.7788 60.0514 27.1484 60.1363 27.6893Z" fill="#345487"/>
<path fill-rule="evenodd" clip-rule="evenodd" d="M55.9735 20.6929C56.2514 21.1646 56.0942 21.7723 55.6225 22.0502L51.9497 24.2137C51.478 24.4916 50.8703 24.3345 50.5924 23.8628C50.3145 23.391 50.4717 22.7833 50.9434 22.5055L54.6162 20.3419C55.088 20.064 55.6956 20.2212 55.9735 20.6929Z" fill="#345487"/>
<path fill-rule="evenodd" clip-rule="evenodd" d="M49.6876 13.0909C50.185 13.3196 50.4028 13.9083 50.1741 14.4057L47.7057 19.7737C47.477 20.2711 46.8883 20.4889 46.3909 20.2602C45.8935 20.0314 45.6756 19.4428 45.9044 18.9454L48.3727 13.5774C48.6015 13.08 49.1901 12.8622 49.6876 13.0909Z" fill="#345487"/>
<path fill-rule="evenodd" clip-rule="evenodd" d="M39.749 13.3345C40.2965 13.3307 40.7434 13.7714 40.7473 14.3189L40.777 18.579C40.7808 19.1265 40.3401 19.5734 39.7926 19.5773C39.2451 19.5811 38.7982 19.1404 38.7944 18.5929L38.7647 14.3327C38.7609 13.7852 39.2016 13.3383 39.749 13.3345Z" fill="#345487"/>
<path fill-rule="evenodd" clip-rule="evenodd" d="M30.6613 13.0566C31.1776 12.8747 31.7437 13.1458 31.9256 13.6622L33.9107 19.2979C34.0926 19.8142 33.8215 20.3803 33.3051 20.5622C32.7887 20.7441 32.2226 20.4729 32.0407 19.9566L30.0556 14.3209C29.8737 13.8045 30.1449 13.2385 30.6613 13.0566Z" fill="#345487"/>
<path fill-rule="evenodd" clip-rule="evenodd" d="M22.786 20.7893C23.0479 20.3085 23.65 20.131 24.1307 20.3929L27.8705 22.4301C28.3513 22.692 28.5287 23.2941 28.2668 23.7748C28.0049 24.2556 27.4029 24.4331 26.9221 24.1712L23.1823 22.134C22.7016 21.8721 22.5241 21.2701 22.786 20.7893Z" fill="#345487"/>
<path fill-rule="evenodd" clip-rule="evenodd" d="M19.014 27.3204C19.1053 26.7806 19.6169 26.4169 20.1567 26.5082L25.9187 27.4821C26.4585 27.5734 26.8222 28.085 26.7309 28.6248C26.6397 29.1646 26.1281 29.5283 25.5883 29.437L19.8263 28.4631C19.2864 28.3718 18.9228 27.8602 19.014 27.3204Z" fill="#345487"/>
</svg>
