<svg width="75" height="90" viewBox="0 0 75 90" fill="none" xmlns="http://www.w3.org/2000/svg">
<path d="M34.7915 39.6737C36.7009 37.9672 38.8765 36.4982 40.885 34.8544C44.777 31.765 48.7186 28.707 52.7958 25.8733C56.4426 23.3918 60.2251 21.1347 64.0937 19.0707C65.6824 18.2017 67.3755 17.6067 69.1363 17.1239C70.1381 16.855 71.1817 16.9592 72.0922 17.6035C73.5663 18.6729 73.9135 20.2095 73.0606 21.8897C72.6407 22.6645 72.1712 23.4081 71.6026 24.0891C68.509 27.8905 65.2484 31.5172 61.5052 34.7005C59.8331 36.1407 58.1427 37.5001 56.2854 38.6848C55.6124 39.0918 54.9889 39.5302 54.3838 40.0494C50.8153 43.0657 46.7902 45.3776 43.086 48.1695C42.606 48.4905 42.1443 48.8923 41.5782 49.0202C40.2472 45.1984 37.8311 42.2169 34.7915 39.6737Z" fill="#896253"/>
<path d="M9.0128 56.1233C11.3186 53.3498 13.982 51.2181 17.689 50.508C19.5178 50.1373 21.2005 50.4371 22.8885 50.9482C23.1546 51.1856 23.4964 51.1934 23.7938 51.3812C24.8478 51.908 25.9019 52.4349 26.5933 53.4262C27.4205 54.6418 28.2789 55.8078 28.72 57.1956C28.5505 57.5739 28.7227 57.96 28.7645 58.3331C29.2815 62.1262 27.7062 65.4997 24.3541 67.4045C22.9585 68.1873 21.495 68.858 19.8906 69.093C20.2843 67.2615 19.8955 66.6694 18.171 65.9965C17.7119 65.8453 17.1457 65.9732 16.8561 65.4436C17.589 64.173 18.3219 62.9024 17.4895 61.4755C16.6389 59.9677 15.2145 60.2471 13.7405 60.4951C13.7483 60.1533 13.7744 59.8925 13.7509 59.6003C13.774 57.2575 12.2764 55.8959 9.93892 56.0841C9.57889 55.9954 9.30499 56.0998 9.0128 56.1233Z" fill="#0C253A"/>
<path d="M9.01274 56.1224C9.30492 56.0989 9.62841 56.0258 9.9206 56.0023C12.3077 55.8454 13.7244 57.2253 13.7325 59.5185C13.7561 59.8107 13.73 60.0716 13.7222 60.4133C15.1649 60.2149 16.5892 59.9355 17.4712 61.3938C18.2723 62.8702 17.5707 64.0913 16.8378 65.3619C17.1587 65.8418 17.7248 65.7139 18.1527 65.9147C19.9085 66.538 20.266 67.1798 19.8723 69.0112C18.6592 69.2853 17.4044 69.1863 16.1991 69.1186C14.9129 69.0692 13.6633 69.1816 12.4007 69.4244C10.4598 69.8629 9.01982 70.8257 8.00521 72.5425C7.78611 72.8895 7.5853 73.3173 7.26706 73.6017C6.69842 74.2827 6.02794 74.1367 5.71477 73.315C5.59211 72.9602 5.50074 72.5558 5.45895 72.1828C5.11145 68.0113 5.2857 63.8919 6.71483 59.8716C7.21816 58.5253 7.98239 57.2052 9.01274 56.1224Z" fill="#FC8EE4"/>
<path d="M34.7913 39.6735C37.8622 42.1671 40.247 45.1983 41.578 49.02C38.2259 50.9249 35.0591 53.0854 31.6887 54.9094C30.1544 52.0686 27.9705 49.927 24.9493 48.7821C25.857 47.3446 27.0622 46.0948 28.3351 44.9572C30.2133 43.3003 32.1097 41.7244 34.0061 40.1484C34.1808 39.9814 34.4861 39.8275 34.7913 39.6735Z" fill="#FD9B01"/>
<path d="M24.8671 48.801C27.9378 49.9772 30.0721 52.0875 31.6064 54.9283C30.7013 55.8128 29.6422 56.3921 28.6196 57.1331C28.1786 55.7453 27.3514 54.5297 26.493 53.3637C25.8015 52.3724 24.7474 51.8455 23.6934 51.3187C23.3647 51.1805 23.0542 51.1231 22.7881 50.8857C23.4689 50.1369 24.0193 49.3751 24.8671 48.801Z" fill="#E08105"/>
</svg>
