<svg width="92" height="79" viewBox="0 0 92 79" fill="none" xmlns="http://www.w3.org/2000/svg">
<path d="M57.0414 15.4698C57.8382 13.6304 59.0226 12.1349 60.4881 10.8276C63.6975 11.0677 66.3965 12.3421 68.8609 14.3862C70.6212 15.8462 71.9148 17.6255 72.9846 19.6341C72.0295 21.3534 70.7059 22.8681 69.4697 24.3991C69.1149 23.8806 69.1776 23.3048 69.1012 22.748C68.9702 22.0003 68.7355 21.3235 68.2224 20.6849C67.532 19.787 67.3218 19.7024 66.5495 20.6876C65.3133 22.2187 64.1644 23.7661 63.0509 25.3653C60.0354 29.6363 57.1781 34.0275 54.0043 38.1784C52.5115 40.1134 51.0024 42.1356 49.5451 44.1224C46.9744 47.7084 44.4391 51.3463 41.6228 54.7959C40.2828 56.3979 38.891 58.0354 37.8158 59.913C36.8033 59.7684 35.8645 59.954 34.9994 60.4698C34.6883 60.6826 34.2899 60.8791 33.9078 60.9883C33.3183 61.2394 33.0017 60.9992 33.0809 60.3361C33.1273 59.8476 33.3128 59.34 33.4111 58.816C33.6594 57.7325 33.613 56.7746 32.9744 55.8413C34.1942 54.3976 35.2203 52.782 36.2819 51.2182C42.0046 43.1155 47.9566 35.2366 53.3464 26.9811C55.4504 23.7144 57.8874 20.6004 60.1498 17.4538C60.4063 17.0499 61.0122 16.7115 60.7611 16.122C60.4936 15.6199 59.8332 15.7672 59.3611 15.6335C58.6269 15.4507 57.8301 15.8437 57.0414 15.4698Z" fill="#235F9C"/>
<path d="M37.8673 59.8775C38.978 58.0517 40.3698 56.4142 41.6742 54.7604C44.4906 51.3108 47.0258 47.6729 49.5965 44.0869C51.0538 42.1001 52.5111 40.1133 54.0557 38.1429C57.2295 33.992 60.1223 29.6527 63.1024 25.3298C64.2158 23.7306 65.4166 22.1477 66.6009 20.6521C67.3214 19.7024 67.5834 19.7515 68.2739 20.6494C68.6996 21.2716 69.0217 21.9648 69.1527 22.7125C69.2291 23.2693 69.2018 23.8969 69.5211 24.3636C68.4049 25.7363 67.2888 27.1091 66.2081 28.5337C63.2062 32.4909 60.4499 36.5845 57.3416 40.3862C51.949 46.9688 46.9959 53.8597 41.516 60.426C40.7082 61.3593 40.0069 62.4482 39.2701 63.4853C38.9617 63.9247 38.7051 64.3286 38.203 64.596C38.0392 64.0229 38.4159 63.4607 38.4268 62.9204C38.3967 61.8751 38.7488 60.7207 37.8673 59.8775Z" fill="#01A0F7"/>
<path d="M57.0412 15.4697C57.8299 15.8436 58.6786 15.4151 59.4127 15.598C59.8849 15.7317 60.5453 15.5843 60.8128 16.0864C61.1157 16.6404 60.5099 16.9789 60.2015 17.4182C57.9391 20.5649 55.5376 23.7306 53.3981 26.9455C47.9564 35.2365 42.04 43.1673 36.3336 51.1826C35.2366 52.6946 34.2459 54.362 33.0261 55.8057C31.9754 55.3828 31.072 55.6202 30.1551 56.1715C29.481 56.6327 28.8261 57.2331 27.849 57.1403C27.5625 56.499 28.1165 56.1961 28.373 55.7922C30.2942 53.2596 32.2155 50.727 34.0848 48.2298C37.8236 43.2356 41.0711 37.9684 44.5997 32.8896C48.7641 27.0711 52.7539 21.22 57.0412 15.4697Z" fill="#01A0F7"/>
<path d="M72.9845 19.6337C71.8629 17.6606 70.5693 15.8813 68.8608 14.3858C66.3965 12.3418 63.6974 11.0673 60.488 10.8272C62.1854 8.52388 63.8829 6.22052 65.6677 3.93353C66.2517 3.22943 66.8411 2.97833 67.7308 3.05473C71.9199 3.61412 75.1185 5.84098 77.5119 9.22771C78.6827 10.9388 78.5299 12.7182 77.2254 14.372C75.8527 16.1487 74.551 18.029 72.9845 19.6337Z" fill="#FF808C"/>
<path d="M27.8849 57.1918C28.8264 57.2327 29.4295 56.6678 30.1909 56.2229C31.1079 55.6717 32.0275 55.3469 33.0619 55.8572C33.7005 56.7905 33.7469 57.7484 33.4986 58.8319C33.4003 59.3559 33.2148 59.8635 33.1684 60.352C33.1056 60.9278 33.4058 61.2553 33.9953 61.0042C34.3419 60.8432 34.7403 60.6467 35.0869 60.4857C35.952 59.9699 36.8908 59.7843 37.9033 59.9289C38.8203 60.824 38.4328 61.9266 38.4628 62.9718C38.4519 63.5121 38.0753 64.0743 38.2391 64.6474C36.4652 66.3941 34.2683 67.745 32.388 69.3361C31.9786 68.6265 31.6566 67.9333 31.0917 67.3302C29.5033 65.6764 27.522 64.6722 25.336 64.0363C25.6716 61.5229 26.8833 59.3996 27.8849 57.1918Z" fill="#FCC4C7"/>
<path d="M25.3005 63.9848C27.5383 64.5852 29.4323 65.5731 31.0562 67.2787C31.6211 67.8818 31.9431 68.575 32.3525 69.2846C28.9194 72.1665 25.4863 75.0485 21.7884 77.6548C21.3217 77.9741 20.8414 78.6073 20.3147 78.2825C19.6297 77.8377 20.1264 77.1172 20.3283 76.5223C21.8156 72.6879 22.9536 68.788 24.6865 65.0901C24.8557 64.6698 24.973 64.285 25.3005 63.9848Z" fill="#0C253A"/>
</svg>
