<svg width="63" height="63" viewBox="0 0 63 63" fill="none" xmlns="http://www.w3.org/2000/svg">
<circle cx="31.5" cy="31.5" r="31.5" fill="black"/>
<circle cx="30" cy="30" r="30" fill="#2F2B3C"/>
<path d="M30.7059 14.0269C32.4649 14 34.211 14.014 35.956 14C36.0141 16.1824 36.8995 18.1466 38.3082 19.6016L38.306 19.5994C39.8222 20.9651 41.7951 21.8506 43.9699 22.001L44 22.0031V27.4145C41.9455 27.3629 40.0135 26.889 38.2717 26.0745L38.3598 26.1111C37.5173 25.706 36.8049 25.2901 36.128 24.8259L36.1838 24.8625C36.1709 28.7835 36.1967 32.7044 36.157 36.6114C36.0463 38.6026 35.3844 40.4185 34.3227 41.9347L34.3442 41.9014C32.5691 44.4437 29.6936 46.1125 26.4238 46.2113H26.4088C26.2766 46.2178 26.1208 46.221 25.9639 46.221C24.105 46.221 22.3675 45.7031 20.8868 44.8037L20.9297 44.8284C18.2348 43.2069 16.3759 40.4325 16.032 37.2057L16.0277 37.1616C16.0009 36.49 15.988 35.8184 16.0148 35.1608C16.5413 30.0256 20.8438 26.0531 26.0735 26.0531C26.6613 26.0531 27.2373 26.1036 27.7971 26.1992L27.7369 26.1906C27.7638 28.1774 27.6832 30.1653 27.6832 32.1521C27.2287 31.9877 26.7043 31.8921 26.1574 31.8921C24.1501 31.8921 22.4427 33.1751 21.8109 34.9663L21.8012 34.9986C21.6583 35.4574 21.5755 35.985 21.5755 36.5308C21.5755 36.7522 21.5895 36.9714 21.6153 37.1863L21.6131 37.1605C21.9699 39.359 23.8546 41.0181 26.1273 41.0181C26.1928 41.0181 26.2573 41.017 26.3218 41.0138H26.3121C27.8841 40.9665 29.2488 40.1209 30.0203 38.8712L30.031 38.8518C30.318 38.4521 30.5146 37.9686 30.5801 37.4431L30.5812 37.4281C30.7155 35.0243 30.6618 32.6346 30.6747 30.2308C30.6876 24.8195 30.6618 19.421 30.7016 14.0236L30.7059 14.0269Z" fill="white"/>
</svg>
