<svg width="108" height="59" viewBox="0 0 108 59" fill="none" xmlns="http://www.w3.org/2000/svg">
<path d="M104.873 58.9995C98.3172 58.9995 95.0394 55.0661 92.4172 51.7883C89.795 48.5105 88.1561 46.8716 84.5505 46.8716C80.9449 46.8716 79.3061 48.8383 76.6839 51.7883C74.0616 55.0661 70.7838 58.9995 64.2283 58.9995C57.6727 58.9995 54.3949 55.0661 51.7727 51.7883C49.1505 48.5105 47.5116 46.8716 43.906 46.8716C40.3005 46.8716 38.6616 48.8383 36.0394 51.7883C33.4172 55.0661 30.1394 58.9995 23.5838 58.9995C17.0282 58.9995 13.7504 55.0661 11.1282 51.7883C8.50599 48.5105 6.86712 46.8716 3.26156 46.8716C1.62267 46.8716 0.311523 45.5606 0.311523 43.9217C0.311523 42.2828 1.62267 40.9717 3.26156 40.9717C9.81712 40.9717 13.0949 44.905 15.7171 48.1827C18.3393 51.4605 19.9782 53.0994 23.5838 53.0994C27.1894 53.0994 28.8282 51.1327 31.4505 48.1827C34.0727 44.905 37.3505 40.9717 43.906 40.9717C50.4616 40.9717 53.7394 44.905 56.3616 48.1827C58.9838 51.4605 60.6227 53.0994 64.2283 53.0994C67.8338 53.0994 69.4728 51.1327 72.095 48.1827C74.7172 44.905 77.9949 40.9717 84.5505 40.9717C91.1061 40.9717 94.3839 44.905 97.0061 48.1827C99.6283 51.4605 101.267 53.0994 104.873 53.0994C106.512 53.0994 107.823 54.4106 107.823 56.0495C107.823 57.6884 106.512 58.9995 104.873 58.9995Z" fill="#7990FC"/>
<path d="M104.873 38.6777C98.3172 38.6777 95.0394 34.7444 92.4172 31.4666C89.795 28.1889 88.1561 26.55 84.5505 26.55C80.9449 26.55 79.3061 28.5166 76.6839 31.4666C74.0616 34.7444 70.7838 38.6777 64.2283 38.6777C57.6727 38.6777 54.3949 34.7444 51.7727 31.4666C49.1505 28.1889 47.5116 26.55 43.906 26.55C40.3005 26.55 38.6616 28.5166 36.0394 31.4666C33.4172 34.7444 30.1394 38.6777 23.5838 38.6777C17.0282 38.6777 13.7504 34.7444 11.1282 31.4666C8.50599 28.1889 6.86712 26.55 3.26156 26.55C1.62267 26.55 0.311523 25.2388 0.311523 23.5999C0.311523 21.961 1.62267 20.6499 3.26156 20.6499C9.81712 20.6499 13.0949 24.5833 15.7171 27.8611C18.3393 31.1388 19.9782 32.7777 23.5838 32.7777C27.1894 32.7777 28.8282 30.8111 31.4505 27.8611C34.0727 24.5833 37.3505 20.6499 43.906 20.6499C50.4616 20.6499 53.7394 24.5833 56.3616 27.8611C58.9838 31.1388 60.6227 32.7777 64.2283 32.7777C67.8338 32.7777 69.4728 30.8111 72.095 27.8611C74.7172 24.5833 77.9949 20.6499 84.5505 20.6499C91.1061 20.6499 94.3839 24.5833 97.0061 27.8611C99.6283 31.1388 101.267 32.7777 104.873 32.7777C106.512 32.7777 107.823 34.0888 107.823 35.7277C107.823 37.0388 106.512 38.6777 104.873 38.6777Z" fill="#7990FC"/>
<path d="M104.873 18.0278C98.3172 18.0278 95.0394 14.0944 92.4172 10.8166C89.795 7.53886 88.1561 5.89997 84.5505 5.89997C80.9449 5.89997 79.3061 7.86664 76.6839 10.8166C74.0616 14.0944 70.7838 18.0278 64.2283 18.0278C57.6727 18.0278 54.3949 14.0944 51.7727 10.8166C49.1505 7.53886 47.5116 5.89997 43.906 5.89997C40.3005 5.89997 38.6616 7.86664 36.0394 10.8166C33.4172 14.0944 30.1394 18.0278 23.5838 18.0278C17.0282 18.0278 13.7504 14.0944 11.1282 10.8166C8.50599 7.53886 6.86712 5.89997 3.26156 5.89997C1.62267 5.89997 0.311523 4.58888 0.311523 2.94998C0.311523 1.31109 1.62267 0 3.26156 0C9.81712 0 13.0949 3.93328 15.7171 7.21106C18.3393 10.4888 19.9782 12.1277 23.5838 12.1277C27.1894 12.1277 28.8282 10.1611 31.4505 7.21106C34.0727 3.93328 37.3505 0 43.906 0C50.4616 0 53.7394 3.93328 56.3616 7.21106C58.9838 10.4888 60.6227 12.1277 64.2283 12.1277C67.8338 12.1277 69.4728 10.1611 72.095 7.21106C74.7172 3.93328 77.9949 0 84.5505 0C91.1061 0 94.3839 3.93328 97.0061 7.21106C99.6283 10.4888 101.267 12.1277 104.873 12.1277C106.512 12.1277 107.823 13.4389 107.823 15.0778C107.823 16.7167 106.512 18.0278 104.873 18.0278Z" fill="#7990FC"/>
</svg>
