<svg width="63" height="63" viewBox="0 0 63 63" fill="none" xmlns="http://www.w3.org/2000/svg">
<circle cx="31.5" cy="31.5" r="31.5" fill="#4EA62E"/>
<circle cx="30" cy="30" r="30" fill="#6FCF4D"/>
<path d="M18.3392 37.7448L17.2262 42.939L16.4842 44.0521L22.7914 42.939C23.2861 43.4337 25.6854 44.4231 31.3248 44.4231C38.3741 44.4231 43.5683 37.7448 45.4233 32.1796C47.2784 26.6144 39.1161 16.597 32.4378 15.4839C25.7596 14.3709 19.8233 19.5651 17.2262 23.6462C15.1485 26.9112 17.1025 34.4057 18.3392 37.7448Z" fill="#89E06A"/>
<path d="M38.1038 33.1778C37.6985 32.9859 35.7572 32.0259 35.3946 31.8765C35.0319 31.7272 34.7759 31.6845 34.4986 32.0899C34.2212 32.4952 33.4746 33.3698 33.2399 33.6472C33.0053 33.9245 32.7919 33.9458 32.3866 33.6472C31.2224 33.18 30.1472 32.5161 29.208 31.6845C28.3578 30.884 27.638 29.9555 27.0747 28.9326C26.84 28.5486 27.0747 28.3353 27.2454 28.1219C27.416 27.9086 27.6293 27.6739 27.8427 27.4393C27.9987 27.2363 28.1278 27.014 28.2267 26.778C28.2796 26.6682 28.3071 26.5478 28.3071 26.426C28.3071 26.3041 28.2796 26.1838 28.2267 26.074C28.2267 25.882 27.3307 23.9407 26.9894 23.1514C26.648 22.362 26.3494 22.4687 26.1147 22.4687H25.2614C24.8549 22.4845 24.4713 22.661 24.1947 22.9594C23.7484 23.3853 23.3948 23.8989 23.1562 24.4679C22.9176 25.0369 22.7991 25.649 22.8081 26.266C22.9172 27.7806 23.4741 29.2285 24.4081 30.4259C26.1219 32.9718 28.4666 35.0299 31.2133 36.3991C32.1519 36.8045 32.8773 37.0391 33.4533 37.2311C34.2621 37.4756 35.117 37.5267 35.9492 37.3804C36.5019 37.2683 37.0257 37.0438 37.4881 36.7209C37.9505 36.398 38.3416 35.9835 38.6372 35.5031C38.8831 34.91 38.9642 34.2613 38.8718 33.6258C38.7652 33.4765 38.5092 33.3698 38.1038 33.1778Z" fill="white"/>
<path d="M42.0929 18.6511C40.6175 17.1618 38.8589 15.9831 36.9207 15.1843C34.9825 14.3856 32.904 13.9831 30.8077 14.0005C28.0308 14.0151 25.3063 14.7579 22.9063 16.1549C20.5063 17.5519 18.5149 19.5541 17.1308 21.9616C15.7468 24.3691 15.0186 27.0976 15.0191 29.8745C15.0195 32.6515 15.7485 35.3798 17.1333 37.7868L15 46L23.4052 43.8667C25.7289 45.1311 28.333 45.7913 30.9784 45.7867H30.8077C33.9606 45.8072 37.0481 44.8883 39.6766 43.147C42.305 41.4058 44.3554 38.9212 45.5661 36.01C46.7768 33.0988 47.093 29.893 46.4744 26.8013C45.8558 23.7097 44.3305 20.8724 42.0929 18.6511ZM30.8077 43.0561C28.441 43.0579 26.1182 42.4164 24.0878 41.2001L23.6185 40.9228L18.6266 42.2241L19.9493 37.3601L19.6506 36.8695C17.9468 34.1257 17.3095 30.852 17.8596 27.6695C18.4096 24.4869 20.1087 21.617 22.6346 19.6043C25.1604 17.5915 28.3372 16.5759 31.5622 16.7502C34.7872 16.9245 37.836 18.2765 40.1302 20.5498C41.3602 21.7698 42.335 23.2224 42.9979 24.8229C43.6608 26.4234 43.9986 28.1399 43.9915 29.8723C43.9859 33.3671 42.5951 36.7172 40.1238 39.1884C37.6526 41.6596 34.3026 43.0504 30.8077 43.0561Z" fill="white"/>
</svg>
