<svg width="122" height="139" viewBox="0 0 122 139" fill="none" xmlns="http://www.w3.org/2000/svg">
<path d="M53.884 120.792C52.775 125.832 95.4402 125.461 94.2658 121.368C88.4372 117.189 80.8996 115.33 73.7321 115.617C66.5647 115.904 60.6828 118.527 53.884 120.792Z" fill="#25587A"/>
<path d="M69.7827 126.949C69.7827 126.949 69.0899 100.635 70.8441 92.1888C72.5982 83.7422 65.4924 91.1111 65.4924 91.1111C65.4924 91.1111 67.5949 122.71 67.211 127.07C69.0471 128.037 69.7827 126.949 69.7827 126.949Z" fill="#F9C8AD"/>
<path d="M71.7592 129.49C71.5953 130.039 70.9793 130.339 70.3472 130.401C69.7292 130.463 69.0812 130.314 68.448 130.249C64.8598 129.887 61.3625 131.885 57.9362 130.734C57.6119 130.624 57.2732 130.473 57.0461 130.222C56.5916 129.692 56.7391 128.875 57.213 128.408C57.4918 128.124 57.8558 127.952 58.2483 127.822C58.5006 127.736 58.7672 127.677 59.0339 127.633C61.4343 127.205 64.0089 127.421 66.4345 128.285C66.5038 128.172 66.4459 127.976 66.3048 127.921C66.0932 127.838 65.8815 127.742 65.6699 127.659C65.5267 127.352 65.6781 126.985 65.9296 126.8C66.1949 126.601 66.5317 126.528 66.8829 126.497C67.4026 126.436 67.9507 126.417 68.4993 126.455C69.0339 126.492 69.5829 126.572 70.1183 126.707C70.1183 126.707 70.9917 126.911 71.2057 127.274C71.4339 127.652 71.127 127.921 70.6916 127.967C71.3242 127.962 71.9232 128.94 71.7592 129.49Z" fill="#442B26"/>
<path d="M71.7583 129.488C71.5944 130.038 70.9784 130.338 70.3463 130.4C69.7282 130.461 69.0802 130.313 68.447 130.248C64.8589 129.886 61.3616 131.883 57.9353 130.733C57.611 130.623 57.2722 130.471 57.0451 130.22C56.5906 129.69 56.7382 128.874 57.2121 128.406C57.4908 128.123 57.8548 127.951 58.2474 127.821C58.1112 128.328 58.398 128.972 58.8785 129.263C59.5145 129.651 60.3295 129.602 61.0741 129.539C63.2235 129.366 65.4016 129.248 67.5142 129.68C68.0212 129.788 68.5426 129.924 69.062 129.835C69.5814 129.746 70.0843 129.376 70.122 128.856C70.1596 128.336 69.4947 127.864 69.0898 128.176C69.3234 127.556 69.0356 126.8 68.4981 126.425C69.0327 126.463 69.5817 126.542 70.1171 126.678C70.1171 126.678 70.9905 126.881 71.2045 127.245C71.4328 127.622 71.1258 127.892 70.6904 127.938C71.3232 127.96 71.9222 128.939 71.7583 129.488Z" fill="#351F1B"/>
<path d="M87.7749 126.792C87.7749 126.792 87.0821 100.478 88.8362 92.0315C90.5904 83.585 83.4845 90.9539 83.4845 90.9539C83.4845 90.9539 85.587 122.553 85.2032 126.913C87.0393 127.88 87.7749 126.792 87.7749 126.792Z" fill="#F9C8AD"/>
<path d="M89.892 129.345C89.7281 129.894 89.1121 130.195 88.48 130.257C87.862 130.318 87.214 130.169 86.5808 130.105C82.9926 129.742 79.4953 131.74 76.069 130.589C75.7447 130.48 75.406 130.328 75.1789 130.077C74.7244 129.547 74.8719 128.731 75.3459 128.263C75.6246 127.98 75.9886 127.808 76.3811 127.678C76.6334 127.591 76.9 127.533 77.1668 127.488C79.5671 127.06 82.1417 127.276 84.5673 128.141C84.6367 128.028 84.5787 127.831 84.4376 127.776C84.226 127.694 84.0143 127.597 83.8027 127.515C83.6595 127.207 83.8109 126.84 84.0624 126.656C84.3278 126.456 84.6645 126.383 85.0157 126.352C85.5354 126.291 86.0835 126.273 86.6321 126.31C87.1667 126.347 87.7157 126.427 88.2511 126.563C88.2511 126.563 89.1245 126.766 89.3385 127.13C89.5668 127.507 89.2598 127.777 88.8244 127.823C89.471 127.817 90.056 128.796 89.892 129.345Z" fill="#442B26"/>
<path d="M89.8921 129.343C89.7281 129.892 89.1122 130.193 88.4801 130.254C87.862 130.316 87.214 130.167 86.5808 130.102C82.9927 129.74 79.4954 131.738 76.0691 130.587C75.7448 130.478 75.406 130.326 75.1789 130.075C74.7244 129.545 74.872 128.729 75.3459 128.261C75.6246 127.977 75.9886 127.806 76.3811 127.676C76.245 128.183 76.5317 128.827 77.0123 129.118C77.6483 129.505 78.4633 129.456 79.2078 129.394C81.3573 129.22 83.5354 129.103 85.648 129.534C86.155 129.642 86.6764 129.778 87.1958 129.689C87.7152 129.601 88.2181 129.231 88.2557 128.711C88.2934 128.19 87.6285 127.718 87.2236 128.031C87.4572 127.411 87.1694 126.654 86.6319 126.28C87.1665 126.317 87.7154 126.397 88.2509 126.533C88.2509 126.533 89.1243 126.736 89.3383 127.099C89.5665 127.477 89.2596 127.746 88.8242 127.792C89.4711 127.815 90.056 128.793 89.8921 129.343Z" fill="#351F1B"/>
<path d="M96.7242 82.2882C96.9183 83.5934 97.0703 84.8989 97.1801 86.2048C97.2587 87.1597 97.3233 88.1287 97.3598 89.084C97.8179 99.7315 96.0871 110.862 94.2525 121.375C93.9469 120.183 83.0581 119.35 72.6681 119.286C71.7683 119.28 70.8826 119.274 69.9969 119.281C69.8068 118.44 69.6308 117.598 69.3705 116.757C68.942 117.604 68.4996 118.465 68.0711 119.312C67.2417 119.319 66.4265 119.34 65.6395 119.375C64.754 119.397 63.8967 119.433 63.0677 119.482C57.8402 119.752 54.0072 120.334 53.8188 121.305C53.2778 112.443 57.6201 104.142 61.0918 95.9758C62.4282 92.8306 63.6502 89.4755 64.4361 86.0821C64.8154 84.4347 65.0822 82.7743 65.2225 81.1289" fill="#609CD8"/>
<path d="M95.9254 82.5639C96.1195 83.869 97.0704 84.9006 97.1802 86.2065C97.2588 87.1614 97.3234 88.1304 97.3599 89.0857C97.818 99.7332 96.0872 110.864 94.2526 121.376C93.947 120.185 83.0582 119.352 72.6682 119.288C80.1451 117.396 86.6338 111.803 89.4957 104.64C92.5645 97.0107 91.4303 87.8444 86.6205 81.1834C87.958 81.3966 94.7053 82.9117 96.0568 83.1248" fill="#3874A5"/>
<path d="M66.3967 101.383C64.5354 107.202 63.5803 113.773 65.6535 119.376C64.768 119.398 63.9107 119.433 63.0817 119.483C61.7641 113.48 63.1564 107.06 65.2424 101.21C67.5482 94.7682 70.6858 88.586 72.0896 81.885C72.3268 81.6721 72.2935 81.0822 72.5449 80.8833C71.8617 87.9997 68.5728 94.5625 66.3967 101.383Z" fill="#3874A5"/>
<path d="M111.981 37.4141C111.996 37.4279 111.996 37.4419 112.01 37.4558C111.996 37.4559 111.982 37.442 111.981 37.4141Z" fill="#F5BA90"/>
<path d="M81.4736 80.9634C84.8045 87.3 85.5878 94.9236 83.6232 101.812C85.6259 102.54 87.2681 103.846 88.5203 105.578C88.6432 100.307 88.1166 94.7189 86.7226 89.6301C85.9384 86.7421 84.8729 83.8567 82.9969 81.5263C82.7695 81.2472 82.5281 80.9683 82.2175 80.8164C81.8927 80.6506 81.767 80.75 81.4736 80.9634Z" fill="#635B54"/>
<path d="M81.3005 80.5429C79.2501 84.0316 78.1748 88.088 78.2521 92.1344C79.8568 92.3593 81.1285 93.093 82.4582 94.037C80.6369 89.9215 80.5096 84.9762 82.1463 80.8026C81.8365 80.749 81.624 80.5682 81.3005 80.5429Z" fill="#635B54"/>
<path d="M44.7872 78.6715C44.6361 79.0803 44.4569 79.4894 44.2355 79.8988C43.4017 81.0162 41.886 81.3245 40.4948 81.3928C38.4009 81.4953 37.7253 78.1708 37.5174 75.2779C37.453 74.3369 37.389 73.4522 37.3394 72.5955C36.7948 63.3258 37.4342 59.2451 38.1877 60.2081L42.2749 66.229C44.4191 70.2996 46.3669 74.414 44.7872 78.6715Z" fill="#3874A5"/>
<path d="M48.2497 80.7188C46.6107 79.7775 35.1946 68.4243 33.5721 66.1479C32.1772 64.1787 29.868 60.5311 29.0823 59.1046C25.2831 52.2521 30.1242 51.1982 31.977 52.4749C32.2655 53.3155 32.6727 58.1038 33.486 59.4879C34.5707 61.3474 47.484 75.1186 48.3487 75.9402C49.582 77.1098 48.1786 79.0191 48.2497 80.7188Z" fill="#F9C8AD"/>
<path d="M24.0603 47.4861C24.7559 46.637 28.8124 52.3631 28.9943 53.8791C28.1489 53.6616 27.2579 53.0511 26.7464 52.4372C26.2352 51.8515 24.0671 48.273 24.0603 47.4861Z" fill="#F9C8AD"/>
<path d="M31.2245 108.187C30.9496 112.138 29.4121 127.721 30.1287 130.905C30.0308 130.962 28.9837 131.8 27.829 131.586C27.4348 131.519 27.0394 131.325 26.6565 130.935C27.912 123.35 29.8492 105.234 30.1698 96.8422C30.7552 81.7029 29.7628 64.596 26.3905 45.4019C25.6359 41.0804 24.739 36.5634 23.0439 32.4047C22.081 29.9961 20.7958 27.7027 19.2329 25.8193C17.9825 24.2984 16.5518 23.0603 14.956 22.231C11.2419 20.3241 6.7085 21.1926 4.21355 25.2895C1.74648 29.3579 2.15866 36.3383 5.39254 39.6124C6.56984 40.8107 8.108 41.4718 9.45326 40.9683C10.7985 40.4647 11.8227 38.6009 11.5254 36.7486C11.2138 34.8684 9.30463 33.5781 8.18991 34.726C8.45408 32.7705 8.71812 30.8009 8.98192 28.8032C9.06126 28.2263 9.14059 27.6495 9.20586 27.0728C13.4257 27.3312 16.0944 35.121 13.9685 39.6221C11.8844 44.0808 6.36276 44.4801 3.19428 40.6433C2.92437 40.3224 2.68234 39.9732 2.45436 39.6239C-0.210856 35.4596 -0.451044 28.8571 1.77363 24.3973C4.21931 19.4859 8.95394 17.5055 13.293 18.5357C17.4631 19.5393 19.8344 22.2307 22.7371 26.2244C28.9698 34.8404 30.3555 47.0678 31.0224 57.4746C32.2718 76.659 32.2486 93.3813 31.2245 108.187Z" fill="#774E2D"/>
<path d="M27.8435 131.584C27.4493 131.518 27.054 131.324 26.671 130.934C27.9265 123.349 29.8637 105.233 30.1844 96.8412C30.7697 81.7019 29.7774 64.595 26.405 45.4009C25.6504 41.0794 24.7535 36.5624 23.0584 32.4037C22.0815 29.9952 20.7962 27.7018 19.2334 25.8184C21.4941 27.1196 23.8464 30.8651 24.6479 32.5023C26.7942 36.8117 27.5674 41.6529 28.2133 46.411C32.0157 74.6369 31.8862 103.389 27.8435 131.584Z" fill="#683F23"/>
<path d="M13.9832 39.6512C11.8991 44.1098 6.37752 44.5091 3.20904 40.6723C2.93914 40.3515 2.69711 40.0023 2.46913 39.653C3.2621 40.3065 4.1107 40.8893 5.05635 41.3167C7.18762 42.2818 9.9153 42.3143 11.6734 40.7814C13.6826 39.0355 16.6592 33.74 9.01062 28.818C9.08995 28.2412 9.16929 27.6644 9.23456 27.0877C13.4263 27.3463 16.095 35.1361 13.9832 39.6512Z" fill="#683F23"/>
<path d="M26.4766 53.4541C28.0409 53.8902 29.6004 55.3942 30.0069 56.8662C29.1346 56.7895 28.1604 56.3201 27.5514 55.8055C26.9705 55.2906 26.6099 54.2399 26.4766 53.4541Z" fill="#F9C8AD"/>
<path d="M26.3516 55.3086C27.9159 55.7447 29.4754 57.2487 29.8819 58.7207C29.0096 58.6439 28.0354 58.1746 27.4264 57.66C26.8455 57.1451 26.4849 56.0944 26.3516 55.3086Z" fill="#F9C8AD"/>
<path d="M26.9492 57.792C28.2446 58.0196 29.6176 59.0897 30.0775 60.238C29.3746 60.2441 28.5426 59.9562 28.0192 59.5814C27.496 59.2346 27.1233 58.4088 26.9492 57.792Z" fill="#F9C8AD"/>
<path d="M32.7591 53.5084C32.6086 52.3715 32.247 51.2083 31.6606 50.0611C30.5407 50.6048 29.2065 50.771 27.9106 50.4872C28.4551 51.6628 29.4176 52.4133 30.6675 52.2619C30.1621 53.9525 30.7381 55.5214 31.9811 56.1991C32.3958 55.3805 32.8652 54.3927 32.7591 53.5084Z" fill="#F9C8AD"/>
<path d="M60.7498 63.1725C59.054 67.0095 58.5426 71.2577 57.0726 75.191C55.6165 79.1242 52.7962 82.985 48.6844 83.8358C45.3305 84.5395 42.223 82.8662 39.3389 81.0223C40.298 81.3794 41.0405 81.0778 41.5679 80.2863C42.0813 79.509 42.3936 78.2416 42.4642 76.653C43.1254 76.7035 43.8147 76.7537 44.4476 76.7904C43.7818 76.206 43.116 75.6216 42.4642 75.037C42.3026 71.0055 40.8764 65.4392 38.1451 60.1371C38.2161 60.2208 42.4705 66.0717 45.9757 66.5892C46.1125 66.1524 47.0592 65.0903 47.0592 65.0903C47.2917 65.9595 48.2013 67.0898 49.1003 66.9977C49.9994 66.9196 50.7962 66.4068 51.5085 65.8666C51.8298 65.6249 52.1509 65.3692 52.458 65.1136C55.0958 62.8985 57.1939 60.0417 58.5159 56.8685C60.1778 58.8213 61.7839 60.8309 60.7498 63.1725Z" fill="#609CD8"/>
<path d="M62.4471 64.4366C60.7512 68.2736 59.9362 82.8668 48.6977 83.8499C45.284 84.1466 42.2363 82.8803 39.3523 81.0364C40.3114 81.3934 41.0539 81.0919 41.5812 80.3004C43.8976 81.5309 46.8367 81.6318 49.231 80.5008C52.4932 78.9548 54.5989 75.3672 54.6238 71.7556C54.6453 69.3806 53.8378 67.055 52.4572 65.1137C55.095 62.8986 57.193 60.0419 58.5151 56.8686C60.1769 58.8215 63.4811 62.095 62.4471 64.4366Z" fill="#3874A5"/>
<path d="M46.3968 68.1599C48.3189 70.9396 49.2765 74.36 49.0528 77.7345C49.6664 75.537 49.5781 73.4721 49.2912 71.1981C49.1853 70.3419 48.9948 69.4442 48.4547 68.7744C47.9147 68.1046 47.181 67.8018 46.3968 68.1599Z" fill="#3874A5"/>
<path d="M65.2362 81.1147C65.3509 79.7506 65.3531 78.3875 65.2431 77.0535C65.0541 74.7225 64.5 72.4368 63.4828 70.2535C62.251 67.6365 60.3889 65.2919 58.5272 62.9895C55.5427 59.2916 52.5448 55.6782 52.111 51.0588C53.8834 51.1699 55.6968 51.1541 57.4809 50.998C62.7209 50.5449 67.9088 48.9541 72.3847 46.3155C74.4501 47.7871 76.5159 49.3148 78.4982 50.9276C81.0184 52.9714 83.4415 55.1565 85.6133 57.5546C86.1526 58.1401 86.664 58.7399 87.1754 59.3537C92.5039 65.8417 95.4704 73.938 96.7101 82.3023" fill="#609CD8"/>
<path d="M67.2381 60.7052C66.6561 61.6798 66.2707 62.6247 65.7028 63.5992C69.8056 68.1727 72.0107 74.3926 71.7125 80.522C72.0077 80.5194 72.0518 80.7439 72.3469 80.7273C72.3013 73.8702 70.7198 66.6049 67.2381 60.7052Z" fill="#3874A5"/>
<path d="M78.2015 81.5919C79.5389 81.8051 89.2862 80.7086 90.6236 80.9218C92.0767 66.9553 84.803 69.5761 81.1204 61.5843C80.0601 59.289 77.1005 55.2255 77.5147 52.7347C77.6348 52.0029 77.9952 51.4096 78.5112 50.9273C81.0314 52.9711 83.4545 55.1562 85.6263 57.5543C86.1657 58.1398 86.677 58.7396 87.1884 59.3534C92.5169 65.8413 95.4822 73.7972 96.7218 82.1615C96.916 83.4667 96.6577 81.2487 96.7676 82.5686" fill="#3874A5"/>
<path d="M111.981 37.4141C111.996 37.4279 111.996 37.4419 112.01 37.4558C111.996 37.4559 111.982 37.442 111.981 37.4141Z" fill="#F5BA90"/>
<path d="M97.1792 86.2003C87.1361 80.7652 74.4394 80.5805 64.4492 86.0635C63.8959 85.4921 64.2908 82.3972 65.2356 81.1103C73.7415 77.9167 83.3138 77.721 91.9695 80.4421C93.5907 80.9479 95.1847 81.5664 96.7233 82.2837C96.9175 83.5889 97.0694 84.8944 97.1792 86.2003Z" fill="#635B54"/>
<path d="M97.1792 86.2002C87.1362 80.765 74.4395 80.5804 64.4492 86.0633C64.1771 85.4895 64.1845 84.7166 64.3055 84.0832C64.3763 84.1388 64.982 84.274 65.0667 84.3155C65.7155 84.5628 66.43 84.2755 67.0604 84.0171C73.4348 81.4463 80.5567 80.7661 87.3025 82.1126C88.3165 82.3146 89.3731 82.5583 90.3687 82.2686C91.1962 82.0366 91.9345 81.2573 91.9696 80.4419C93.5907 80.9478 95.1848 81.5663 96.7234 82.2836C97.6187 83.3859 97.9231 86.0532 97.1792 86.2002Z" fill="#514943"/>
<path d="M106.17 67.629C104.665 67.6421 100.538 66.7224 100.02 65.3077C99.775 64.6494 99.5728 64.0328 99.399 63.4441C98.761 61.2154 98.6606 59.3614 98.7497 56.6766C98.8494 53.5983 102.292 48.5096 103.42 45.6472C103.887 44.4487 104.779 41.9256 106.124 43.0521C107.116 43.8866 109.005 52.6247 109.421 55.1645C109.436 55.2487 109.451 55.3329 109.465 55.403C111.264 66.587 107.688 67.6158 106.17 67.629Z" fill="#3874A5"/>
<path d="M113.757 46.0184C112.957 47.838 111.882 50.3346 110.623 52.6782C110.139 53.5818 109.627 54.4715 109.086 55.2913C108.197 56.634 103.507 63.743 102.516 64.5104C98.1703 65.9535 99.9824 59.3191 101.049 57.4971C101.714 56.3812 108.62 47.0326 109.241 45.7344C109.766 44.6619 110.291 43.6175 110.832 42.6853C112.296 42.9536 113.421 44.5599 113.757 46.0184Z" fill="#F9C8AD"/>
<path d="M112.49 40.9289C113.204 38.9975 113.295 38.1536 113.089 37.0734C112.029 36.4081 111.559 34.1779 111.87 32.6856C112.488 34.226 113.301 35.582 114.35 36.6549C114.125 38.1745 114.153 39.8324 114.42 41.432C113.901 41.5349 112.985 41.2759 112.49 40.9289Z" fill="#F9C8AD"/>
<path d="M113.704 39.8782C114.562 38.3531 114.809 37.564 114.727 36.2438C113.928 34.9579 113.672 32.9226 114.123 31.4713C114.601 33.0691 115.316 34.4821 116.282 35.6401C115.901 37.147 115.41 38.8797 115.537 40.4946C115.003 40.5554 114.185 40.2815 113.704 39.8782Z" fill="#F9C8AD"/>
<path d="M115.389 39.6521C115.873 38.7345 116.427 37.7742 116.614 36.6343C116.123 35.1912 116.425 32.7295 117.257 31.4294C117.356 33.0867 117.389 35.2505 118.076 36.6216C117.314 37.9772 117.098 38.9347 116.83 40.5389C116.267 40.4314 115.773 40.1547 115.389 39.6521Z" fill="#F9C8AD"/>
<path d="M117.704 42.4449C117.704 42.4449 114.229 45.3698 113.756 46.0063C113.053 46.0124 111.465 46.0403 110.928 45.7358C109.105 44.6977 109.336 42.068 110.804 41.1278C110.817 41.1136 110.845 41.0993 110.859 41.0851C111.825 40.5146 112.552 40.157 113.106 39.1685C113.12 39.1544 113.12 39.1403 113.134 39.1261C113.328 38.8434 113.666 38.9248 113.789 38.5162C115.984 38.6517 116.72 39.2917 117.149 40.0749C117.249 40.2567 117.349 40.4525 117.435 40.6485C117.449 40.6625 117.449 40.6765 117.464 40.6904C117.607 40.9983 117.491 42.2359 117.704 42.4449Z" fill="#F9C8AD"/>
<path d="M112.53 42.3932C112.077 42.0318 111.624 41.6703 111.171 41.2949C111.689 41.0655 112.265 41.0324 112.774 41.2809C113.682 40.6407 114.69 40.1682 115.785 39.99C114.738 40.8563 113.577 41.5409 112.53 42.3932Z" fill="#E0B19B"/>
<path d="M119.484 38.5638C118.692 39.7089 118.086 41.0491 117.704 42.4577C117.493 42.4033 117.238 42.1666 116.996 41.8596C116.698 41.4968 116.413 41.0637 116.256 40.784C116.354 40.8112 116.745 40.5268 117.149 40.0877C117.609 39.5918 118.095 38.885 118.23 38.2234C118.233 37.0289 118.727 35.5913 119.561 34.502C119.537 35.0362 119.5 35.5705 119.462 36.0908C119.386 36.9908 119.351 37.8483 119.484 38.5638Z" fill="#F9C8AD"/>
<path d="M109.905 44.4056C109.391 41.9088 108.334 40.0069 108.334 40.0069C109.256 39.2682 109.794 38.0691 110.3 36.4768C111.071 37.8191 110.771 38.9037 110.103 39.7105C109.871 40.4994 111.355 41.3578 111.259 41.6677C111.639 41.7487 111.701 42.3525 111.676 42.7742C111.652 43.196 111.43 43.6055 111.124 43.9032C110.803 44.187 110.283 44.2478 109.905 44.4056Z" fill="#F9C8AD"/>
<path d="M107.097 67.5044C107.097 67.5044 100.508 71.1731 94.0971 69.5988C89.307 68.432 70.0367 57.6108 76.9434 49.9766C84.1606 55.4082 97.1303 56.265 104.525 43.3148C102.515 51.4264 102.478 56.893 103.171 60.5405C102.402 61.1093 101.449 61.4408 100.493 61.4351C101.467 61.9184 102.453 62.0925 103.478 61.915C104.712 66.4431 107.097 67.5044 107.097 67.5044Z" fill="#609CD8"/>
<path d="M114.477 28.4625C114.477 28.4625 121.085 25.3417 119.906 20.6866C119.586 19.3966 118.523 18.4363 117.726 17.3752C116.93 16.3142 116.271 14.9568 116.682 13.6886C115.761 14.4835 115.066 15.4029 114.739 16.5721C113.983 15.2718 114.489 13.6655 115.194 12.3385C115.9 11.0114 116.916 9.86435 117.508 8.48208C118.101 7.09981 118.17 5.32864 117.12 4.25575C117.3 5.49078 116.409 6.52434 115.346 7.17998C114.283 7.83563 113.035 8.11348 111.872 8.58732C107.753 10.2813 104.46 14.7083 105.061 19.1154C106.172 27.2701 114.477 28.4625 114.477 28.4625Z" fill="#FFA618"/>
<path d="M114.33 27.719C115.747 27.3694 116.961 26.319 117.539 24.9931C118.104 23.6532 118.006 22.0521 117.278 20.7937C116.964 20.2484 116.538 19.7744 116.224 19.215C115.91 18.6697 115.721 17.9968 115.913 17.405C114.498 18.0215 113.667 19.434 113.807 20.9644C112.276 19.5444 111.626 17.5547 111.777 15.4736C111.927 13.3926 113.063 11.4014 114.782 10.206C111.981 11.4951 109.084 12.9817 107.716 15.7338C106.569 18.0483 106.848 20.9407 108.174 23.1634C109.515 25.372 111.835 26.9959 114.33 27.719Z" fill="#FFF03E"/>
<path d="M114.627 5.20263C115.326 4.84524 115.727 4.04078 115.706 3.25404C115.685 2.4673 115.271 1.72614 114.704 1.19708C114.137 0.653981 113.417 0.308939 112.67 0.0625C113.065 0.241741 113.309 0.745502 113.354 1.16667C113.414 1.58771 113.334 2.02403 113.239 2.44642C113.158 2.86869 113.078 3.29096 113.138 3.72605C113.257 4.46978 113.88 5.0405 114.627 5.20263Z" fill="#FFA618"/>
<ellipse cx="40.8248" cy="6.62024" rx="40.8248" ry="6.62024" transform="matrix(-1 -4.138e-09 -4.138e-09 1 106.409 124.28)" fill="#484242" fill-opacity="0.09"/>
<path d="M59.1807 40.9872C50.2305 41.5991 34.8889 41.1985 37.1918 37.6514C38.3949 36.9664 39.5843 36.3237 40.7461 35.7375C55.2899 28.4584 68.1216 28.0096 79.1007 31.1461C82.0886 32.0054 84.2712 34.024 87.121 35.1655C89.2523 39.3626 62.7917 40.7451 59.1807 40.9872Z" fill="#25587A"/>
<path d="M81.0606 31.8563C81.0426 33.0228 80.3351 34.111 79.4277 34.8496C78.5203 35.5882 77.3993 36.0195 76.292 36.3945C68.0073 39.1646 59.0208 38.8212 50.3517 37.8005C48.874 37.6307 47.382 37.4188 46.0131 36.8265C44.8982 36.3303 43.8649 35.5243 43.2792 34.4614C57.823 27.1823 69.9462 27.7092 80.9253 30.8457C81.0124 31.1682 81.0575 31.505 81.0606 31.8563Z" fill="#293D54"/>
<path fill-rule="evenodd" clip-rule="evenodd" d="M50.7082 48.1838C50.7082 48.1838 52.6776 54.7853 60.7346 54.94C68.7917 55.0948 75.1151 49.8967 75.7376 45.507C76.3602 41.1173 77.0586 29.2793 71.9597 26.5553C66.8608 23.8314 55.1298 24.7625 49.372 31.9511C49.372 31.9511 47.4604 38.4599 50.7082 48.1838Z" fill="#F9C8AD"/>
<path d="M74.8301 46.2456C74.8301 46.2456 74.7268 47.3004 73.4185 48.8153C72.8063 49.5514 71.9137 50.3742 70.6417 51.2284C69.9849 51.6837 69.2157 52.1401 68.334 52.5974C68.306 52.6117 68.2639 52.6261 68.2361 52.6545C68.0822 52.7401 67.9281 52.8117 67.7742 52.8974C67.7182 52.926 67.6763 52.9545 67.6203 52.983C67.6203 52.983 67.6064 52.9972 67.5643 53.0116C66.6824 53.4409 65.674 53.8853 64.567 54.3024C65.2547 54.17 65.9841 53.9809 66.7412 53.7355C71.9844 52.0458 74.7501 48.3681 75.1884 47.0294C75.2158 46.9448 75.2433 46.8743 75.2567 46.8039L74.8387 45.6131L74.8301 46.2456Z" fill="#E0B19B"/>
<path fill-rule="evenodd" clip-rule="evenodd" d="M50.5291 43.6456C50.5291 43.6456 49.3559 46.143 47.7331 43.8385C46.0963 41.5341 46.6026 39.9418 47.4272 39.3726C48.2516 38.7893 50.4952 39.7394 50.592 42.7878L50.5291 43.6456Z" fill="#F9C8AD"/>
<path fill-rule="evenodd" clip-rule="evenodd" d="M49.012 42.1957C49.012 42.1957 48.7331 40.8351 48.1552 40.6715C47.5773 40.4938 47.104 41.0319 47.104 41.0319C47.104 41.0319 47.6511 40.9007 47.9194 41.0389C48.1878 41.1771 48.9729 42.5474 48.9761 42.9127C48.9793 43.278 48.7567 43.5469 49.024 43.5727C49.2913 43.5985 49.0834 43.9376 49.0834 43.9376C49.0834 43.9376 49.5472 43.9195 49.012 42.1957Z" fill="#E0B19B"/>
<path fill-rule="evenodd" clip-rule="evenodd" d="M48.4994 41.4698C48.4994 41.4698 47.7307 41.94 47.7929 42.6276C47.8551 43.3152 48.4634 43.7874 48.4634 43.7874C48.4634 43.7874 47.6184 43.5701 47.5391 42.5315C47.4599 41.4929 48.0601 41.0383 48.0601 41.0383L48.4994 41.4698Z" fill="#E0B19B"/>
<path fill-rule="evenodd" clip-rule="evenodd" d="M48.8739 42.437C48.8739 42.437 48.2758 43.1729 48.5734 43.4514C48.871 43.7158 49.1795 43.6288 49.1795 43.6288L49.0884 42.8567L48.8739 42.437Z" fill="#E0B19B"/>
<path fill-rule="evenodd" clip-rule="evenodd" d="M48.118 39.6734C48.118 39.6734 48.9919 39.9888 49.0524 40.4799C49.1129 40.9709 48.7862 40.5664 48.3768 40.3453C47.9674 40.1241 47.6019 40.0992 47.6019 40.0992C47.6019 40.0992 47.5685 39.4956 48.118 39.6734Z" fill="#FDDBC1"/>
<path d="M75.5292 32.8484C82.0996 60.8956 55.698 64.2167 43.8589 60.8067C48.4772 58.3776 50.5516 54.425 51.0602 48.2376C51.7924 51.6038 71.2495 58.039 75.5292 32.8484Z" fill="#F7E5DC"/>
<path d="M53.9994 46.8049C63.6601 42.2242 64.4058 47.136 69.4531 45.5464C63.0009 52.0946 49.7051 50.9174 48.5108 46.1501C49.4985 46.5631 50.7466 44.5849 53.9994 46.8049Z" fill="#F7E5DC"/>
<path fill-rule="evenodd" clip-rule="evenodd" d="M76.3293 43.9423C76.3293 43.9423 78.5849 46.2694 80.0595 42.8559C81.5341 39.4424 80.1978 37.7397 78.7886 37.3585C77.3794 36.9773 75.4339 37.9779 76.4504 41.6929L76.3293 43.9423Z" fill="#F9C8AD"/>
<path fill-rule="evenodd" clip-rule="evenodd" d="M77.5723 41.3756C77.5723 41.3756 77.4587 39.6341 78.2282 39.2059C78.9977 38.7776 79.8875 39.2477 79.8875 39.2477C79.8875 39.2477 79.0585 39.297 78.7093 39.5671C78.3602 39.8371 77.7587 41.7956 77.9032 42.244C78.0477 42.6924 78.4574 42.9277 78.079 43.0575C77.7006 43.2013 78.1392 43.5207 78.1392 43.5207C78.1392 43.5207 77.4655 43.653 77.5723 41.3756Z" fill="#E0B19B"/>
<path fill-rule="evenodd" clip-rule="evenodd" d="M78.0413 40.2875C78.0413 40.2875 79.323 40.5574 79.5132 41.4129C79.6893 42.2686 78.9933 43.0616 78.9933 43.0616C78.9933 43.0616 80.141 42.4754 79.8627 41.1851C79.5703 39.8948 78.5272 39.5807 78.5272 39.5807L78.0413 40.2875Z" fill="#E0B19B"/>
<path fill-rule="evenodd" clip-rule="evenodd" d="M77.8553 41.6091C77.8553 41.6091 78.9992 42.2733 78.6799 42.7115C78.3605 43.1496 77.8829 43.1678 77.8829 43.1678L77.72 42.2002L77.8553 41.6091Z" fill="#E0B19B"/>
<path fill-rule="evenodd" clip-rule="evenodd" d="M77.8932 37.9845C77.8932 37.9845 76.7473 38.6967 76.865 39.3136C76.9688 39.9307 77.2865 39.31 77.8028 38.8982C78.3191 38.4864 78.8235 38.3135 78.8235 38.3135C78.8235 38.3135 78.6342 37.5568 77.8932 37.9845Z" fill="#FDDBC1"/>
<path d="M66.269 43.1833C68.0935 43.1675 69.5588 41.5819 69.542 39.6418C69.5251 37.7018 68.0324 36.1419 66.2079 36.1578C64.3834 36.1737 62.918 37.7592 62.9349 39.6993C62.9517 41.6394 64.4445 43.1992 66.269 43.1833Z" fill="white"/>
<path d="M65.1326 41.7903C66.0798 41.782 66.8394 40.8317 66.8293 39.6677C66.8192 38.5036 66.0431 37.5667 65.0959 37.5749C64.1487 37.5832 63.3891 38.5335 63.3992 39.6975C63.4093 40.8615 64.1854 41.7985 65.1326 41.7903Z" fill="black"/>
<path d="M64.344 40.0965C64.6544 40.0938 64.9027 39.7207 64.8988 39.2631C64.8948 38.8055 64.64 38.4367 64.3296 38.4394C64.0192 38.4421 63.7708 38.8153 63.7748 39.2729C63.7788 39.7305 64.0336 40.0992 64.344 40.0965Z" fill="white"/>
<path d="M52.769 42.6848C54.0501 42.6737 55.078 41.4505 55.065 39.9528C55.0519 38.455 54.0029 37.2499 52.7219 37.2611C51.4408 37.2722 50.4129 38.4954 50.4259 39.9931C50.439 41.4908 51.488 42.6959 52.769 42.6848Z" fill="white"/>
<path d="M52.451 41.7448C53.2041 41.7383 53.8077 40.9403 53.7992 39.9625C53.7907 38.9847 53.1733 38.1974 52.4202 38.204C51.6671 38.2105 51.0635 39.0085 51.072 39.9863C51.0805 40.964 51.6979 41.7514 52.451 41.7448Z" fill="black"/>
<path d="M51.9312 40.2047C52.1874 40.2025 52.3926 39.9113 52.3895 39.5543C52.3864 39.1973 52.1762 38.9098 51.92 38.912C51.6638 38.9142 51.4586 39.2054 51.4617 39.5624C51.4648 39.9193 51.675 40.2069 51.9312 40.2047Z" fill="white"/>
<path d="M63.3132 34.6415C62.999 37.3001 69.3642 35.2915 69.3642 35.2915C69.3642 35.2915 63.5748 32.3909 63.3132 34.6415Z" fill="#9C9DA0"/>
<path d="M54.8699 35.2884C55.1436 37.6608 50.2504 35.9609 50.2504 35.9609C50.2504 35.9609 54.6414 33.2669 54.8699 35.2884Z" fill="#9C9DA0"/>
<path fill-rule="evenodd" clip-rule="evenodd" d="M69.8497 42.5936C66.6605 47.6802 62.5385 42.5167 62.5385 42.5167C62.5385 42.5167 67.1604 40.5092 69.8497 42.5936Z" fill="#F9C8AD"/>
<path fill-rule="evenodd" clip-rule="evenodd" d="M53.2636 43.0192C50.0743 48.1057 49.7419 42.2067 49.7419 42.2067C49.7419 42.2067 51.9813 41.063 54.6706 43.1475" fill="#F9C8AD"/>
<path d="M56.4212 39.1714L52.1619 45.7006L53.1558 46.8161L56.6641 46.083L58.9011 44.6583L59.7046 44.9043" fill="#F9C8AD"/>
<path d="M59.75 45.2121C58.1833 44.509 53.8622 48.7763 51.8899 46.6857C50.7695 45.5712 56.7379 38.3527 57.0203 38.4908C56.8859 39.1945 52.6779 45.1612 52.8641 45.553C52.7443 47.9429 58.9949 44.0664 59.558 44.1598C60.7267 44.3604 60.3286 45.474 59.75 45.2121Z" fill="#E0B19B"/>
<path d="M89.0349 14.5705C88.9961 18.1822 86.0322 21.707 82.4339 21.7945C81.0986 21.8202 79.7028 21.3686 78.8783 20.3219C78.0539 19.2892 77.9691 17.6177 78.9169 16.682C79.3643 18.0131 80.3311 19.2553 81.7245 19.4259C83.1178 19.5964 84.5881 18.9232 85.365 17.736C86.3084 16.2805 86.0793 14.1887 84.8455 12.9628C83.7535 11.8762 82.1338 11.539 80.5997 11.3416C78.6716 11.1054 76.6043 11.025 74.883 11.9393C72.1401 13.3965 71.1594 17.0165 71.8185 20.0601C71.936 20.6352 72.0815 21.196 72.2549 21.7425C72.4285 22.3031 72.6441 22.8493 72.8878 23.3811C73.3749 24.4308 74.0301 25.4088 74.9099 26.3426C75.3355 26.7886 75.8171 27.2059 76.355 27.6228C76.5531 27.7757 76.7652 27.9144 76.9774 28.0671C70.4539 28.0395 63.8455 27.9424 57.2794 27.8731C54.5377 27.8407 51.8101 27.8223 49.0826 27.8038C48.9701 27.8048 48.8717 27.8057 48.7592 27.8067C48.971 26.2872 49.3234 24.7805 49.7886 23.3151C49.9941 22.695 50.2137 22.0748 50.4474 21.4685C50.4612 21.4403 50.4611 21.4262 50.4749 21.398C51.906 17.8303 54.0847 14.5513 56.8309 11.8715C60.6367 8.15676 65.5491 5.59869 70.7699 4.55557C71.4996 4.4087 72.2437 4.28981 72.9741 4.2132C76.5555 3.80264 80.3402 4.13507 83.4905 5.87825C86.1605 7.35861 88.292 9.96782 88.866 12.9278C88.983 13.4468 89.0441 14.0083 89.0349 14.5705Z" fill="#609CD8"/>
<path d="M82.5693 34.2034C81.7605 33.3533 80.9377 32.5032 80.1149 31.6532C80.2898 32.3684 80.4649 33.0976 80.6398 33.8127C55.2627 28.8482 49.9815 32.646 37.1895 37.6615C37.8274 36.6442 39.6671 34.8014 41.7459 32.9706C44.341 30.6856 47.3157 28.4114 48.7725 27.7945C52.8485 26.0587 62.5131 25.1597 69.6472 25.8845C69.9849 25.9237 70.3227 25.963 70.6323 26.0024C72.3355 26.2405 73.7447 26.6217 74.6888 26.8665C77.2837 27.7995 86.9489 35.0506 87.1045 35.1617C85.541 34.824 84.0199 34.5 82.5693 34.2034Z" fill="#609CD8"/>
<path d="M89.0349 14.572C88.996 18.1837 86.0322 21.7085 82.4339 21.796C81.0985 21.8217 79.7028 21.3701 78.8783 20.3233C78.0539 19.2906 77.969 17.6192 78.9169 16.6835C79.3643 18.0146 80.3311 19.2568 81.7244 19.4273C83.1177 19.5979 84.588 18.9247 85.365 17.7375C86.3083 16.2819 86.0792 14.1902 84.8455 12.9643C83.7535 11.8777 82.1338 11.5405 80.5997 11.3431C78.6716 11.1069 76.6042 11.0265 74.883 11.9408C72.1401 13.398 71.1594 17.018 71.8185 20.0615C71.936 20.6367 72.0814 21.1975 72.2549 21.744C72.4285 22.3046 72.6441 22.8507 72.8877 23.3826C73.3749 24.4323 74.0301 25.4102 74.9098 26.3441C72.1617 25.5811 68.8897 24.387 67.4232 22.2638C65.5297 19.5401 65.5244 15.7039 67.1446 12.8653C68.9171 9.75843 72.4007 7.80298 75.9549 7.49102C79.5231 7.17894 83.1186 8.38426 86.0604 10.4103C87.0788 11.1181 88.0422 11.9669 88.8518 12.9154C88.983 13.4482 89.0441 14.0098 89.0349 14.572Z" fill="#3874A5"/>
<path d="M82.5695 34.2032C81.7607 33.3531 80.9379 32.503 80.1151 31.653C80.29 32.3681 80.4651 33.0973 80.64 33.8125C55.2629 28.848 49.9817 32.6458 37.1897 37.6613C37.8276 36.644 39.6673 34.8012 41.7461 32.9704C41.7625 33.2372 41.835 33.4896 41.9916 33.713C42.6315 34.5506 43.9363 34.2441 44.9312 33.8701C51.3774 31.4673 58.2982 30.297 65.1743 30.4621C66.3134 30.4943 67.4808 30.5544 68.5888 30.2497C69.6968 29.9449 70.7447 29.2051 71.0866 28.1061C71.1825 27.8101 70.8494 26.6889 70.6325 26.0022C72.3357 26.2403 75.9164 27.3615 76.3544 27.6106C79.5475 29.4377 86.9632 35.0503 87.1188 35.1613C85.5413 34.8238 84.0201 34.4997 82.5695 34.2032Z" fill="#3874A5"/>
<path d="M76.3685 27.6098C71.3624 25.8547 62.1861 24.712 49.0961 27.7908C48.9979 27.8198 48.8852 27.7927 48.7727 27.7937C48.8392 27.3575 48.9056 26.9072 48.9862 26.4709C49.1877 25.4012 49.4597 24.3449 49.7881 23.3022C55.2993 21.7085 61.3691 21.2904 67.2248 22.1247C69.1392 22.4032 71.0406 22.8082 72.8872 23.3683C73.6177 24.9217 74.6845 26.3457 76.3685 27.6098Z" fill="#635B54"/>
<path d="M76.3692 27.609C71.363 25.8539 62.1868 24.7111 49.0967 27.79C48.9985 27.819 48.8858 27.7918 48.7734 27.7928C48.8399 27.3566 48.9062 26.9064 48.9868 26.4701C53.8778 24.685 59.4407 25.803 64.4901 24.4522C65.4018 24.2054 66.3547 23.8458 66.9245 23.082C67.1329 22.7992 67.2003 22.4754 67.2255 22.1379C69.1399 22.4164 71.0414 22.8214 72.888 23.3815C73.6184 24.9208 74.6852 26.3449 76.3692 27.609Z" fill="#514943"/>
</svg>
